<svg width="126" height="125" viewBox="0 0 126 125" fill="none" xmlns="http://www.w3.org/2000/svg">
<path d="M20.3997 107.122C20.3752 107.129 20.3752 107.129 20.3507 107.135C19.5297 107.293 18.6779 107.433 17.8506 107.567C17.4279 107.649 17.0397 107.357 16.9882 106.952C16.906 106.53 17.1981 106.141 17.6027 106.09C18.43 105.956 19.251 105.798 20.072 105.64C20.4948 105.558 20.8767 105.825 20.9589 106.248C21.0349 106.646 20.7917 107.022 20.3997 107.122Z" fill="#B7A580"/>
<path d="M198.424 79.5918C197.983 79.7048 197.512 79.7996 197.04 79.8944C196.617 79.9766 196.229 79.6845 196.178 79.2799C196.095 78.8572 196.387 78.469 196.792 78.4175C198.391 78.1382 199.928 77.6139 201.285 76.9005C201.652 76.702 202.107 76.8465 202.306 77.2134C202.504 77.5803 202.359 78.0351 201.993 78.2335C200.91 78.7981 199.698 79.2653 198.424 79.5918ZM192.103 79.9848C192.005 80.01 191.925 80.0043 191.821 80.0049C190.04 79.7823 188.344 79.2771 186.776 78.5564C186.388 78.3685 186.226 77.9401 186.414 77.5525C186.602 77.165 187.031 77.003 187.418 77.1908C188.839 77.8449 190.363 78.2898 192.008 78.4948C192.413 78.5476 192.722 78.9384 192.669 79.3436C192.622 79.6689 192.397 79.9095 192.103 79.9848ZM205.716 75.1384C205.496 75.1949 205.225 75.1597 205.022 74.9769C204.714 74.6904 204.674 74.2306 204.93 73.904C205.953 72.7018 206.804 71.335 207.439 69.8407C207.603 69.4594 208.049 69.2667 208.43 69.43C208.812 69.5934 209.005 70.04 208.841 70.4213C208.139 72.0632 207.222 73.5776 206.095 74.8847C205.998 75.0141 205.863 75.1007 205.716 75.1384ZM183.22 75.6821C182.95 75.7511 182.668 75.6669 182.489 75.4778C181.415 74.3432 180.579 73.0171 180 71.5729C179.919 71.3587 179.838 71.1445 179.757 70.9303C179.625 70.52 179.831 70.1017 180.242 69.9705C180.627 69.8455 181.07 70.0453 181.201 70.4555C181.276 70.6453 181.326 70.8412 181.426 71.0247C181.93 72.2792 182.673 73.4464 183.611 74.4591C183.901 74.7764 183.892 75.2487 183.575 75.5389C183.458 75.5948 183.342 75.6507 183.22 75.6821ZM209.649 66.0369C209.551 66.062 209.447 66.0626 209.367 66.0569C208.962 66.0041 208.653 65.6134 208.706 65.2082C208.93 63.6366 208.933 62.0172 208.77 60.362C208.718 59.9574 209.035 59.563 209.446 59.536C209.85 59.4845 210.245 59.8012 210.271 60.212C210.46 61.9652 210.439 63.7197 210.216 65.3956C210.163 65.6965 209.943 65.9615 209.649 66.0369ZM93.8308 89.557C93.4388 89.6575 93.0142 89.4269 92.9137 89.0349C92.807 88.6184 93.0439 88.2183 93.4296 88.0933C94.9422 87.6796 96.5278 87.1427 98.156 86.5688C98.5355 86.4193 98.9783 86.6191 99.134 87.023C99.2835 87.4025 99.0837 87.8453 98.6797 88.001C97.0333 88.6057 95.4169 89.1244 93.8308 89.557ZM88.9549 90.7021C88.9304 90.7084 88.9304 90.7084 88.9059 90.7147C87.184 91.0254 85.4616 91.2319 83.8428 91.3334C83.432 91.3604 83.062 91.0375 83.0351 90.6267C83.0081 90.2158 83.331 89.8459 83.7419 89.8189C85.3361 89.7236 86.9788 89.5115 88.6271 89.2196C89.0499 89.1374 89.4381 89.4296 89.514 89.8278C89.5655 90.2324 89.3223 90.608 88.9549 90.7021ZM35.1205 103.846C34.7285 103.946 34.3039 103.716 34.1972 103.299C34.0904 102.883 34.3273 102.483 34.7438 102.376C36.3607 101.962 37.9651 101.498 39.5695 101.035C39.9615 100.934 40.3861 101.165 40.511 101.551C40.6178 101.967 40.3809 102.367 39.9952 102.492C38.3908 102.956 36.7619 103.425 35.1205 103.846ZM30.2389 105.071C28.5912 105.467 26.9372 105.839 25.3014 106.18C24.8787 106.262 24.4968 105.994 24.3963 105.602C24.3141 105.179 24.5817 104.798 24.9737 104.697C26.585 104.362 28.239 103.991 29.8622 103.601C30.2787 103.494 30.6851 103.756 30.7673 104.178C30.886 104.54 30.6554 104.964 30.2389 105.071ZM103.294 86.1397C102.951 86.2276 102.563 86.0398 102.402 85.7156C102.228 85.3425 102.421 84.8751 102.801 84.7257C103.602 84.3897 104.422 84.023 105.236 83.6317C105.933 83.2964 106.637 82.9855 107.328 82.6257C107.701 82.4517 108.156 82.5963 108.33 82.9694C108.503 83.3426 108.359 83.7973 107.986 83.9713C107.264 84.3129 106.567 84.6483 105.869 84.9836C105.031 85.3811 104.212 85.7479 103.41 86.0838C103.367 86.1209 103.318 86.1335 103.294 86.1397ZM179.921 66.476C179.847 66.4948 179.774 66.5137 179.718 66.5017C179.295 66.4797 178.974 66.1442 178.996 65.7208C179.06 64.0336 179.368 62.2836 179.947 60.5688C180.08 60.1693 180.52 59.952 180.919 60.0846C181.319 60.2172 181.536 60.6575 181.404 61.057C180.867 62.6305 180.57 64.221 180.524 65.7732C180.483 66.123 180.239 66.3944 179.921 66.476ZM44.7713 101.059C44.3793 101.16 43.9855 100.947 43.8605 100.562C43.7293 100.152 43.9599 99.7269 44.3456 99.602C45.9374 99.0896 47.5292 98.5772 49.1148 98.0403C49.525 97.9091 49.9433 98.1152 50.0745 98.5254C50.2058 98.9356 49.9997 99.3539 49.5895 99.4852C48.0039 100.022 46.3939 100.565 44.7958 101.053C44.7958 101.053 44.7958 101.053 44.7713 101.059ZM54.272 97.7891C53.9045 97.8833 53.5169 97.6954 53.3675 97.316C53.218 96.9366 53.4178 96.4937 53.8218 96.338C54.8928 95.933 55.9884 95.5217 57.0595 95.1166C57.5369 94.9421 58.0325 94.7367 58.5037 94.5376C58.8831 94.3882 59.3442 94.5572 59.4999 94.9612C59.6493 95.3406 59.4803 95.8016 59.0764 95.9574C58.5807 96.1627 58.1033 96.3373 57.6077 96.5426C56.5366 96.9476 55.4473 97.3835 54.3455 97.7703C54.3455 97.7703 54.321 97.7765 54.272 97.7891ZM78.9476 91.2826C78.8741 91.3014 78.7943 91.2957 78.69 91.2964C77.837 91.2278 76.9777 91.1347 76.1366 91.0109C75.2955 90.887 74.4418 90.7141 73.6001 90.486C73.1824 90.3842 72.9469 89.9746 73.0487 89.5569C73.1505 89.1392 73.5601 88.9037 73.9778 89.0055C74.758 89.1972 75.5871 89.3763 76.373 89.4882C77.1651 89.6246 77.9936 89.6995 78.8221 89.7743C79.2455 89.7964 79.5482 90.1626 79.5262 90.586C79.4853 90.9359 79.2416 91.2072 78.9476 91.2826ZM112.328 81.762C111.985 81.8499 111.634 81.7047 111.473 81.3806C111.275 81.0137 111.419 80.5589 111.786 80.3605C113.26 79.5912 114.721 78.7728 116.151 77.9363C116.512 77.7134 116.991 77.8516 117.19 78.2185C117.413 78.5791 117.274 79.0583 116.908 79.2568C115.453 80.0996 113.967 80.9242 112.499 81.718C112.45 81.7306 112.377 81.7494 112.328 81.762ZM63.5856 93.9924C63.2426 94.0803 62.8613 93.9169 62.7244 93.5865C62.5504 93.2134 62.7195 92.7523 63.0926 92.5784C64.7014 91.8267 66.157 91.0881 67.5265 90.3194C67.8933 90.121 68.3418 90.241 68.5648 90.6016C68.7632 90.9685 68.6432 91.417 68.2826 91.6399C66.8704 92.4457 65.3904 93.1905 63.7571 93.9485C63.6836 93.9673 63.6346 93.9799 63.5856 93.9924ZM208.622 56.1181C208.254 56.2123 207.836 56.0062 207.711 55.6205C207.18 54.0594 206.466 52.5976 205.624 51.2469C205.401 50.8864 205.491 50.4196 205.851 50.1967C206.212 49.9737 206.678 50.063 206.901 50.4236C207.818 51.8597 208.563 53.444 209.143 55.0968C209.275 55.507 209.068 55.9253 208.658 56.0565C208.671 56.1055 208.646 56.1118 208.622 56.1181ZM121.008 76.7177C120.69 76.7993 120.37 76.6724 120.166 76.3853C119.943 76.0247 120.032 75.558 120.393 75.335C121.811 74.4495 123.192 73.5212 124.566 72.5685C124.921 72.321 125.387 72.4103 125.635 72.7646C125.882 73.1189 125.793 73.5856 125.439 73.8331C124.064 74.7858 122.634 75.7266 121.216 76.6122C121.174 76.6492 121.082 76.6988 121.008 76.7177ZM72.3094 89.0153C72.0155 89.0907 71.702 88.9882 71.5042 88.7257C71.263 88.3958 71.346 87.9046 71.6758 87.6635C73.0686 86.6799 74.3382 85.6235 75.4728 84.5495C75.7656 84.2656 76.2624 84.2688 76.5463 84.5616C76.8302 84.8543 76.827 85.3512 76.5342 85.6351C75.3632 86.7707 74.0264 87.8704 72.5664 88.8973C72.4809 88.9714 72.4074 88.9902 72.3094 89.0153ZM69.229 88.8127C69.0575 88.8566 68.8979 88.8453 68.7195 88.7605C67.1511 88.0398 65.6248 87.1778 64.2266 86.2046C63.8755 85.9551 63.8052 85.4771 64.0364 85.1568C64.2859 84.8057 64.7394 84.7416 65.0842 84.9666C66.4146 85.8788 67.8303 86.717 69.3309 87.3767C69.7122 87.5401 69.8805 87.993 69.7171 88.3743C69.6511 88.6262 69.4495 88.7562 69.229 88.8127ZM129.28 70.9949C128.986 71.0702 128.673 70.9678 128.475 70.7052C128.234 70.3754 128.292 69.8905 128.622 69.6493C129.129 69.2844 129.605 68.9013 130.112 68.5364C130.918 67.9121 131.724 67.2878 132.591 66.5957C132.915 66.33 133.4 66.3885 133.665 66.712C133.931 67.0356 133.872 67.5205 133.549 67.7862C132.682 68.4783 131.858 69.1334 131.052 69.7577C130.551 70.147 130.044 70.5119 129.568 70.8951C129.476 70.9447 129.378 70.9698 129.28 70.9949ZM183.036 57.0358C182.84 57.086 182.625 57.0627 182.434 56.9289C182.09 56.704 181.995 56.2322 182.22 55.8874C182.779 55.013 183.406 54.1997 184.07 53.429C184.539 52.9171 185.008 52.4052 185.533 51.9053C185.826 51.6214 186.323 51.6246 186.607 51.9173C186.89 52.2101 186.887 52.707 186.595 52.9909C186.113 53.4537 185.637 53.9411 185.217 54.4405C184.589 55.1496 184.005 55.9259 183.5 56.7079C183.367 56.8989 183.208 56.9918 183.036 57.0358ZM272.623 33.0324C272.549 33.0513 272.47 33.0456 272.365 33.0462C270.715 32.921 269.039 32.8021 267.377 32.7321C266.953 32.7101 266.626 32.3501 266.654 31.9512C266.676 31.5279 267.036 31.2006 267.435 31.2289C269.098 31.2989 270.798 31.4115 272.479 31.555C272.903 31.577 273.205 31.9433 273.183 32.3666C273.161 32.6857 272.941 32.9508 272.623 33.0324ZM79.5128 82.0782C79.2923 82.1347 79.0712 82.0869 78.8803 81.9531C78.5291 81.7037 78.4589 81.2257 78.7146 80.8991C79.3108 80.0674 79.87 79.1931 80.3739 78.3068C80.6591 77.7899 80.9136 77.2547 81.1373 76.7014C81.3006 76.3201 81.7473 76.1273 82.1286 76.2907C82.5098 76.454 82.7026 76.9007 82.5393 77.282C82.2728 77.8724 82.0064 78.4628 81.6785 79.0168C81.1626 79.9584 80.5607 80.8698 79.9281 81.7629C79.837 81.9168 79.6843 82.0343 79.5128 82.0782ZM137.15 64.7225C136.88 64.7915 136.573 64.7136 136.382 64.4755C136.116 64.152 136.15 63.6733 136.474 63.4076C137.658 62.4253 138.836 61.4185 139.989 60.418L140.288 60.1586C140.612 59.893 141.09 59.9269 141.356 60.2505C141.622 60.574 141.588 61.0527 141.264 61.3183L140.965 61.5777C139.787 62.5845 138.603 63.5668 137.425 64.5736C137.34 64.6477 137.248 64.6973 137.15 64.7225ZM262.585 32.5764C262.511 32.5952 262.463 32.6078 262.383 32.6021C260.733 32.5812 259.04 32.5973 257.371 32.6071C256.954 32.6096 256.609 32.2804 256.606 31.8633C256.604 31.4462 256.933 31.1007 257.35 31.0983C259.037 31.0577 260.736 31.066 262.411 31.0807C262.828 31.0782 263.155 31.4382 263.157 31.8553C263.141 32.1989 262.903 32.4948 262.585 32.5764ZM203.285 47.7214C203.04 47.7842 202.763 47.7245 202.56 47.5417C201.628 46.6577 200.63 45.8171 199.527 45.0814C199.387 45.1436 199.246 45.2058 199.081 45.2742C198.708 45.4482 198.247 45.2791 198.091 44.8752C197.948 44.5203 198.056 44.1271 198.374 43.9412C198.36 43.7879 198.403 43.6466 198.494 43.4927C198.719 43.1478 199.184 43.0285 199.529 43.2535C199.59 43.2899 199.621 43.3081 199.683 43.3446C199.756 43.3257 199.824 43.2824 199.897 43.2636C200.98 42.8033 202.069 42.3675 203.159 41.9317C203.538 41.7822 203.981 41.982 204.155 42.3552C204.304 42.7346 204.104 43.1774 203.731 43.3514C202.881 43.6999 202.024 44.0239 201.18 44.3969C202.048 45.0359 202.856 45.7427 203.615 46.462C203.923 46.7485 203.92 47.2454 203.627 47.5292C203.542 47.6034 203.407 47.69 203.285 47.7214ZM190.141 50.0195C189.847 50.0948 189.503 49.9742 189.329 49.7053C189.082 49.351 189.171 48.8843 189.532 48.6613C190.864 47.7456 192.288 46.8846 193.927 46.0468C194.294 45.8484 194.748 45.9929 194.947 46.3598C195.145 46.7267 195.001 47.1814 194.634 47.3799C193.044 48.2051 191.662 49.029 190.398 49.9014C190.312 49.9755 190.214 50.0006 190.141 50.0195ZM61.0737 83.0703C60.8287 83.1331 60.5278 83.0796 60.3425 82.866C59.1266 81.5851 58.0388 80.1929 57.1959 78.738C56.973 78.3774 57.0868 77.9044 57.4536 77.706C57.8142 77.483 58.2872 77.5968 58.4857 77.9636C59.3033 79.3206 60.2863 80.609 61.4281 81.8046C61.712 82.0973 61.7088 82.5942 61.416 82.8781C61.3124 82.983 61.1962 83.0389 61.0737 83.0703ZM252.526 32.7523C252.477 32.7648 252.428 32.7774 252.373 32.7654C250.723 32.8488 249.031 32.9692 247.394 33.1015C246.983 33.1285 246.62 32.83 246.562 32.401C246.535 31.9902 246.833 31.6265 247.262 31.5688C248.924 31.4302 250.616 31.3098 252.29 31.2201C252.701 31.1932 253.071 31.5161 253.073 31.9332C253.125 32.3377 252.869 32.6644 252.526 32.7523ZM242.508 33.5965C242.484 33.6028 242.435 33.6153 242.41 33.6216C240.761 33.8092 239.094 34.0276 237.464 34.2887C237.059 34.3402 236.678 34.0725 236.595 33.6498C236.544 33.2452 236.805 32.8389 237.234 32.7811C238.895 32.5382 240.587 32.3136 242.236 32.1259C242.64 32.0745 243.029 32.3666 243.086 32.7957C243.125 33.1512 242.876 33.5023 242.508 33.5965ZM144.81 58.2427C144.54 58.3117 144.233 58.2338 144.042 57.9957C143.776 57.6722 143.81 57.1935 144.134 56.9279C145.574 55.7232 146.85 54.6913 148.04 53.7335C148.364 53.4679 148.849 53.5263 149.115 53.8499C149.38 54.1734 149.322 54.6583 148.998 54.924C147.826 55.851 146.556 56.9074 145.11 58.0876C145.024 58.1617 144.932 58.2113 144.81 58.2427ZM208.322 41.6006C207.954 41.6948 207.56 41.4824 207.417 41.1275C207.268 40.7481 207.492 40.299 207.871 40.1495C209.451 39.5881 211.061 39.045 212.652 38.5326C213.063 38.4014 213.487 38.632 213.612 39.0177C213.743 39.4279 213.513 39.8525 213.127 39.9774C211.535 40.4898 209.95 41.0267 208.395 41.5818C208.37 41.5881 208.346 41.5944 208.322 41.6006ZM232.58 35.0966C232.555 35.1028 232.555 35.1028 232.531 35.1091C230.883 35.401 229.247 35.7419 227.636 36.0765C227.213 36.1587 226.831 35.8911 226.73 35.4991C226.648 35.0763 226.891 34.7007 227.308 34.594C228.937 34.2286 230.604 33.9059 232.252 33.6141C232.675 33.5318 233.057 33.7995 233.139 34.2222C233.215 34.6205 232.972 34.9961 232.58 35.0966ZM217.897 38.5201C217.505 38.6205 217.08 38.3899 216.98 37.998C216.873 37.5815 217.11 37.1814 217.496 37.0564C219.1 36.593 220.735 36.1479 222.383 35.7517C222.799 35.645 223.206 35.9063 223.306 36.2983C223.413 36.7148 223.152 37.1212 222.76 37.2217C221.136 37.6115 219.526 38.0504 217.897 38.5201ZM83.3721 72.8912C83.2741 72.9163 83.1698 72.9169 83.0656 72.9176C82.6604 72.8647 82.3759 72.4677 82.4287 72.0626C82.6708 70.4602 82.698 68.8345 82.5474 67.2283C82.5205 66.8174 82.8189 66.4538 83.2234 66.4023C83.6342 66.3753 83.9979 66.6738 84.0494 67.0783C84.2068 68.8133 84.1557 70.5495 83.9143 72.2562C83.8916 72.5753 83.6661 72.8159 83.3721 72.8912ZM194.856 42.3364C194.709 42.3741 194.549 42.3627 194.377 42.3024C192.895 41.7162 191.31 41.2348 189.7 40.864C189.289 40.7867 189.023 40.3589 189.131 39.9656C189.208 39.5542 189.611 39.2942 190.029 39.396C191.718 39.7725 193.39 40.284 194.957 40.9004C195.339 41.0638 195.532 41.5105 195.368 41.8917C195.271 42.1254 195.076 42.2799 194.856 42.3364ZM152.71 51.9885C152.416 52.0638 152.103 51.9614 151.905 51.6988C151.664 51.369 151.722 50.884 152.077 50.6366L152.449 50.3583C153.726 49.4307 154.99 48.5584 156.219 47.7476C156.579 47.5246 157.046 47.6139 157.269 47.9745C157.492 48.335 157.403 48.8018 157.042 49.0247C155.838 49.8292 154.567 50.6771 153.315 51.5984L152.943 51.8767C152.882 51.9445 152.784 51.9696 152.71 51.9885ZM56.0055 74.5003C55.6135 74.6007 55.1889 74.3701 55.0884 73.9782C55.0445 73.8067 55.0005 73.6352 54.9629 73.4882C54.7745 72.7532 54.6289 71.9812 54.5385 71.2211C54.4419 70.4365 54.388 69.6149 54.4383 68.7926C54.4603 68.3692 54.7958 68.0483 55.2192 68.0703C55.6426 68.0924 55.9635 68.4278 55.9415 68.8512C55.9213 69.5874 55.9501 70.3111 56.0342 71.0467C56.1365 71.7515 56.2633 72.45 56.4391 73.136C56.4768 73.283 56.5144 73.43 56.5584 73.6015C56.6771 73.9627 56.4465 74.3873 56.0055 74.5003ZM161.125 46.5163C160.806 46.598 160.456 46.4528 160.276 46.1595C160.078 45.7926 160.198 45.3441 160.558 45.1211C162.087 44.2595 163.609 43.4776 165.084 42.8126C165.457 42.6386 165.918 42.8077 166.092 43.1808C166.266 43.554 166.097 44.015 165.724 44.189C164.274 44.8477 162.776 45.6233 161.314 46.4416C161.247 46.485 161.174 46.5038 161.125 46.5163ZM185.084 40.1674C185.01 40.1862 184.937 40.2051 184.857 40.1994C183.237 40.0924 181.568 40.1023 179.938 40.2591C179.527 40.2861 179.163 39.9876 179.105 39.5586C179.078 39.1478 179.377 38.7841 179.806 38.7264C181.516 38.5752 183.234 38.5528 184.934 38.6654C185.357 38.6875 185.66 39.0537 185.638 39.4771C185.621 39.8207 185.378 40.0921 185.084 40.1674ZM170.271 42.371C169.903 42.4652 169.485 42.2591 169.36 41.8734C169.229 41.4632 169.435 41.0449 169.82 40.9199C170.996 40.5143 172.184 40.1576 173.335 39.8625C173.801 39.7432 174.266 39.6239 174.713 39.5354C175.136 39.4532 175.536 39.6901 175.618 40.1128C175.701 40.5356 175.457 40.9112 175.041 41.0179C174.594 41.1064 174.153 41.2195 173.687 41.3387C172.56 41.6276 171.421 41.9716 170.295 42.3647C170.295 42.3647 170.295 42.3647 170.271 42.371ZM82.455 62.9963C82.0875 63.0905 81.6937 62.8781 81.5505 62.5232C80.9891 60.9439 80.2386 59.5437 79.2991 58.3224C79.0334 57.9989 79.1164 57.5077 79.4462 57.2665C79.7697 57.0008 80.2609 57.0838 80.5021 57.4136C81.5221 58.7448 82.3655 60.304 82.989 62.024C83.1385 62.4034 82.9142 62.8525 82.5348 63.002C82.4795 62.99 82.455 62.9963 82.455 62.9963ZM56.3522 64.647C56.2052 64.6847 56.0457 64.6733 55.9043 64.6312C55.5048 64.4986 55.312 64.052 55.4446 63.6525C56.0485 62.0357 56.8797 60.4912 57.9202 59.0497C58.1696 58.6986 58.6476 58.6283 58.9742 58.884C59.3009 59.1397 59.3956 59.6114 59.1399 59.938C58.1724 61.2564 57.414 62.6779 56.8523 64.1533C56.7863 64.4052 56.5972 64.5842 56.3522 64.647ZM76.349 55.2667C76.153 55.3169 75.9627 55.2874 75.778 55.178C75.0701 54.759 74.3076 54.4322 73.5086 54.167C72.7956 53.932 72.077 53.7768 71.3283 53.7076C70.8986 53.661 70.5959 53.2948 70.6487 52.8896C70.6953 52.46 71.0615 52.1573 71.4667 52.2101C72.2952 52.2849 73.1489 52.4578 73.9478 52.723C74.8329 53.0183 75.7123 53.3934 76.5125 53.8672C76.8818 54.0858 77.0011 54.5513 76.7762 54.8961C76.6976 55.099 76.5205 55.2227 76.349 55.2667ZM62.2366 56.6381C61.9426 56.7134 61.6291 56.611 61.4376 56.3729C61.1964 56.0431 61.2549 55.5581 61.5847 55.317C63.0503 54.2103 64.6095 53.3669 66.2196 52.8237C66.6053 52.6988 67.0481 52.8986 67.1793 53.3088C67.3106 53.719 67.1045 54.1373 66.6943 54.2686C65.2495 54.7433 63.8247 55.5 62.518 56.5137C62.4263 56.5633 62.3346 56.613 62.2366 56.6381Z" fill="#B7A580"/>
<path d="M14.0725 108.509C14.4778 108.424 14.7372 108.026 14.6519 107.62C14.5665 107.215 14.1688 106.956 13.7634 107.041L14.0725 108.509ZM0.415541 110.076C0.189277 110.423 0.287117 110.888 0.634072 111.114L6.28803 114.801C6.63499 115.027 7.09967 114.929 7.32593 114.582C7.5522 114.236 7.45436 113.771 7.1074 113.545L2.08166 110.267L5.35915 105.241C5.58541 104.894 5.48757 104.43 5.14062 104.203C4.79366 103.977 4.32898 104.075 4.10272 104.422L0.415541 110.076ZM13.7634 107.041L0.889233 109.752L1.19828 111.22L14.0725 108.509L13.7634 107.041Z" fill="#B7A580"/>
</svg>
