<svg width="1440" height="536" viewBox="0 0 1440 536" fill="none" xmlns="http://www.w3.org/2000/svg">
<g clip-path="url(#clip0_45_207)">
<rect width="1440" height="536" fill="#F9F9F9"/>
<g opacity="0.1">
<g clip-path="url(#clip1_45_207)">
<path fill-rule="evenodd" clip-rule="evenodd" d="M-19.9419 -80C-8.86415 -80 0.11628 -71.0197 0.11628 -59.9419V-80H20.1744C31.2521 -80 40.2326 -71.0197 40.2326 -59.9419C40.2326 -48.8641 31.2521 -39.8837 20.1744 -39.8837C31.2521 -39.8837 40.2326 -30.9033 40.2326 -19.8256C40.2326 -14.325 38.0183 -9.34158 34.4328 -5.71788L34.3577 -5.64227L34.2911 -5.57607C30.6666 -1.98527 25.6796 0.232559 20.1744 0.232559C14.7068 0.232559 9.75001 -1.95518 6.13172 -5.50307C6.08478 -5.54919 6.03785 -5.59573 5.99111 -5.64227C5.94718 -5.6862 5.90346 -5.73032 5.85993 -5.77465C2.30743 -9.39354 0.11628 -14.3537 0.11628 -19.8256C0.11628 -8.74787 -8.86415 0.232559 -19.9419 0.232559C-31.0197 0.232559 -40 -8.74787 -40 -19.8256V-39.8837H-19.9419C-31.0197 -39.8837 -40 -48.8641 -40 -59.9419C-40 -71.0197 -31.0197 -80 -19.9419 -80ZM-3.89535 -59.9419C-3.89535 -51.0796 -11.0796 -43.8953 -19.9419 -43.8953V-75.9884C-11.0796 -75.9884 -3.89535 -68.8041 -3.89535 -59.9419ZM36.2209 -19.8256C36.2209 -28.6879 29.0367 -35.8721 20.1744 -35.8721C11.3121 -35.8721 4.12791 -28.6879 4.12791 -19.8256H36.2209ZM-35.9884 -35.8721V-19.8256C-35.9884 -10.9633 -28.8041 -3.77907 -19.9419 -3.77907C-11.0796 -3.77907 -3.89535 -10.9633 -3.89535 -19.8256V-35.8721H-35.9884ZM4.12791 -43.8953V-75.9884H20.1744C29.0367 -75.9884 36.2209 -68.8041 36.2209 -59.9419C36.2209 -51.0796 29.0367 -43.8953 20.1744 -43.8953H4.12791Z" fill="#BBC1CE"/>
</g>
<g clip-path="url(#clip2_45_207)">
<path fill-rule="evenodd" clip-rule="evenodd" d="M-19.9419 3.44238C-8.86415 3.44238 0.11628 12.4227 0.11628 23.5005V3.44238H20.1744C31.2521 3.44238 40.2326 12.4227 40.2326 23.5005C40.2326 34.5782 31.2521 43.5587 20.1744 43.5587C31.2521 43.5587 40.2326 52.5391 40.2326 63.6168C40.2326 69.1173 38.0183 74.1008 34.4328 77.7245L34.3577 77.8001L34.2911 77.8663C30.6666 81.4571 25.6796 83.6749 20.1744 83.6749C14.7068 83.6749 9.75001 81.4872 6.13172 77.9393C6.08478 77.8932 6.03785 77.8466 5.99111 77.8001C5.94718 77.7562 5.90346 77.7121 5.85993 77.6677C2.30743 74.0488 0.11628 69.0887 0.11628 63.6168C0.11628 74.6945 -8.86415 83.6749 -19.9419 83.6749C-31.0197 83.6749 -40 74.6945 -40 63.6168V43.5587H-19.9419C-31.0197 43.5587 -40 34.5782 -40 23.5005C-40 12.4227 -31.0197 3.44238 -19.9419 3.44238ZM-3.89535 23.5005C-3.89535 32.3628 -11.0796 39.547 -19.9419 39.547V7.45401C-11.0796 7.45401 -3.89535 14.6383 -3.89535 23.5005ZM36.2209 63.6168C36.2209 54.7545 29.0367 47.5703 20.1744 47.5703C11.3121 47.5703 4.12791 54.7545 4.12791 63.6168H36.2209ZM-35.9884 47.5703V63.6168C-35.9884 72.4791 -28.8041 79.6633 -19.9419 79.6633C-11.0796 79.6633 -3.89535 72.4791 -3.89535 63.6168V47.5703H-35.9884ZM4.12791 39.547V7.45401H20.1744C29.0367 7.45401 36.2209 14.6383 36.2209 23.5005C36.2209 32.3628 29.0367 39.547 20.1744 39.547H4.12791Z" fill="#BBC1CE"/>
</g>
<g clip-path="url(#clip3_45_207)">
<path fill-rule="evenodd" clip-rule="evenodd" d="M-19.9419 86.8838C-8.86415 86.8838 0.11628 95.8641 0.11628 106.942V86.8838H20.1744C31.2521 86.8838 40.2326 95.8641 40.2326 106.942C40.2326 118.02 31.2521 127 20.1744 127C31.2521 127 40.2326 135.981 40.2326 147.058C40.2326 152.559 38.0183 157.542 34.4328 161.166L34.3577 161.242L34.2911 161.308C30.6666 164.899 25.6796 167.116 20.1744 167.116C14.7068 167.116 9.75001 164.929 6.13172 161.381C6.08478 161.335 6.03785 161.288 5.99111 161.242C5.94718 161.198 5.90346 161.153 5.85993 161.109C2.30743 157.49 0.11628 152.53 0.11628 147.058C0.11628 158.136 -8.86415 167.116 -19.9419 167.116C-31.0197 167.116 -40 158.136 -40 147.058V127H-19.9419C-31.0197 127 -40 118.02 -40 106.942C-40 95.8641 -31.0197 86.8838 -19.9419 86.8838ZM-3.89535 106.942C-3.89535 115.804 -11.0796 122.988 -19.9419 122.988V90.8954C-11.0796 90.8954 -3.89535 98.0797 -3.89535 106.942ZM36.2209 147.058C36.2209 138.196 29.0367 131.012 20.1744 131.012C11.3121 131.012 4.12791 138.196 4.12791 147.058H36.2209ZM-35.9884 131.012V147.058C-35.9884 155.921 -28.8041 163.105 -19.9419 163.105C-11.0796 163.105 -3.89535 155.921 -3.89535 147.058V131.012H-35.9884ZM4.12791 122.988V90.8954H20.1744C29.0367 90.8954 36.2209 98.0797 36.2209 106.942C36.2209 115.804 29.0367 122.988 20.1744 122.988H4.12791Z" fill="#BBC1CE"/>
</g>
<g clip-path="url(#clip4_45_207)">
<path fill-rule="evenodd" clip-rule="evenodd" d="M-19.9419 170.326C-8.86415 170.326 0.11628 179.307 0.11628 190.384V170.326H20.1744C31.2521 170.326 40.2326 179.307 40.2326 190.384C40.2326 201.462 31.2521 210.442 20.1744 210.442C31.2521 210.442 40.2326 219.423 40.2326 230.501C40.2326 236.001 38.0183 240.985 34.4328 244.608L34.3577 244.684L34.2911 244.75C30.6666 248.341 25.6796 250.559 20.1744 250.559C14.7068 250.559 9.75001 248.371 6.13172 244.823C6.08478 244.777 6.03785 244.73 5.99111 244.684C5.94718 244.64 5.90346 244.596 5.85993 244.552C2.30743 240.933 0.11628 235.972 0.11628 230.501C0.11628 241.578 -8.86415 250.559 -19.9419 250.559C-31.0197 250.559 -40 241.578 -40 230.501V210.442H-19.9419C-31.0197 210.442 -40 201.462 -40 190.384C-40 179.307 -31.0197 170.326 -19.9419 170.326ZM-3.89535 190.384C-3.89535 199.247 -11.0796 206.431 -19.9419 206.431V174.338C-11.0796 174.338 -3.89535 181.522 -3.89535 190.384ZM36.2209 230.501C36.2209 221.638 29.0367 214.454 20.1744 214.454C11.3121 214.454 4.12791 221.638 4.12791 230.501H36.2209ZM-35.9884 214.454V230.501C-35.9884 239.363 -28.8041 246.547 -19.9419 246.547C-11.0796 246.547 -3.89535 239.363 -3.89535 230.501V214.454H-35.9884ZM4.12791 206.431V174.338H20.1744C29.0367 174.338 36.2209 181.522 36.2209 190.384C36.2209 199.247 29.0367 206.431 20.1744 206.431H4.12791Z" fill="#BBC1CE"/>
</g>
<g clip-path="url(#clip5_45_207)">
<path fill-rule="evenodd" clip-rule="evenodd" d="M-19.9419 253.768C-8.86415 253.768 0.11628 262.748 0.11628 273.826V253.768H20.1744C31.2521 253.768 40.2326 262.748 40.2326 273.826C40.2326 284.903 31.2521 293.884 20.1744 293.884C31.2521 293.884 40.2326 302.864 40.2326 313.942C40.2326 319.443 38.0183 324.426 34.4328 328.05L34.3577 328.125L34.2911 328.192C30.6666 331.782 25.6796 334 20.1744 334C14.7068 334 9.75001 331.812 6.13172 328.265C6.08478 328.218 6.03785 328.172 5.99111 328.125C5.94718 328.081 5.90346 328.037 5.85993 327.993C2.30743 324.374 0.11628 319.414 0.11628 313.942C0.11628 325.02 -8.86415 334 -19.9419 334C-31.0197 334 -40 325.02 -40 313.942V293.884H-19.9419C-31.0197 293.884 -40 284.903 -40 273.826C-40 262.748 -31.0197 253.768 -19.9419 253.768ZM-3.89535 273.826C-3.89535 282.688 -11.0796 289.872 -19.9419 289.872V257.779C-11.0796 257.779 -3.89535 264.963 -3.89535 273.826ZM36.2209 313.942C36.2209 305.08 29.0367 297.895 20.1744 297.895C11.3121 297.895 4.12791 305.08 4.12791 313.942H36.2209ZM-35.9884 297.895V313.942C-35.9884 322.804 -28.8041 329.989 -19.9419 329.989C-11.0796 329.989 -3.89535 322.804 -3.89535 313.942V297.895H-35.9884ZM4.12791 289.872V257.779H20.1744C29.0367 257.779 36.2209 264.963 36.2209 273.826C36.2209 282.688 29.0367 289.872 20.1744 289.872H4.12791Z" fill="#BBC1CE"/>
</g>
<g clip-path="url(#clip6_45_207)">
<path fill-rule="evenodd" clip-rule="evenodd" d="M61.8953 -80C72.973 -80 81.9534 -71.0197 81.9534 -59.9419V-80H102.012C113.089 -80 122.07 -71.0197 122.07 -59.9419C122.07 -48.8641 113.089 -39.8837 102.012 -39.8837C113.089 -39.8837 122.07 -30.9033 122.07 -19.8256C122.07 -14.325 119.856 -9.34158 116.27 -5.71788L116.195 -5.64227L116.128 -5.57607C112.504 -1.98527 107.517 0.232559 102.012 0.232559C96.5439 0.232559 91.5872 -1.95518 87.9689 -5.50307C87.9219 -5.54919 87.875 -5.59573 87.8283 -5.64227C87.7843 -5.6862 87.7406 -5.73032 87.6971 -5.77465C84.1446 -9.39354 81.9534 -14.3537 81.9534 -19.8256C81.9534 -8.74787 72.973 0.232559 61.8953 0.232559C50.8175 0.232559 41.8372 -8.74787 41.8372 -19.8256V-39.8837H61.8953C50.8175 -39.8837 41.8372 -48.8641 41.8372 -59.9419C41.8372 -71.0197 50.8175 -80 61.8953 -80ZM77.9418 -59.9419C77.9418 -51.0796 70.7576 -43.8953 61.8953 -43.8953V-75.9884C70.7576 -75.9884 77.9418 -68.8041 77.9418 -59.9419ZM118.058 -19.8256C118.058 -28.6879 110.874 -35.8721 102.012 -35.8721C93.1493 -35.8721 85.9651 -28.6879 85.9651 -19.8256H118.058ZM45.8488 -35.8721V-19.8256C45.8488 -10.9633 53.0331 -3.77907 61.8953 -3.77907C70.7576 -3.77907 77.9418 -10.9633 77.9418 -19.8256V-35.8721H45.8488ZM85.9651 -43.8953V-75.9884H102.012C110.874 -75.9884 118.058 -68.8041 118.058 -59.9419C118.058 -51.0796 110.874 -43.8953 102.012 -43.8953H85.9651Z" fill="#BBC1CE"/>
</g>
<g clip-path="url(#clip7_45_207)">
<path fill-rule="evenodd" clip-rule="evenodd" d="M61.8955 3.44238C72.9733 3.44238 81.9537 12.4227 81.9537 23.5005V3.44238H102.012C113.09 3.44238 122.07 12.4227 122.07 23.5005C122.07 34.5782 113.09 43.5587 102.012 43.5587C113.09 43.5587 122.07 52.5391 122.07 63.6168C122.07 69.1173 119.856 74.1008 116.27 77.7245L116.195 77.8001L116.129 77.8663C112.504 81.4571 107.517 83.6749 102.012 83.6749C96.5442 83.6749 91.5874 81.4872 87.9691 77.9393C87.9222 77.8932 87.8752 77.8466 87.8285 77.8001C87.7846 77.7562 87.7409 77.7121 87.6973 77.6677C84.1448 74.0488 81.9537 69.0887 81.9537 63.6168C81.9537 74.6945 72.9733 83.6749 61.8955 83.6749C50.8177 83.6749 41.8374 74.6945 41.8374 63.6168V43.5587H61.8955C50.8177 43.5587 41.8374 34.5782 41.8374 23.5005C41.8374 12.4227 50.8177 3.44238 61.8955 3.44238ZM77.9421 23.5005C77.9421 32.3628 70.7578 39.547 61.8955 39.547V7.45401C70.7578 7.45401 77.9421 14.6383 77.9421 23.5005ZM118.058 63.6168C118.058 54.7545 110.874 47.5703 102.012 47.5703C93.1495 47.5703 85.9653 54.7545 85.9653 63.6168H118.058ZM45.849 47.5703V63.6168C45.849 72.4791 53.0333 79.6633 61.8955 79.6633C70.7578 79.6633 77.9421 72.4791 77.9421 63.6168V47.5703H45.849ZM85.9653 39.547V7.45401H102.012C110.874 7.45401 118.058 14.6383 118.058 23.5005C118.058 32.3628 110.874 39.547 102.012 39.547H85.9653Z" fill="#BBC1CE"/>
</g>
<g clip-path="url(#clip8_45_207)">
<path fill-rule="evenodd" clip-rule="evenodd" d="M61.8953 86.8838C72.973 86.8838 81.9534 95.8641 81.9534 106.942V86.8838H102.012C113.089 86.8838 122.07 95.8641 122.07 106.942C122.07 118.02 113.089 127 102.012 127C113.089 127 122.07 135.981 122.07 147.058C122.07 152.559 119.856 157.542 116.27 161.166L116.195 161.242L116.128 161.308C112.504 164.899 107.517 167.116 102.012 167.116C96.5439 167.116 91.5872 164.929 87.9689 161.381C87.9219 161.335 87.875 161.288 87.8283 161.242C87.7843 161.198 87.7406 161.153 87.6971 161.109C84.1446 157.49 81.9534 152.53 81.9534 147.058C81.9534 158.136 72.973 167.116 61.8953 167.116C50.8175 167.116 41.8372 158.136 41.8372 147.058V127H61.8953C50.8175 127 41.8372 118.02 41.8372 106.942C41.8372 95.8641 50.8175 86.8838 61.8953 86.8838ZM77.9418 106.942C77.9418 115.804 70.7576 122.988 61.8953 122.988V90.8954C70.7576 90.8954 77.9418 98.0797 77.9418 106.942ZM118.058 147.058C118.058 138.196 110.874 131.012 102.012 131.012C93.1493 131.012 85.9651 138.196 85.9651 147.058H118.058ZM45.8488 131.012V147.058C45.8488 155.921 53.0331 163.105 61.8953 163.105C70.7576 163.105 77.9418 155.921 77.9418 147.058V131.012H45.8488ZM85.9651 122.988V90.8954H102.012C110.874 90.8954 118.058 98.0797 118.058 106.942C118.058 115.804 110.874 122.988 102.012 122.988H85.9651Z" fill="#BBC1CE"/>
</g>
<g clip-path="url(#clip9_45_207)">
<path fill-rule="evenodd" clip-rule="evenodd" d="M61.8955 170.326C72.9733 170.326 81.9537 179.307 81.9537 190.384V170.326H102.012C113.09 170.326 122.07 179.307 122.07 190.384C122.07 201.462 113.09 210.442 102.012 210.442C113.09 210.442 122.07 219.423 122.07 230.501C122.07 236.001 119.856 240.985 116.27 244.608L116.195 244.684L116.129 244.75C112.504 248.341 107.517 250.559 102.012 250.559C96.5442 250.559 91.5874 248.371 87.9691 244.823C87.9222 244.777 87.8752 244.73 87.8285 244.684C87.7846 244.64 87.7409 244.596 87.6973 244.552C84.1448 240.933 81.9537 235.972 81.9537 230.501C81.9537 241.578 72.9733 250.559 61.8955 250.559C50.8177 250.559 41.8374 241.578 41.8374 230.501V210.442H61.8955C50.8177 210.442 41.8374 201.462 41.8374 190.384C41.8374 179.307 50.8177 170.326 61.8955 170.326ZM77.9421 190.384C77.9421 199.247 70.7578 206.431 61.8955 206.431V174.338C70.7578 174.338 77.9421 181.522 77.9421 190.384ZM118.058 230.501C118.058 221.638 110.874 214.454 102.012 214.454C93.1495 214.454 85.9653 221.638 85.9653 230.501H118.058ZM45.849 214.454V230.501C45.849 239.363 53.0333 246.547 61.8955 246.547C70.7578 246.547 77.9421 239.363 77.9421 230.501V214.454H45.849ZM85.9653 206.431V174.338H102.012C110.874 174.338 118.058 181.522 118.058 190.384C118.058 199.247 110.874 206.431 102.012 206.431H85.9653Z" fill="#BBC1CE"/>
</g>
<g clip-path="url(#clip10_45_207)">
<path fill-rule="evenodd" clip-rule="evenodd" d="M143.732 -80C154.81 -80 163.791 -71.0197 163.791 -59.9419V-80H183.849C194.926 -80 203.907 -71.0197 203.907 -59.9419C203.907 -48.8641 194.926 -39.8837 183.849 -39.8837C194.926 -39.8837 203.907 -30.9033 203.907 -19.8256C203.907 -14.325 201.693 -9.34158 198.107 -5.71788L198.032 -5.64227L197.965 -5.57607C194.341 -1.98527 189.354 0.232559 183.849 0.232559C178.381 0.232559 173.424 -1.95518 169.806 -5.50307C169.759 -5.54919 169.712 -5.59573 169.665 -5.64227C169.621 -5.6862 169.578 -5.73032 169.534 -5.77465C165.982 -9.39354 163.791 -14.3537 163.791 -19.8256C163.791 -8.74787 154.81 0.232559 143.732 0.232559C132.655 0.232559 123.674 -8.74787 123.674 -19.8256V-39.8837H143.732C132.655 -39.8837 123.674 -48.8641 123.674 -59.9419C123.674 -71.0197 132.655 -80 143.732 -80ZM159.779 -59.9419C159.779 -51.0796 152.595 -43.8953 143.732 -43.8953V-75.9884C152.595 -75.9884 159.779 -68.8041 159.779 -59.9419ZM199.895 -19.8256C199.895 -28.6879 192.711 -35.8721 183.849 -35.8721C174.986 -35.8721 167.802 -28.6879 167.802 -19.8256H199.895ZM127.686 -35.8721V-19.8256C127.686 -10.9633 134.87 -3.77907 143.732 -3.77907C152.595 -3.77907 159.779 -10.9633 159.779 -19.8256V-35.8721H127.686ZM167.802 -43.8953V-75.9884H183.849C192.711 -75.9884 199.895 -68.8041 199.895 -59.9419C199.895 -51.0796 192.711 -43.8953 183.849 -43.8953H167.802Z" fill="#BBC1CE"/>
</g>
<g clip-path="url(#clip11_45_207)">
<path fill-rule="evenodd" clip-rule="evenodd" d="M143.732 3.44238C154.81 3.44238 163.791 12.4227 163.791 23.5005V3.44238H183.849C194.926 3.44238 203.907 12.4227 203.907 23.5005C203.907 34.5782 194.926 43.5587 183.849 43.5587C194.926 43.5587 203.907 52.5391 203.907 63.6168C203.907 69.1173 201.693 74.1008 198.107 77.7245L198.032 77.8001L197.965 77.8663C194.341 81.4571 189.354 83.6749 183.849 83.6749C178.381 83.6749 173.424 81.4872 169.806 77.9393C169.759 77.8932 169.712 77.8466 169.665 77.8001C169.621 77.7562 169.578 77.7121 169.534 77.6677C165.982 74.0488 163.791 69.0887 163.791 63.6168C163.791 74.6945 154.81 83.6749 143.732 83.6749C132.655 83.6749 123.674 74.6945 123.674 63.6168V43.5587H143.732C132.655 43.5587 123.674 34.5782 123.674 23.5005C123.674 12.4227 132.655 3.44238 143.732 3.44238ZM159.779 23.5005C159.779 32.3628 152.595 39.547 143.732 39.547V7.45401C152.595 7.45401 159.779 14.6383 159.779 23.5005ZM199.895 63.6168C199.895 54.7545 192.711 47.5703 183.849 47.5703C174.986 47.5703 167.802 54.7545 167.802 63.6168H199.895ZM127.686 47.5703V63.6168C127.686 72.4791 134.87 79.6633 143.732 79.6633C152.595 79.6633 159.779 72.4791 159.779 63.6168V47.5703H127.686ZM167.802 39.547V7.45401H183.849C192.711 7.45401 199.895 14.6383 199.895 23.5005C199.895 32.3628 192.711 39.547 183.849 39.547H167.802Z" fill="#BBC1CE"/>
</g>
<g clip-path="url(#clip12_45_207)">
<path fill-rule="evenodd" clip-rule="evenodd" d="M143.732 86.8838C154.81 86.8838 163.791 95.8641 163.791 106.942V86.8838H183.849C194.926 86.8838 203.907 95.8641 203.907 106.942C203.907 118.02 194.926 127 183.849 127C194.926 127 203.907 135.981 203.907 147.058C203.907 152.559 201.693 157.542 198.107 161.166L198.032 161.242L197.965 161.308C194.341 164.899 189.354 167.116 183.849 167.116C178.381 167.116 173.424 164.929 169.806 161.381C169.759 161.335 169.712 161.288 169.665 161.242C169.621 161.198 169.578 161.153 169.534 161.109C165.982 157.49 163.791 152.53 163.791 147.058C163.791 158.136 154.81 167.116 143.732 167.116C132.655 167.116 123.674 158.136 123.674 147.058V127H143.732C132.655 127 123.674 118.02 123.674 106.942C123.674 95.8641 132.655 86.8838 143.732 86.8838ZM159.779 106.942C159.779 115.804 152.595 122.988 143.732 122.988V90.8954C152.595 90.8954 159.779 98.0797 159.779 106.942ZM199.895 147.058C199.895 138.196 192.711 131.012 183.849 131.012C174.986 131.012 167.802 138.196 167.802 147.058H199.895ZM127.686 131.012V147.058C127.686 155.921 134.87 163.105 143.732 163.105C152.595 163.105 159.779 155.921 159.779 147.058V131.012H127.686ZM167.802 122.988V90.8954H183.849C192.711 90.8954 199.895 98.0797 199.895 106.942C199.895 115.804 192.711 122.988 183.849 122.988H167.802Z" fill="#BBC1CE"/>
</g>
<g clip-path="url(#clip13_45_207)">
<path fill-rule="evenodd" clip-rule="evenodd" d="M225.57 -80C236.648 -80 245.628 -71.0197 245.628 -59.9419V-80H265.686C276.764 -80 285.744 -71.0197 285.744 -59.9419C285.744 -48.8641 276.764 -39.8837 265.686 -39.8837C276.764 -39.8837 285.744 -30.9033 285.744 -19.8256C285.744 -14.325 283.53 -9.34158 279.944 -5.71788L279.869 -5.64227L279.803 -5.57607C276.178 -1.98527 271.191 0.232559 265.686 0.232559C260.218 0.232559 255.262 -1.95518 251.643 -5.50307C251.597 -5.54919 251.55 -5.59573 251.503 -5.64227C251.459 -5.6862 251.415 -5.73032 251.372 -5.77465C247.819 -9.39354 245.628 -14.3537 245.628 -19.8256C245.628 -8.74787 236.648 0.232559 225.57 0.232559C214.492 0.232559 205.512 -8.74787 205.512 -19.8256V-39.8837H225.57C214.492 -39.8837 205.512 -48.8641 205.512 -59.9419C205.512 -71.0197 214.492 -80 225.57 -80ZM241.616 -59.9419C241.616 -51.0796 234.432 -43.8953 225.57 -43.8953V-75.9884C234.432 -75.9884 241.616 -68.8041 241.616 -59.9419ZM281.733 -19.8256C281.733 -28.6879 274.548 -35.8721 265.686 -35.8721C256.824 -35.8721 249.64 -28.6879 249.64 -19.8256H281.733ZM209.523 -35.8721V-19.8256C209.523 -10.9633 216.708 -3.77907 225.57 -3.77907C234.432 -3.77907 241.616 -10.9633 241.616 -19.8256V-35.8721H209.523ZM249.64 -43.8953V-75.9884H265.686C274.548 -75.9884 281.733 -68.8041 281.733 -59.9419C281.733 -51.0796 274.548 -43.8953 265.686 -43.8953H249.64Z" fill="#BBC1CE"/>
</g>
<g clip-path="url(#clip14_45_207)">
<path fill-rule="evenodd" clip-rule="evenodd" d="M225.57 3.44238C236.648 3.44238 245.628 12.4227 245.628 23.5005V3.44238H265.686C276.764 3.44238 285.744 12.4227 285.744 23.5005C285.744 34.5782 276.764 43.5587 265.686 43.5587C276.764 43.5587 285.744 52.5391 285.744 63.6168C285.744 69.1173 283.53 74.1008 279.944 77.7245L279.869 77.8001L279.803 77.8663C276.178 81.4571 271.191 83.6749 265.686 83.6749C260.218 83.6749 255.262 81.4872 251.643 77.9393C251.597 77.8932 251.55 77.8466 251.503 77.8001C251.459 77.7562 251.415 77.7121 251.372 77.6677C247.819 74.0488 245.628 69.0887 245.628 63.6168C245.628 74.6945 236.648 83.6749 225.57 83.6749C214.492 83.6749 205.512 74.6945 205.512 63.6168V43.5587H225.57C214.492 43.5587 205.512 34.5782 205.512 23.5005C205.512 12.4227 214.492 3.44238 225.57 3.44238ZM241.616 23.5005C241.616 32.3628 234.432 39.547 225.57 39.547V7.45401C234.432 7.45401 241.616 14.6383 241.616 23.5005ZM281.733 63.6168C281.733 54.7545 274.548 47.5703 265.686 47.5703C256.824 47.5703 249.64 54.7545 249.64 63.6168H281.733ZM209.523 47.5703V63.6168C209.523 72.4791 216.708 79.6633 225.57 79.6633C234.432 79.6633 241.616 72.4791 241.616 63.6168V47.5703H209.523ZM249.64 39.547V7.45401H265.686C274.548 7.45401 281.733 14.6383 281.733 23.5005C281.733 32.3628 274.548 39.547 265.686 39.547H249.64Z" fill="#BBC1CE"/>
</g>
<g clip-path="url(#clip15_45_207)">
<path fill-rule="evenodd" clip-rule="evenodd" d="M307.407 -80C318.484 -80 327.465 -71.0197 327.465 -59.9419V-80H347.523C358.601 -80 367.581 -71.0197 367.581 -59.9419C367.581 -48.8641 358.601 -39.8837 347.523 -39.8837C358.601 -39.8837 367.581 -30.9033 367.581 -19.8256C367.581 -14.325 365.367 -9.34158 361.781 -5.71788L361.706 -5.64227L361.64 -5.57607C358.015 -1.98527 353.028 0.232559 347.523 0.232559C342.055 0.232559 337.099 -1.95518 333.48 -5.50307C333.433 -5.54919 333.386 -5.59573 333.34 -5.64227C333.296 -5.6862 333.252 -5.73032 333.209 -5.77465C329.656 -9.39354 327.465 -14.3537 327.465 -19.8256C327.465 -8.74787 318.484 0.232559 307.407 0.232559C296.329 0.232559 287.349 -8.74787 287.349 -19.8256V-39.8837H307.407C296.329 -39.8837 287.349 -48.8641 287.349 -59.9419C287.349 -71.0197 296.329 -80 307.407 -80ZM323.453 -59.9419C323.453 -51.0796 316.269 -43.8953 307.407 -43.8953V-75.9884C316.269 -75.9884 323.453 -68.8041 323.453 -59.9419ZM363.57 -19.8256C363.57 -28.6879 356.385 -35.8721 347.523 -35.8721C338.661 -35.8721 331.477 -28.6879 331.477 -19.8256H363.57ZM291.36 -35.8721V-19.8256C291.36 -10.9633 298.545 -3.77907 307.407 -3.77907C316.269 -3.77907 323.453 -10.9633 323.453 -19.8256V-35.8721H291.36ZM331.477 -43.8953V-75.9884H347.523C356.385 -75.9884 363.57 -68.8041 363.57 -59.9419C363.57 -51.0796 356.385 -43.8953 347.523 -43.8953H331.477Z" fill="#BBC1CE"/>
</g>
</g>
<g opacity="0.1">
<g clip-path="url(#clip16_45_207)">
<path fill-rule="evenodd" clip-rule="evenodd" d="M1419.94 533.558C1408.86 533.558 1399.88 524.577 1399.88 513.499V533.558H1379.83C1368.75 533.558 1359.77 524.577 1359.77 513.499C1359.77 502.422 1368.75 493.441 1379.83 493.441C1368.75 493.441 1359.77 484.461 1359.77 473.383C1359.77 467.883 1361.98 462.899 1365.57 459.275L1365.64 459.2L1365.71 459.134C1369.33 455.543 1374.32 453.325 1379.83 453.325C1385.29 453.325 1390.25 455.513 1393.87 459.061C1393.92 459.107 1393.96 459.153 1394.01 459.2C1394.05 459.244 1394.1 459.288 1394.14 459.332C1397.69 462.951 1399.88 467.911 1399.88 473.383C1399.88 462.305 1408.86 453.325 1419.94 453.325C1431.02 453.325 1440 462.305 1440 473.383V493.441H1419.94C1431.02 493.441 1440 502.422 1440 513.499C1440 524.577 1431.02 533.558 1419.94 533.558ZM1403.9 513.499C1403.9 504.637 1411.08 497.453 1419.94 497.453V529.546C1411.08 529.546 1403.9 522.362 1403.9 513.499ZM1363.78 473.383C1363.78 482.245 1370.96 489.43 1379.83 489.43C1388.69 489.43 1395.87 482.245 1395.87 473.383H1363.78ZM1435.99 489.43V473.383C1435.99 464.521 1428.8 457.337 1419.94 457.337C1411.08 457.337 1403.9 464.521 1403.9 473.383V489.43H1435.99ZM1395.87 497.453V529.546H1379.83C1370.96 529.546 1363.78 522.362 1363.78 513.499C1363.78 504.637 1370.96 497.453 1379.83 497.453H1395.87Z" fill="#BBC1CE"/>
</g>
<g clip-path="url(#clip17_45_207)">
<path fill-rule="evenodd" clip-rule="evenodd" d="M1419.94 450.116C1408.86 450.116 1399.88 441.136 1399.88 430.058V450.116H1379.83C1368.75 450.116 1359.77 441.136 1359.77 430.058C1359.77 418.98 1368.75 410 1379.83 410C1368.75 410 1359.77 401.019 1359.77 389.942C1359.77 384.441 1361.98 379.458 1365.57 375.834L1365.64 375.758L1365.71 375.692C1369.33 372.101 1374.32 369.884 1379.83 369.884C1385.29 369.884 1390.25 372.071 1393.87 375.619C1393.92 375.665 1393.96 375.712 1394.01 375.758C1394.05 375.802 1394.1 375.847 1394.14 375.891C1397.69 379.51 1399.88 384.47 1399.88 389.942C1399.88 378.864 1408.86 369.884 1419.94 369.884C1431.02 369.884 1440 378.864 1440 389.942V410H1419.94C1431.02 410 1440 418.98 1440 430.058C1440 441.136 1431.02 450.116 1419.94 450.116ZM1403.9 430.058C1403.9 421.196 1411.08 414.012 1419.94 414.012V446.105C1411.08 446.105 1403.9 438.92 1403.9 430.058ZM1363.78 389.942C1363.78 398.804 1370.96 405.988 1379.83 405.988C1388.69 405.988 1395.87 398.804 1395.87 389.942H1363.78ZM1435.99 405.988V389.942C1435.99 381.079 1428.8 373.895 1419.94 373.895C1411.08 373.895 1403.9 381.079 1403.9 389.942V405.988H1435.99ZM1395.87 414.012V446.105H1379.83C1370.96 446.105 1363.78 438.92 1363.78 430.058C1363.78 421.196 1370.96 414.012 1379.83 414.012H1395.87Z" fill="#BBC1CE"/>
</g>
<g clip-path="url(#clip18_45_207)">
<path fill-rule="evenodd" clip-rule="evenodd" d="M1419.94 366.674C1408.86 366.674 1399.88 357.693 1399.88 346.616V366.674H1379.83C1368.75 366.674 1359.77 357.693 1359.77 346.616C1359.77 335.538 1368.75 326.558 1379.83 326.558C1368.75 326.558 1359.77 317.577 1359.77 306.499C1359.77 300.999 1361.98 296.015 1365.57 292.392L1365.64 292.316L1365.71 292.25C1369.33 288.659 1374.32 286.441 1379.83 286.441C1385.29 286.441 1390.25 288.629 1393.87 292.177C1393.92 292.223 1393.96 292.27 1394.01 292.316C1394.05 292.36 1394.1 292.404 1394.14 292.448C1397.69 296.067 1399.88 301.028 1399.88 306.499C1399.88 295.422 1408.86 286.441 1419.94 286.441C1431.02 286.441 1440 295.422 1440 306.499V326.558H1419.94C1431.02 326.558 1440 335.538 1440 346.616C1440 357.693 1431.02 366.674 1419.94 366.674ZM1403.9 346.616C1403.9 337.753 1411.08 330.569 1419.94 330.569V362.662C1411.08 362.662 1403.9 355.478 1403.9 346.616ZM1363.78 306.499C1363.78 315.362 1370.96 322.546 1379.83 322.546C1388.69 322.546 1395.87 315.362 1395.87 306.499H1363.78ZM1435.99 322.546V306.499C1435.99 297.637 1428.8 290.453 1419.94 290.453C1411.08 290.453 1403.9 297.637 1403.9 306.499V322.546H1435.99ZM1395.87 330.569V362.662H1379.83C1370.96 362.662 1363.78 355.478 1363.78 346.616C1363.78 337.753 1370.96 330.569 1379.83 330.569H1395.87Z" fill="#BBC1CE"/>
</g>
<g clip-path="url(#clip19_45_207)">
<path fill-rule="evenodd" clip-rule="evenodd" d="M1419.94 283.232C1408.86 283.232 1399.88 274.252 1399.88 263.174V283.232H1379.83C1368.75 283.232 1359.77 274.252 1359.77 263.174C1359.77 252.097 1368.75 243.116 1379.83 243.116C1368.75 243.116 1359.77 234.136 1359.77 223.058C1359.77 217.557 1361.98 212.574 1365.57 208.95L1365.64 208.875L1365.71 208.808C1369.33 205.218 1374.32 203 1379.83 203C1385.29 203 1390.25 205.188 1393.87 208.735C1393.92 208.782 1393.96 208.828 1394.01 208.875C1394.05 208.919 1394.1 208.963 1394.14 209.007C1397.69 212.626 1399.88 217.586 1399.88 223.058C1399.88 211.98 1408.86 203 1419.94 203C1431.02 203 1440 211.98 1440 223.058V243.116H1419.94C1431.02 243.116 1440 252.097 1440 263.174C1440 274.252 1431.02 283.232 1419.94 283.232ZM1403.9 263.174C1403.9 254.312 1411.08 247.128 1419.94 247.128V279.221C1411.08 279.221 1403.9 272.037 1403.9 263.174ZM1363.78 223.058C1363.78 231.92 1370.96 239.105 1379.83 239.105C1388.69 239.105 1395.87 231.92 1395.87 223.058H1363.78ZM1435.99 239.105V223.058C1435.99 214.196 1428.8 207.011 1419.94 207.011C1411.08 207.011 1403.9 214.196 1403.9 223.058V239.105H1435.99ZM1395.87 247.128V279.221H1379.83C1370.96 279.221 1363.78 272.037 1363.78 263.174C1363.78 254.312 1370.96 247.128 1379.83 247.128H1395.87Z" fill="#BBC1CE"/>
</g>
<g clip-path="url(#clip20_45_207)">
<path fill-rule="evenodd" clip-rule="evenodd" d="M1338.1 533.558C1327.03 533.558 1318.05 524.577 1318.05 513.499V533.558H1297.99C1286.91 533.558 1277.93 524.577 1277.93 513.499C1277.93 502.422 1286.91 493.441 1297.99 493.441C1286.91 493.441 1277.93 484.461 1277.93 473.383C1277.93 467.883 1280.14 462.899 1283.73 459.275L1283.81 459.2L1283.87 459.134C1287.5 455.543 1292.48 453.325 1297.99 453.325C1303.46 453.325 1308.41 455.513 1312.03 459.061C1312.08 459.107 1312.13 459.153 1312.17 459.2C1312.22 459.244 1312.26 459.288 1312.3 459.332C1315.86 462.951 1318.05 467.911 1318.05 473.383C1318.05 462.305 1327.03 453.325 1338.1 453.325C1349.18 453.325 1358.16 462.305 1358.16 473.383V493.441H1338.1C1349.18 493.441 1358.16 502.422 1358.16 513.499C1358.16 524.577 1349.18 533.558 1338.1 533.558ZM1322.06 513.499C1322.06 504.637 1329.24 497.453 1338.1 497.453V529.546C1329.24 529.546 1322.06 522.362 1322.06 513.499ZM1281.94 473.383C1281.94 482.245 1289.13 489.43 1297.99 489.43C1306.85 489.43 1314.04 482.245 1314.04 473.383H1281.94ZM1354.15 489.43V473.383C1354.15 464.521 1346.97 457.337 1338.1 457.337C1329.24 457.337 1322.06 464.521 1322.06 473.383V489.43H1354.15ZM1314.04 497.453V529.546H1297.99C1289.13 529.546 1281.94 522.362 1281.94 513.499C1281.94 504.637 1289.13 497.453 1297.99 497.453H1314.04Z" fill="#BBC1CE"/>
</g>
<g clip-path="url(#clip21_45_207)">
<path fill-rule="evenodd" clip-rule="evenodd" d="M1338.1 450.116C1327.03 450.116 1318.05 441.136 1318.05 430.058V450.116H1297.99C1286.91 450.116 1277.93 441.136 1277.93 430.058C1277.93 418.98 1286.91 410 1297.99 410C1286.91 410 1277.93 401.019 1277.93 389.942C1277.93 384.441 1280.14 379.458 1283.73 375.834L1283.8 375.758L1283.87 375.692C1287.5 372.101 1292.48 369.884 1297.99 369.884C1303.46 369.884 1308.41 372.071 1312.03 375.619C1312.08 375.665 1312.12 375.712 1312.17 375.758C1312.22 375.802 1312.26 375.847 1312.3 375.891C1315.86 379.51 1318.05 384.47 1318.05 389.942C1318.05 378.864 1327.03 369.884 1338.1 369.884C1349.18 369.884 1358.16 378.864 1358.16 389.942V410H1338.1C1349.18 410 1358.16 418.98 1358.16 430.058C1358.16 441.136 1349.18 450.116 1338.1 450.116ZM1322.06 430.058C1322.06 421.196 1329.24 414.012 1338.1 414.012V446.105C1329.24 446.105 1322.06 438.92 1322.06 430.058ZM1281.94 389.942C1281.94 398.804 1289.13 405.988 1297.99 405.988C1306.85 405.988 1314.03 398.804 1314.03 389.942H1281.94ZM1354.15 405.988V389.942C1354.15 381.079 1346.97 373.895 1338.1 373.895C1329.24 373.895 1322.06 381.079 1322.06 389.942V405.988H1354.15ZM1314.03 414.012V446.105H1297.99C1289.13 446.105 1281.94 438.92 1281.94 430.058C1281.94 421.196 1289.13 414.012 1297.99 414.012H1314.03Z" fill="#BBC1CE"/>
</g>
<g clip-path="url(#clip22_45_207)">
<path fill-rule="evenodd" clip-rule="evenodd" d="M1338.1 366.674C1327.03 366.674 1318.05 357.693 1318.05 346.616V366.674H1297.99C1286.91 366.674 1277.93 357.693 1277.93 346.616C1277.93 335.538 1286.91 326.558 1297.99 326.558C1286.91 326.558 1277.93 317.577 1277.93 306.499C1277.93 300.999 1280.14 296.015 1283.73 292.392L1283.81 292.316L1283.87 292.25C1287.5 288.659 1292.48 286.441 1297.99 286.441C1303.46 286.441 1308.41 288.629 1312.03 292.177C1312.08 292.223 1312.13 292.27 1312.17 292.316C1312.22 292.36 1312.26 292.404 1312.3 292.448C1315.86 296.067 1318.05 301.028 1318.05 306.499C1318.05 295.422 1327.03 286.441 1338.1 286.441C1349.18 286.441 1358.16 295.422 1358.16 306.499V326.558H1338.1C1349.18 326.558 1358.16 335.538 1358.16 346.616C1358.16 357.693 1349.18 366.674 1338.1 366.674ZM1322.06 346.616C1322.06 337.753 1329.24 330.569 1338.1 330.569V362.662C1329.24 362.662 1322.06 355.478 1322.06 346.616ZM1281.94 306.499C1281.94 315.362 1289.13 322.546 1297.99 322.546C1306.85 322.546 1314.04 315.362 1314.04 306.499H1281.94ZM1354.15 322.546V306.499C1354.15 297.637 1346.97 290.453 1338.1 290.453C1329.24 290.453 1322.06 297.637 1322.06 306.499V322.546H1354.15ZM1314.04 330.569V362.662H1297.99C1289.13 362.662 1281.94 355.478 1281.94 346.616C1281.94 337.753 1289.13 330.569 1297.99 330.569H1314.04Z" fill="#BBC1CE"/>
</g>
<g clip-path="url(#clip23_45_207)">
<path fill-rule="evenodd" clip-rule="evenodd" d="M1256.27 533.558C1245.19 533.558 1236.21 524.577 1236.21 513.499V533.558H1216.15C1205.07 533.558 1196.09 524.577 1196.09 513.499C1196.09 502.422 1205.07 493.441 1216.15 493.441C1205.07 493.441 1196.09 484.461 1196.09 473.383C1196.09 467.883 1198.31 462.899 1201.89 459.275L1201.97 459.2L1202.03 459.134C1205.66 455.543 1210.65 453.325 1216.15 453.325C1221.62 453.325 1226.58 455.513 1230.19 459.061C1230.24 459.107 1230.29 459.153 1230.33 459.2C1230.38 459.244 1230.42 459.288 1230.47 459.332C1234.02 462.951 1236.21 467.911 1236.21 473.383C1236.21 462.305 1245.19 453.325 1256.27 453.325C1267.35 453.325 1276.33 462.305 1276.33 473.383V493.441H1256.27C1267.35 493.441 1276.33 502.422 1276.33 513.499C1276.33 524.577 1267.35 533.558 1256.27 533.558ZM1240.22 513.499C1240.22 504.637 1247.41 497.453 1256.27 497.453V529.546C1247.41 529.546 1240.22 522.362 1240.22 513.499ZM1200.1 473.383C1200.1 482.245 1207.29 489.43 1216.15 489.43C1225.01 489.43 1232.2 482.245 1232.2 473.383H1200.1ZM1272.31 489.43V473.383C1272.31 464.521 1265.13 457.337 1256.27 457.337C1247.41 457.337 1240.22 464.521 1240.22 473.383V489.43H1272.31ZM1232.2 497.453V529.546H1216.15C1207.29 529.546 1200.1 522.362 1200.1 513.499C1200.1 504.637 1207.29 497.453 1216.15 497.453H1232.2Z" fill="#BBC1CE"/>
</g>
<g clip-path="url(#clip24_45_207)">
<path fill-rule="evenodd" clip-rule="evenodd" d="M1256.27 450.116C1245.19 450.116 1236.21 441.136 1236.21 430.058V450.116H1216.15C1205.07 450.116 1196.09 441.136 1196.09 430.058C1196.09 418.98 1205.07 410 1216.15 410C1205.07 410 1196.09 401.019 1196.09 389.942C1196.09 384.441 1198.31 379.458 1201.89 375.834L1201.97 375.758L1202.03 375.692C1205.66 372.101 1210.65 369.884 1216.15 369.884C1221.62 369.884 1226.58 372.071 1230.19 375.619C1230.24 375.665 1230.29 375.712 1230.33 375.758C1230.38 375.802 1230.42 375.847 1230.47 375.891C1234.02 379.51 1236.21 384.47 1236.21 389.942C1236.21 378.864 1245.19 369.884 1256.27 369.884C1267.35 369.884 1276.33 378.864 1276.33 389.942V410H1256.27C1267.35 410 1276.33 418.98 1276.33 430.058C1276.33 441.136 1267.35 450.116 1256.27 450.116ZM1240.22 430.058C1240.22 421.196 1247.41 414.012 1256.27 414.012V446.105C1247.41 446.105 1240.22 438.92 1240.22 430.058ZM1200.1 389.942C1200.1 398.804 1207.29 405.988 1216.15 405.988C1225.01 405.988 1232.2 398.804 1232.2 389.942H1200.1ZM1272.31 405.988V389.942C1272.31 381.079 1265.13 373.895 1256.27 373.895C1247.41 373.895 1240.22 381.079 1240.22 389.942V405.988H1272.31ZM1232.2 414.012V446.105H1216.15C1207.29 446.105 1200.1 438.92 1200.1 430.058C1200.1 421.196 1207.29 414.012 1216.15 414.012H1232.2Z" fill="#BBC1CE"/>
</g>
<g clip-path="url(#clip25_45_207)">
<path fill-rule="evenodd" clip-rule="evenodd" d="M1174.43 533.558C1163.35 533.558 1154.37 524.577 1154.37 513.499V533.558H1134.31C1123.24 533.558 1114.26 524.577 1114.26 513.499C1114.26 502.422 1123.24 493.441 1134.31 493.441C1123.24 493.441 1114.26 484.461 1114.26 473.383C1114.26 467.883 1116.47 462.899 1120.06 459.275L1120.13 459.2L1120.2 459.134C1123.82 455.543 1128.81 453.325 1134.31 453.325C1139.78 453.325 1144.74 455.513 1148.36 459.061C1148.4 459.107 1148.45 459.153 1148.5 459.2C1148.54 459.244 1148.58 459.288 1148.63 459.332C1152.18 462.951 1154.37 467.911 1154.37 473.383C1154.37 462.305 1163.35 453.325 1174.43 453.325C1185.51 453.325 1194.49 462.305 1194.49 473.383V493.441H1174.43C1185.51 493.441 1194.49 502.422 1194.49 513.499C1194.49 524.577 1185.51 533.558 1174.43 533.558ZM1158.38 513.499C1158.38 504.637 1165.57 497.453 1174.43 497.453V529.546C1165.57 529.546 1158.38 522.362 1158.38 513.499ZM1118.27 473.383C1118.27 482.245 1125.45 489.43 1134.31 489.43C1143.18 489.43 1150.36 482.245 1150.36 473.383H1118.27ZM1190.48 489.43V473.383C1190.48 464.521 1183.29 457.337 1174.43 457.337C1165.57 457.337 1158.38 464.521 1158.38 473.383V489.43H1190.48ZM1150.36 497.453V529.546H1134.31C1125.45 529.546 1118.27 522.362 1118.27 513.499C1118.27 504.637 1125.45 497.453 1134.31 497.453H1150.36Z" fill="#BBC1CE"/>
</g>
</g>
</g>
<defs>
<clipPath id="clip0_45_207">
<rect width="1441" height="536" fill="white" transform="translate(-1)"/>
</clipPath>
<clipPath id="clip1_45_207">
<rect width="80.2326" height="80.2326" fill="white" transform="translate(-40 -80)"/>
</clipPath>
<clipPath id="clip2_45_207">
<rect width="80.2326" height="80.2326" fill="white" transform="translate(-40 3.44238)"/>
</clipPath>
<clipPath id="clip3_45_207">
<rect width="80.2326" height="80.2326" fill="white" transform="translate(-40 86.8838)"/>
</clipPath>
<clipPath id="clip4_45_207">
<rect width="80.2326" height="80.2326" fill="white" transform="translate(-40 170.326)"/>
</clipPath>
<clipPath id="clip5_45_207">
<rect width="80.2326" height="80.2326" fill="white" transform="translate(-40 253.768)"/>
</clipPath>
<clipPath id="clip6_45_207">
<rect width="80.2326" height="80.2326" fill="white" transform="translate(41.8372 -80)"/>
</clipPath>
<clipPath id="clip7_45_207">
<rect width="80.2326" height="80.2326" fill="white" transform="translate(41.8374 3.44238)"/>
</clipPath>
<clipPath id="clip8_45_207">
<rect width="80.2326" height="80.2326" fill="white" transform="translate(41.8372 86.8838)"/>
</clipPath>
<clipPath id="clip9_45_207">
<rect width="80.2326" height="80.2326" fill="white" transform="translate(41.8374 170.326)"/>
</clipPath>
<clipPath id="clip10_45_207">
<rect width="80.2326" height="80.2326" fill="white" transform="translate(123.674 -80)"/>
</clipPath>
<clipPath id="clip11_45_207">
<rect width="80.2326" height="80.2326" fill="white" transform="translate(123.674 3.44238)"/>
</clipPath>
<clipPath id="clip12_45_207">
<rect width="80.2326" height="80.2326" fill="white" transform="translate(123.674 86.8838)"/>
</clipPath>
<clipPath id="clip13_45_207">
<rect width="80.2326" height="80.2326" fill="white" transform="translate(205.512 -80)"/>
</clipPath>
<clipPath id="clip14_45_207">
<rect width="80.2326" height="80.2326" fill="white" transform="translate(205.512 3.44238)"/>
</clipPath>
<clipPath id="clip15_45_207">
<rect width="80.2326" height="80.2326" fill="white" transform="translate(287.349 -80)"/>
</clipPath>
<clipPath id="clip16_45_207">
<rect width="80.2326" height="80.2326" fill="white" transform="matrix(-1 0 0 -1 1440 533.558)"/>
</clipPath>
<clipPath id="clip17_45_207">
<rect width="80.2326" height="80.2326" fill="white" transform="matrix(-1 0 0 -1 1440 450.116)"/>
</clipPath>
<clipPath id="clip18_45_207">
<rect width="80.2326" height="80.2326" fill="white" transform="matrix(-1 0 0 -1 1440 366.674)"/>
</clipPath>
<clipPath id="clip19_45_207">
<rect width="80.2326" height="80.2326" fill="white" transform="matrix(-1 0 0 -1 1440 283.232)"/>
</clipPath>
<clipPath id="clip20_45_207">
<rect width="80.2326" height="80.2326" fill="white" transform="matrix(-1 0 0 -1 1358.16 533.558)"/>
</clipPath>
<clipPath id="clip21_45_207">
<rect width="80.2326" height="80.2326" fill="white" transform="matrix(-1 0 0 -1 1358.16 450.116)"/>
</clipPath>
<clipPath id="clip22_45_207">
<rect width="80.2326" height="80.2326" fill="white" transform="matrix(-1 0 0 -1 1358.16 366.674)"/>
</clipPath>
<clipPath id="clip23_45_207">
<rect width="80.2326" height="80.2326" fill="white" transform="matrix(-1 0 0 -1 1276.33 533.558)"/>
</clipPath>
<clipPath id="clip24_45_207">
<rect width="80.2326" height="80.2326" fill="white" transform="matrix(-1 0 0 -1 1276.33 450.116)"/>
</clipPath>
<clipPath id="clip25_45_207">
<rect width="80.2326" height="80.2326" fill="white" transform="matrix(-1 0 0 -1 1194.49 533.558)"/>
</clipPath>
</defs>
</svg>
