<svg width="20" height="19" viewBox="0 0 20 19" fill="none" xmlns="http://www.w3.org/2000/svg">
<path d="M17.1309 4.429L15.0508 2.45479C14.7969 2.21357 14.457 2.07812 14.0977 2.07812C13.7383 2.07812 13.3984 2.21172 13.1445 2.45479L10.9043 4.5793C10.6504 4.82051 10.5078 5.14522 10.5078 5.48662C10.5078 5.82988 10.6484 6.15088 10.9043 6.39395L12.6543 8.0583C12.2556 8.94074 11.6828 9.7425 10.9668 10.4203C10.25 11.105 9.41211 11.6449 8.48242 12.0271L6.73242 10.3628C6.47852 10.1216 6.13867 9.98613 5.7793 9.98613C5.60204 9.98551 5.42643 10.0185 5.26276 10.0832C5.0991 10.1479 4.95067 10.2429 4.82617 10.3628L2.58398 12.4873C2.33008 12.7285 2.1875 13.0532 2.1875 13.3946C2.1875 13.7379 2.32813 14.0589 2.58398 14.302L4.66211 16.2762C5.0957 16.6881 5.69336 16.9237 6.30664 16.9237C6.43359 16.9237 6.55664 16.9145 6.68164 16.894C9.26758 16.4896 11.834 15.1814 13.9062 13.2146C15.9766 11.2441 17.3516 8.80606 17.7813 6.34756C17.9043 5.6499 17.6582 4.93184 17.1309 4.429ZM16.3965 6.12676C16.0156 8.31436 14.7773 10.4964 12.9121 12.2684C11.0469 14.0403 8.75195 15.2167 6.44922 15.5785C6.16016 15.6249 5.86328 15.5321 5.65234 15.3336L3.61133 13.3946L5.77539 11.3369L8.11523 13.5635L8.13281 13.5802L8.55469 13.4317C9.83384 12.985 10.9954 12.2793 11.959 11.3636C12.9225 10.4479 13.6649 9.34416 14.1348 8.12881L14.291 7.72803L11.9316 5.48848L14.0957 3.43076L16.1367 5.36973C16.3477 5.57012 16.4453 5.85215 16.3965 6.12676Z" fill="#616D81"/>
</svg>
