<svg width="20" height="20" viewBox="0 0 20 20" fill="none" xmlns="http://www.w3.org/2000/svg">
<path d="M10 10.834C11.3807 10.834 12.5 9.7147 12.5 8.33398C12.5 6.95327 11.3807 5.83398 10 5.83398C8.61929 5.83398 7.5 6.95327 7.5 8.33398C7.5 9.7147 8.61929 10.834 10 10.834Z" stroke="#616D81" stroke-width="1.5" stroke-linecap="round" stroke-linejoin="round"/>
<path d="M9.99967 1.66699C8.23156 1.66699 6.53587 2.36937 5.28563 3.61961C4.03539 4.86986 3.33301 6.56555 3.33301 8.33366C3.33301 9.91033 3.66801 10.942 4.58301 12.0837L9.99967 18.3337L15.4163 12.0837C16.3313 10.942 16.6663 9.91033 16.6663 8.33366C16.6663 6.56555 15.964 4.86986 14.7137 3.61961C13.4635 2.36937 11.7678 1.66699 9.99967 1.66699V1.66699Z" stroke="#616D81" stroke-width="1.5" stroke-linecap="round" stroke-linejoin="round"/>
</svg>
