<svg width="36" height="36" viewBox="0 0 36 36" fill="none" xmlns="http://www.w3.org/2000/svg">
<circle cx="18" cy="18" r="17" stroke="#B7A580" stroke-width="2"/>
<path d="M18.0035 14.4063C16.016 14.4063 14.4129 16.0095 14.4129 17.997C14.4129 19.9845 16.016 21.5876 18.0035 21.5876C19.991 21.5876 21.5941 19.9845 21.5941 17.997C21.5941 16.0095 19.991 14.4063 18.0035 14.4063ZM18.0035 20.3313C16.7191 20.3313 15.6691 19.2845 15.6691 17.997C15.6691 16.7095 16.716 15.6626 18.0035 15.6626C19.291 15.6626 20.3379 16.7095 20.3379 17.997C20.3379 19.2845 19.2879 20.3313 18.0035 20.3313ZM22.5785 14.2595C22.5785 14.7251 22.2035 15.097 21.741 15.097C21.2754 15.097 20.9035 14.722 20.9035 14.2595C20.9035 13.797 21.2785 13.422 21.741 13.422C22.2035 13.422 22.5785 13.797 22.5785 14.2595ZM24.9566 15.1095C24.9035 13.9876 24.6473 12.9938 23.8254 12.1751C23.0066 11.3563 22.0129 11.1001 20.891 11.0438C19.7348 10.9782 16.2691 10.9782 15.1129 11.0438C13.9941 11.097 13.0004 11.3532 12.1785 12.172C11.3566 12.9907 11.1035 13.9845 11.0473 15.1063C10.9816 16.2626 10.9816 19.7282 11.0473 20.8845C11.1004 22.0063 11.3566 23.0001 12.1785 23.8188C13.0004 24.6376 13.991 24.8938 15.1129 24.9501C16.2691 25.0157 19.7348 25.0157 20.891 24.9501C22.0129 24.897 23.0066 24.6407 23.8254 23.8188C24.6441 23.0001 24.9004 22.0063 24.9566 20.8845C25.0223 19.7282 25.0223 16.2657 24.9566 15.1095ZM23.4629 22.1251C23.2191 22.7376 22.7473 23.2095 22.1316 23.4563C21.2098 23.822 19.0223 23.7376 18.0035 23.7376C16.9848 23.7376 14.7941 23.8188 13.8754 23.4563C13.2629 23.2126 12.791 22.7407 12.5441 22.1251C12.1785 21.2032 12.2629 19.0157 12.2629 17.997C12.2629 16.9782 12.1816 14.7876 12.5441 13.8688C12.7879 13.2563 13.2598 12.7845 13.8754 12.5376C14.7973 12.172 16.9848 12.2563 18.0035 12.2563C19.0223 12.2563 21.2129 12.1751 22.1316 12.5376C22.7441 12.7813 23.216 13.2532 23.4629 13.8688C23.8285 14.7907 23.7441 16.9782 23.7441 17.997C23.7441 19.0157 23.8285 21.2063 23.4629 22.1251Z" fill="#B7A580"/>
</svg>
