<svg width="36" height="36" viewBox="0 0 36 36" fill="none" xmlns="http://www.w3.org/2000/svg">
<circle cx="18" cy="18" r="17" stroke="#B7A580" stroke-width="2"/>
<path d="M14.1337 24.0002H11.2313V14.6533H14.1337V24.0002ZM12.6809 13.3783C11.7528 13.3783 11 12.6096 11 11.6814C11 11.2356 11.1771 10.8081 11.4923 10.4928C11.8076 10.1776 12.2351 10.0005 12.6809 10.0005C13.1267 10.0005 13.5543 10.1776 13.8695 10.4928C14.1848 10.8081 14.3619 11.2356 14.3619 11.6814C14.3619 12.6096 13.6088 13.3783 12.6809 13.3783ZM24.9969 24.0002H22.1006V19.4502C22.1006 18.3658 22.0787 16.9752 20.5916 16.9752C19.0825 16.9752 18.8513 18.1533 18.8513 19.3721V24.0002H15.9519V14.6533H18.7356V15.9283H18.7762C19.1637 15.1939 20.1103 14.4189 21.5225 14.4189C24.46 14.4189 25 16.3533 25 18.8658V24.0002H24.9969Z" fill="#B7A580"/>
</svg>
