<svg width="51" height="49" viewBox="0 0 51 49" fill="none" xmlns="http://www.w3.org/2000/svg">
<rect x="0.0810547" width="50" height="49" rx="24.5" fill="#B7A580" fill-opacity="0.1"/>
<path opacity="0.5" d="M15.7476 27.2453C15.7476 25.8987 15.7476 25.2267 16.0436 24.652C16.3382 24.0787 16.8862 23.6867 17.9809 22.9053L23.5316 18.94C24.2782 18.4067 24.6542 18.1387 25.0809 18.1387C25.5076 18.1387 25.8822 18.4053 26.6302 18.94L32.1809 22.904C33.2756 23.6867 33.8236 24.0773 34.1182 24.652C34.4142 25.2253 34.4142 25.8987 34.4142 27.244V33.8333C34.4142 35.0907 34.4142 35.7187 34.0236 36.1093C33.6329 36.5 33.0049 36.5 31.7476 36.5H18.4142C17.1569 36.5 16.5289 36.5 16.1382 36.1093C15.7476 35.7187 15.7476 35.0907 15.7476 33.8333V27.2453Z" fill="#B7A580"/>
<path d="M13.0811 25.0161C13.0811 25.3707 13.0811 25.5494 13.1931 25.6041C13.3051 25.6587 13.4464 25.5507 13.7264 25.3307L23.4437 17.7734C24.2304 17.1614 24.6237 16.8561 25.0811 16.8561C25.5384 16.8561 25.9317 17.1627 26.7184 17.7734L36.4357 25.3307C36.7157 25.5494 36.8571 25.6587 36.9691 25.6041C37.0811 25.5494 37.0811 25.3707 37.0811 25.0161V24.4707C37.0811 23.8307 37.0811 23.5107 36.9451 23.2334C36.8104 22.9561 36.5571 22.7587 36.0517 22.3667L26.7184 15.1067C25.9317 14.4947 25.5384 14.1894 25.0811 14.1894C24.6237 14.1894 24.2304 14.4961 23.4437 15.1067L14.1104 22.3667C13.6051 22.7587 13.3517 22.9561 13.2171 23.2334C13.0811 23.5107 13.0811 23.8307 13.0811 24.4707V25.0161ZM25.7477 28.5001H24.4144C23.7071 28.5001 23.0289 28.781 22.5288 29.2811C22.0287 29.7812 21.7477 30.4595 21.7477 31.1667V36.3001C21.7477 36.4107 21.8371 36.5001 21.9477 36.5001H28.2144C28.2674 36.5001 28.3183 36.479 28.3558 36.4415C28.3933 36.404 28.4144 36.3531 28.4144 36.3001V31.1667C28.4144 30.4595 28.1334 29.7812 27.6333 29.2811C27.1332 28.781 26.455 28.5001 25.7477 28.5001Z" fill="#B7A580"/>
<path d="M32.4146 15.1667H31.0812C30.713 15.1667 30.4146 15.4652 30.4146 15.8334V19.8334C30.4146 20.2015 30.713 20.5 31.0812 20.5H32.4146C32.7827 20.5 33.0812 20.2015 33.0812 19.8334V15.8334C33.0812 15.4652 32.7827 15.1667 32.4146 15.1667Z" fill="#B7A580"/>
</svg>
