<svg width="48" height="48" viewBox="0 0 48 48" fill="none" xmlns="http://www.w3.org/2000/svg">
<g clip-path="url(#clip0_31_453)">
<path d="M18.5287 36.4276L15.9253 33.8242C14.1273 35.0042 12.7561 35.7459 12.7368 35.7574C12.6827 35.7864 12.6228 35.8019 12.5649 35.8019C12.4703 35.8019 12.3776 35.7652 12.3061 35.6956C12.1922 35.5817 12.1671 35.406 12.2424 35.265C12.254 35.2457 12.9956 33.8744 14.1756 32.0764L11.5722 29.4731L11.0257 28.9265C8.60192 30.122 6.52386 31.7925 4.83978 33.8996C3.41064 35.6899 2.26346 37.7949 1.43108 40.1569C0.0154502 44.172 0 47.4958 0 47.6348C0 47.8357 0.164159 47.9998 0.365012 47.9998C0.504064 47.9998 3.82779 47.9844 7.84292 46.5687C10.2049 45.7364 12.31 44.5892 14.1003 43.16C16.2073 41.4779 17.8778 39.3979 19.0733 36.9742L18.5268 36.4276H18.5287Z" fill="#FFCA28"/>
<path d="M47.2005 7.71344C47.0634 7.46431 46.9012 7.18234 46.71 6.8772C46.1461 5.97916 45.3368 4.87253 44.2302 3.76784C43.1255 2.66315 42.0189 1.85201 41.1209 1.29001C40.8157 1.09881 40.5338 0.934655 40.2846 0.799466C40.2074 0.756978 40.1185 0.743459 40.0316 0.762772C36.2038 1.59322 32.4803 3.14211 28.9596 5.36694C25.999 7.23835 23.1465 9.60803 20.4832 12.4122C19.1603 13.8066 17.9648 15.2203 16.8968 16.5973C16.7288 16.8136 16.5647 17.028 16.4024 17.2424C14.3746 19.9307 12.8469 22.4298 11.8118 24.2838C11.6862 24.5078 11.5704 24.7222 11.4584 24.925C11.3309 25.1625 11.2112 25.3866 11.1011 25.5951C11.0277 25.7361 11.0547 25.91 11.1667 26.022L11.5202 26.3754L15.4136 30.2688C15.5565 30.0719 15.7014 29.8729 15.8501 29.674C15.9505 29.5388 16.0529 29.4036 16.1572 29.2684C17.5033 27.5206 18.8107 26.1243 20.0468 25.1201C21.6304 23.8319 23.1136 23.1811 24.4501 23.1811C24.6509 23.1811 24.8151 23.3452 24.8151 23.5461C24.8151 24.8844 24.1623 26.3657 22.8761 27.9494C21.8718 29.1854 20.4755 30.4948 18.7277 31.839C18.5925 31.9433 18.4573 32.0456 18.3221 32.146C18.1232 32.2948 17.9243 32.4415 17.7273 32.5825L21.6207 36.476L21.9742 36.8294C22.0437 36.8989 22.1383 36.9356 22.233 36.9356C22.2909 36.9356 22.3488 36.9221 22.401 36.8951C22.6096 36.7869 22.8336 36.6672 23.0711 36.5378C23.2759 36.4277 23.4883 36.3099 23.7123 36.1843C25.5663 35.1511 28.0654 33.6215 30.7518 31.5937C30.9662 31.4315 31.1806 31.2673 31.3969 31.0993C32.7739 30.0313 34.1876 28.8358 35.582 27.5129C38.3862 24.8497 40.7559 21.9991 42.6273 19.0365C44.8502 15.5177 46.3991 11.7923 47.2314 7.96451C47.2507 7.87953 47.2372 7.78876 47.1947 7.71151L47.2005 7.71344ZM30.8716 11.802C30.8716 10.3805 31.4258 9.04216 32.4301 8.0379C33.4344 7.03363 34.7728 6.47743 36.1942 6.47743C37.6156 6.47743 38.954 7.0317 39.9582 8.0379C40.9644 9.04409 41.5168 10.3805 41.5168 11.802C41.5168 13.2234 40.9625 14.5618 39.9582 15.566C38.952 16.5722 37.6156 17.1246 36.1942 17.1246C34.7728 17.1246 33.4344 16.5703 32.4301 15.566C31.4258 14.5618 30.8716 13.2234 30.8716 11.802Z" fill="#E0E0E0"/>
<path d="M30.7574 31.5956C28.069 33.6234 25.57 35.151 23.7179 36.1862C23.4938 36.3117 23.2795 36.4276 23.0767 36.5396C23.378 37.0282 23.6947 37.6115 23.9825 38.2797C24.8554 40.3056 25.6376 43.554 24.4131 47.5286C24.3629 47.6889 24.4305 47.8627 24.5734 47.9477C24.6314 47.9825 24.697 47.9998 24.7608 47.9998C24.8554 47.9998 24.9481 47.9631 25.0196 47.8936C27.2753 45.6379 28.9903 43.2721 30.1143 40.8618C31.0181 38.9248 31.5453 36.9529 31.6825 35.0062C31.7964 33.3801 31.6187 32.0494 31.4044 31.1031C31.1881 31.2711 30.9737 31.4353 30.7593 31.5975L30.7574 31.5956ZM16.8985 16.5972C15.9503 16.3809 14.6196 16.2052 12.9954 16.3191C11.0468 16.4543 9.07685 16.9835 7.13978 17.8873C4.72954 19.0113 2.36372 20.7263 0.107991 22.9821C-0.00981682 23.0999 -0.0329922 23.2853 0.0539154 23.4282C0.140823 23.5711 0.312707 23.6387 0.473003 23.5885C4.44951 22.366 7.69792 23.1481 9.7219 24.0192C10.3901 24.3069 10.9734 24.6236 11.462 24.9249C11.5721 24.7202 11.6899 24.5078 11.8154 24.2837C12.8486 22.4297 14.3782 19.9306 16.4061 17.2423C16.5683 17.0279 16.7324 16.8136 16.9005 16.5972H16.8985ZM47.996 0.362923C47.994 0.165932 47.8338 0.00563619 47.6348 0.00177363C45.0546 -0.0291268 42.4957 0.225802 40.0314 0.762697C40.1164 0.743385 40.2071 0.756903 40.2844 0.799392C40.5335 0.936512 40.8155 1.09874 41.1206 1.28994C42.0187 1.85387 43.1234 2.66308 44.23 3.76777C45.3347 4.87246 46.1458 5.97908 46.7097 6.87713C46.9009 7.18227 47.0651 7.46423 47.2003 7.71337C47.2428 7.79062 47.2563 7.87946 47.237 7.96637C47.7719 5.50205 48.0288 2.94311 47.9979 0.362923H47.996ZM24.4556 23.179C23.1172 23.179 21.636 23.8318 20.0523 25.1181C18.8163 26.1223 17.5069 27.5186 16.1627 29.2664C16.0584 29.4016 15.9561 29.5368 15.8556 29.672C15.7069 29.8709 15.5602 30.0698 15.4192 30.2668C15.1275 30.6705 14.8494 31.0703 14.5887 31.4546C14.4458 31.6651 14.3087 31.8717 14.1754 32.0745C12.9954 33.8725 12.2538 35.2437 12.2422 35.2631C12.165 35.404 12.192 35.5798 12.3059 35.6937C12.3755 35.7633 12.4701 35.8 12.5647 35.8C12.6246 35.8 12.6825 35.7864 12.7366 35.7555C12.7559 35.7439 14.1271 35.0023 15.9252 33.8223C16.126 33.6891 16.3327 33.5519 16.5451 33.409C16.9294 33.1483 17.3292 32.8702 17.7328 32.5786C17.9298 32.4357 18.1288 32.2908 18.3277 32.1421C18.4629 32.0417 18.5981 31.9393 18.7332 31.835C20.4811 30.4889 21.8774 29.1815 22.8816 27.9454C24.1698 26.3618 24.8206 24.8786 24.8206 23.5421C24.8206 23.3413 24.6565 23.1771 24.4556 23.1771V23.179Z" fill="#B7A580"/>
<path d="M32.9477 15.0524C33.8148 15.9195 34.9697 16.3985 36.1961 16.3985C37.4224 16.3985 38.5773 15.9215 39.4445 15.0524C40.3116 14.1853 40.7906 13.0303 40.7906 11.804C40.7906 10.5776 40.3136 9.42272 39.4445 8.55557C38.5773 7.68843 37.4224 7.20947 36.1961 7.20947C34.9697 7.20947 33.8148 7.6865 32.9477 8.55557C32.0805 9.42272 31.6016 10.5776 31.6016 11.804C31.6016 13.0303 32.0786 14.1853 32.9477 15.0524Z" fill="#B7A580"/>
<path d="M21.9778 36.8295L21.6244 36.4761L17.7309 32.5826C17.3273 32.8743 16.9275 33.1524 16.5432 33.4131C16.3327 33.556 16.126 33.6931 15.9232 33.8264L18.5266 36.4297L19.0731 36.9763L19.9287 37.8318C19.9982 37.9014 20.0909 37.9381 20.1875 37.9381C20.2358 37.9381 20.286 37.9284 20.3323 37.9091C20.3652 37.8956 21.128 37.5634 22.4046 36.8971C22.3505 36.9241 22.2926 36.9377 22.2366 36.9377C22.1419 36.9377 22.0492 36.901 21.9778 36.8314V36.8295ZM11.1703 26.0221C11.0583 25.9101 11.0313 25.7362 11.1047 25.5953C10.4384 26.8718 10.1062 27.6366 10.0927 27.6675C10.0328 27.8046 10.0637 27.9649 10.1699 28.0692L11.0255 28.9248L11.5721 29.4713L14.1754 32.0747C14.3087 31.8739 14.4458 31.6672 14.5887 31.4548C14.8494 31.0704 15.1275 30.6707 15.4192 30.267L11.5257 26.3736L11.1723 26.0201L11.1703 26.0221ZM39.9619 8.03801C38.9557 7.03182 37.6192 6.47754 36.1978 6.47754C34.7764 6.47754 33.438 7.03182 32.4337 8.03801C31.4295 9.04421 30.8752 10.3807 30.8752 11.8021C30.8752 13.2235 31.4295 14.5619 32.4337 15.5661C33.438 16.5704 34.7764 17.1247 36.1978 17.1247C37.6192 17.1247 38.9576 16.5704 39.9619 15.5661C40.968 14.5599 41.5204 13.2235 41.5204 11.8021C41.5204 10.3807 40.9661 9.04228 39.9619 8.03801ZM39.4462 15.0524C38.5791 15.9196 37.4242 16.3985 36.1978 16.3985C34.9714 16.3985 33.8165 15.9215 32.9494 15.0524C32.0822 14.1853 31.6033 13.0304 31.6033 11.804C31.6033 10.5776 32.0803 9.42274 32.9494 8.55559C33.8165 7.68845 34.9714 7.20949 36.1978 7.20949C37.4242 7.20949 38.5791 7.68652 39.4462 8.55559C40.3133 9.42274 40.7923 10.5776 40.7923 11.804C40.7923 13.0304 40.3153 14.1853 39.4462 15.0524Z" fill="#BDBDBD"/>
</g>
<defs>
<clipPath id="clip0_31_453">
<rect width="48" height="48" fill="white"/>
</clipPath>
</defs>
</svg>
