<svg width="48" height="48" viewBox="0 0 48 48" fill="none" xmlns="http://www.w3.org/2000/svg">
<path d="M19.3218 20.1936H23.8218C31.5843 20.1936 37.8749 26.4842 37.8749 34.2467V39.2999C37.8749 40.7905 36.6655 41.9999 35.1749 41.9999H7.95928C6.46865 41.9999 5.25928 40.7905 5.25928 39.2999V34.2467C5.27803 26.4842 11.5687 20.1936 19.3218 20.1936Z" fill="#B7A580"/>
<path d="M21.5718 18.9093C25.833 18.9093 29.2875 15.3499 29.2875 10.9593C29.2875 6.56861 25.833 3.00928 21.5718 3.00928C17.3106 3.00928 13.8562 6.56861 13.8562 10.9593C13.8562 15.3499 17.3106 18.9093 21.5718 18.9093Z" fill="#F4BF90"/>
<path d="M36.9096 46.8153C41.6954 46.8153 45.5751 42.9357 45.5751 38.1499C45.5751 33.364 41.6954 29.4844 36.9096 29.4844C32.1238 29.4844 28.2441 33.364 28.2441 38.1499C28.2441 42.9357 32.1238 46.8153 36.9096 46.8153Z" fill="#FBB03B"/>
<path d="M42.4456 36.1469L40.5539 33.9771L35.5883 38.3446L33.4184 35.8687L31.3599 37.663L35.4353 42.3087L42.4456 36.1469Z" fill="#1A1A1A"/>
</svg>
