<svg width="48" height="48" viewBox="0 0 48 48" fill="none" xmlns="http://www.w3.org/2000/svg">
<g clip-path="url(#clip0_31_426)">
<path d="M18.15 30.75L9.75 33.6C6.6 34.5 4.5 37.5 4.5 40.65V47.25H42V40.65C42 37.35 39.9 34.5 36.9 33.6L28.5 30.75" fill="#B7A580"/>
<path d="M18 26.25V30C18 32.85 23.25 35.25 23.25 35.25C23.25 35.25 28.5 32.85 28.5 30V26.25" fill="#FED8AA"/>
<path d="M23.25 36.0001L22.95 35.8501C22.35 35.5501 17.25 33.1501 17.25 29.8501V26.1001H18.75V30.0001C18.75 31.8001 21.75 33.7501 23.25 34.3501C24.75 33.6001 27.75 31.8001 27.75 30.0001V26.2501H29.25V30.0001C29.25 33.3001 24.15 35.7001 23.55 36.0001H23.25Z" fill="#40455A"/>
<path d="M33 8.25V18C33 23.4 28.65 27.75 23.25 27.75C17.85 27.75 13.5 23.4 13.5 18V8.25" fill="#FED8AA"/>
<path d="M23.25 28.5C17.4 28.5 12.75 23.85 12.75 18V8.25H14.25V18C14.25 22.95 18.3 27 23.25 27C28.2 27 32.25 22.95 32.25 18V8.25H33.75V18C33.75 23.85 29.1 28.5 23.25 28.5Z" fill="#40455A"/>
<path d="M13.5001 14.2499H14.2501C15.1501 14.2499 15.7501 13.6499 15.7501 12.7499C15.7501 11.8499 16.3501 11.2499 17.2501 11.2499L18.9001 11.5499C22.6501 12.2999 26.5501 11.3999 29.5501 9.14992C30.0001 8.84992 30.7501 9.14992 30.7501 9.74992V12.7499C30.7501 13.6499 31.3501 14.2499 32.2501 14.2499H33.0001L34.5001 9.44992C34.9501 7.19992 33.3001 5.09992 31.0501 5.09992C31.0501 2.39992 28.6501 0.449916 26.1001 0.899916L15.7501 2.54992C13.2001 2.99992 11.7001 5.24992 12.0001 7.64992L13.5001 14.2499Z" fill="#A17852"/>
<path d="M33.6001 15H32.2501C31.0501 15 30.0001 13.95 30.0001 12.75V9.75003C26.8501 12.15 22.6501 13.05 18.7501 12.3L17.1001 12C16.8001 12 16.5001 12.3 16.5001 12.75C16.5001 13.95 15.4501 15 14.2501 15H12.9001L11.4001 7.80003C11.1001 6.45003 11.4001 5.10003 12.3001 3.90003C13.0501 2.70003 14.2501 1.95003 15.6001 1.80003L25.8001 2.74256e-05C27.3001 -0.299973 28.8001 0.150027 29.8501 1.05003C30.9001 2.10003 31.5001 3.15003 31.6501 4.50003C32.7001 4.65003 33.6001 5.25003 34.2001 6.00003C34.9501 7.05003 35.4001 8.25003 35.1001 9.60003L33.6001 15ZM30.0001 8.25003C30.3001 8.25003 30.4501 8.25003 30.6001 8.40003C31.2001 8.70003 31.5001 9.15003 31.5001 9.75003V12.75C31.5001 13.2 31.8001 13.5 32.2501 13.5H32.4001L33.7501 9.15003C33.9001 8.40003 33.7501 7.50003 33.1501 6.90003C32.5501 6.30003 31.8001 5.85003 31.0501 5.85003H30.3001V5.10003C30.3001 3.90003 29.8501 3.00003 29.1001 2.25003C28.3501 1.65003 27.3001 1.35003 26.2501 1.50003L15.9001 3.15003C15.0001 3.30003 14.1001 3.90003 13.5001 4.65003C12.9001 5.55003 12.6001 6.60003 12.7501 7.50003L13.9501 13.5H14.1001C14.7001 13.5 15.0001 13.2 15.0001 12.75C15.0001 11.55 16.0501 10.5 17.2501 10.5L19.0501 10.8C22.5001 11.55 26.2501 10.65 29.1001 8.55003C29.4001 8.40003 29.7001 8.25003 30.0001 8.25003Z" fill="#40455A"/>
<path opacity="0.4" d="M42 47.25V40.65C42 39.3 41.55 37.95 40.95 36.75C36.45 37.35 33 41.1 33 45.75V47.25H42ZM4.5 47.25V40.65C4.5 39.3 4.95 37.95 5.55 36.75C10.05 37.35 13.5 41.1 13.5 45.75V47.25H4.5Z" fill="#B7A580"/>
<path d="M36 18.75H33V14.25H34.5C35.4 14.25 36 14.85 36 15.75V18.75Z" fill="#787882"/>
<path d="M36.75 19.5H32.25V13.5H34.5C35.7 13.5 36.75 14.55 36.75 15.75V19.5ZM33.75 18H35.25V15.75C35.25 15.3 34.95 15 34.5 15H33.75V18Z" fill="#40455A"/>
<path d="M13.5 18.75H12C11.1 18.75 10.5 18.15 10.5 17.25V15.75C10.5 14.85 11.1 14.25 12 14.25H13.5V18.75Z" fill="#787882"/>
<path d="M14.25 19.5H12C10.8 19.5 9.75 18.45 9.75 17.25V15.75C9.75 14.55 10.8 13.5 12 13.5H14.25V19.5ZM12 15C11.55 15 11.25 15.3 11.25 15.75V17.25C11.25 17.7 11.55 18 12 18H12.75V15H12Z" fill="#40455A"/>
<path d="M25.5 24.75H24C23.1 24.75 22.5 24.15 22.5 23.25C22.5 22.35 23.1 21.75 24 21.75H25.5C26.4 21.75 27 22.35 27 23.25C27 24.15 26.4 24.75 25.5 24.75Z" fill="#787882"/>
<path d="M25.5 25.5H24C22.8 25.5 21.75 24.45 21.75 23.25C21.75 22.05 22.8 21 24 21H25.5C26.7 21 27.75 22.05 27.75 23.25C27.75 24.45 26.7 25.5 25.5 25.5ZM24 22.5C23.55 22.5 23.25 22.8 23.25 23.25C23.25 23.7 23.55 24 24 24H25.5C25.95 24 26.25 23.7 26.25 23.25C26.25 22.8 25.95 22.5 25.5 22.5H24Z" fill="#40455A"/>
<path d="M23.25 36H22.95C22.35 35.7 17.25 33.3 17.25 30V26.25C17.25 25.8 17.55 25.5 18 25.5C18.45 25.5 18.75 25.8 18.75 26.25V30C18.75 31.8 21.75 33.75 23.25 34.35C24.75 33.6 27.75 31.8 27.75 30V26.25C27.75 25.8 28.05 25.5 28.5 25.5C28.95 25.5 29.25 25.8 29.25 26.25V30C29.25 33.3 24.15 35.7 23.55 36H23.25Z" fill="#40455A"/>
<path d="M23.25 28.5C17.4 28.5 12.75 23.85 12.75 18V14.25C12.75 13.8 13.05 13.5 13.5 13.5C13.95 13.5 14.25 13.8 14.25 14.25V18C14.25 22.95 18.3 27 23.25 27C28.2 27 32.25 22.95 32.25 18V14.25C32.25 13.8 32.55 13.5 33 13.5C33.45 13.5 33.75 13.8 33.75 14.25V18C33.75 23.85 29.1 28.5 23.25 28.5Z" fill="#40455A"/>
<path d="M33 15H32.25C31.05 15 30 13.95 30 12.75V9.75003C26.85 12.15 22.65 13.05 18.75 12.3L17.1 12C16.8 12 16.5 12.3 16.5 12.75C16.5 13.95 15.45 15 14.25 15H13.5C13.2 15 12.9 14.7 12.75 14.4L11.4 7.80003C11.1 6.45003 11.4 5.10003 12.3 3.90003C13.05 2.70003 14.25 1.95003 15.6 1.80003L25.8 2.74256e-05C27.3 -0.299973 28.8 0.150027 29.85 1.05003C30.9 2.10003 31.5 3.15003 31.65 4.50003C32.7 4.65003 33.6 5.25003 34.2 6.00003C34.95 7.05003 35.4 8.25003 35.1 9.60003L33.6 14.55C33.6 14.85 33.3 15 33 15ZM30 8.25003C30.3 8.25003 30.45 8.25003 30.6 8.40003C31.2 8.70003 31.5 9.15003 31.5 9.75003V12.75C31.5 13.2 31.8 13.5 32.25 13.5H32.4L33.75 9.15003C33.9 8.40003 33.75 7.50003 33.15 6.90003C32.55 6.30003 31.8 5.85003 31.05 5.85003C30.6 5.85003 30.3 5.55003 30.3 5.10003C30.3 3.90003 29.85 3.00003 29.1 2.25003C28.35 1.65003 27.3 1.35003 26.25 1.50003L15.9 3.15003C15 3.30003 14.1 3.90003 13.5 4.65003C12.9 5.55003 12.6 6.60003 12.75 7.50003L13.95 13.5H14.1C14.7 13.5 15 13.2 15 12.75C15 11.55 16.05 10.5 17.25 10.5L19.05 10.8C22.5 11.55 26.25 10.65 29.1 8.55003C29.4 8.40003 29.7 8.25003 30 8.25003ZM42 48H4.5C4.05 48 3.75 47.7 3.75 47.25V40.65C3.75 37.05 6 33.9 9.45 32.85L17.85 30C18.3 29.85 18.6 30.15 18.75 30.45C18.9 30.75 18.6 31.2 18.3 31.35L9.9 34.2C7.2 35.1 5.25 37.65 5.25 40.65V46.5H41.25V40.65C41.25 37.8 39.45 35.1 36.6 34.2L28.2 31.5C27.75 31.35 27.6 30.9 27.75 30.6C27.9 30.15 28.35 30 28.65 30.15L37.05 33C40.5 34.05 42.75 37.2 42.75 40.8V47.4C42.75 47.7 42.45 48 42 48Z" fill="#40455A"/>
<path d="M42 48H33C32.55 48 32.25 47.7 32.25 47.25V45.75C32.25 40.8 36 36.6 40.8 36.15C41.1 36.15 41.4 36.3 41.55 36.45C42.3 37.8 42.75 39.15 42.75 40.65V47.25C42.75 47.7 42.45 48 42 48ZM33.75 46.5H41.25V40.65C41.25 39.6 40.95 38.55 40.5 37.65C36.6 38.4 33.75 41.7 33.75 45.75V46.5ZM13.5 48H4.5C4.05 48 3.75 47.7 3.75 47.25V40.65C3.75 39.15 4.2 37.65 4.95 36.45C5.1 36.15 5.4 36 5.7 36C10.65 36.6 14.25 40.8 14.25 45.6V47.1C14.25 47.7 13.95 48 13.5 48ZM5.25 46.5H12.75V45.75C12.75 41.7 9.9 38.4 6 37.65C5.55 38.55 5.25 39.6 5.25 40.65V46.5ZM36 19.5H33C32.55 19.5 32.25 19.2 32.25 18.75V14.25C32.25 13.8 32.55 13.5 33 13.5H34.5C35.7 13.5 36.75 14.55 36.75 15.75V18.75C36.75 19.2 36.45 19.5 36 19.5ZM33.75 18H35.25V15.75C35.25 15.3 34.95 15 34.5 15H33.75V18Z" fill="#40455A"/>
<path d="M31.5 24H27C26.55 24 26.25 23.7 26.25 23.25C26.25 22.8 26.55 22.5 27 22.5H31.5C33.6 22.5 35.25 20.85 35.25 18.75V15.75C35.25 15.3 35.55 15 36 15C36.45 15 36.75 15.3 36.75 15.75V18.75C36.75 21.6 34.35 24 31.5 24ZM13.5 19.5H12C10.8 19.5 9.75 18.45 9.75 17.25V15.75C9.75 14.55 10.8 13.5 12 13.5H13.5C13.95 13.5 14.25 13.8 14.25 14.25V18.75C14.25 19.2 13.95 19.5 13.5 19.5ZM12 15C11.55 15 11.25 15.3 11.25 15.75V17.25C11.25 17.7 11.55 18 12 18H12.75V15H12Z" fill="#40455A"/>
<path d="M25.5 25.5H24C22.8 25.5 21.75 24.45 21.75 23.25C21.75 22.05 22.8 21 24 21H25.5C26.7 21 27.75 22.05 27.75 23.25C27.75 24.45 26.7 25.5 25.5 25.5ZM24 22.5C23.55 22.5 23.25 22.8 23.25 23.25C23.25 23.7 23.55 24 24 24H25.5C25.95 24 26.25 23.7 26.25 23.25C26.25 22.8 25.95 22.5 25.5 22.5H24Z" fill="#40455A"/>
</g>
<defs>
<clipPath id="clip0_31_426">
<rect width="48" height="48" fill="white"/>
</clipPath>
</defs>
</svg>
