<svg width="48" height="48" viewBox="0 0 48 48" fill="none" xmlns="http://www.w3.org/2000/svg">
<g clip-path="url(#clip0_31_412)">
<path d="M24.8186 1.21212L26.3745 4.36446C26.4399 4.49717 26.5367 4.61197 26.6564 4.69897C26.7761 4.78597 26.9152 4.84256 27.0617 4.86387L30.5406 5.36937C30.7092 5.39387 30.8675 5.46505 30.9977 5.57484C31.1279 5.68463 31.2248 5.82866 31.2775 5.99065C31.3301 6.15264 31.3364 6.32612 31.2955 6.49148C31.2547 6.65684 31.1685 6.80748 31.0465 6.92637L28.5291 9.38018C28.4232 9.48349 28.3439 9.61101 28.2982 9.75176C28.2524 9.8925 28.2416 10.0423 28.2666 10.1881L28.8609 13.6529C28.8897 13.8208 28.8709 13.9934 28.8067 14.1511C28.7426 14.3089 28.6355 14.4455 28.4977 14.5456C28.36 14.6458 28.1969 14.7053 28.027 14.7176C27.8572 14.7299 27.6873 14.6944 27.5365 14.6152L24.4248 12.9793C24.2938 12.9105 24.1481 12.8745 24.0001 12.8745C23.8521 12.8745 23.7063 12.9105 23.5753 12.9793L20.4637 14.6153C20.3129 14.6945 20.143 14.73 19.9731 14.7178C19.8032 14.7055 19.6401 14.6459 19.5023 14.5458C19.3645 14.4457 19.2575 14.309 19.1933 14.1512C19.1292 13.9934 19.1104 13.8208 19.1392 13.6529L19.7335 10.1881C19.7585 10.0423 19.7477 9.8925 19.702 9.75176C19.6562 9.61101 19.577 9.48349 19.471 9.38018L16.9536 6.92637C16.8317 6.80748 16.7454 6.65684 16.7046 6.49148C16.6638 6.32612 16.67 6.15264 16.7227 5.99065C16.7753 5.82866 16.8722 5.68463 17.0024 5.57484C17.1326 5.46505 17.2909 5.39387 17.4595 5.36937L20.9384 4.86387C21.0848 4.84258 21.2239 4.786 21.3437 4.69899C21.4634 4.61199 21.5602 4.49719 21.6257 4.36446L23.1815 1.21212C23.2569 1.0594 23.3735 0.930826 23.5182 0.840921C23.6628 0.751015 23.8297 0.703369 24.0001 0.703369C24.1704 0.703369 24.3373 0.751015 24.4819 0.840921C24.6266 0.930826 24.7432 1.0594 24.8186 1.21212Z" fill="#FFE966"/>
<path d="M31.0465 6.92622C31.1685 6.80733 31.2548 6.65669 31.2956 6.49133C31.3364 6.32597 31.3301 6.15248 31.2775 5.9905C31.2249 5.82851 31.128 5.68448 30.9978 5.57469C30.8675 5.46489 30.7092 5.39372 30.5407 5.36922L27.0618 4.86372C26.9153 4.84243 26.7762 4.78584 26.6565 4.69884C26.5368 4.61184 26.44 4.49704 26.3745 4.36431L24.8185 1.21188C24.7431 1.05916 24.6265 0.930582 24.4819 0.840676C24.3372 0.750771 24.1703 0.703125 24 0.703125C23.8297 0.703125 23.6628 0.750771 23.5181 0.840676C23.3735 0.930582 23.2569 1.05916 23.1815 1.21188L22.9207 1.74044L24.4367 4.81235C24.5022 4.94505 24.599 5.05984 24.7187 5.14682C24.8384 5.23381 24.9775 5.29038 25.124 5.31166L28.6029 5.81716C28.7715 5.84166 28.9298 5.91283 29.06 6.02262C29.1903 6.13241 29.2872 6.27645 29.3398 6.43843C29.3924 6.60042 29.3987 6.7739 29.3579 6.93926C29.317 7.10462 29.2308 7.25527 29.1088 7.37416L26.5914 9.82797C26.4855 9.93128 26.4062 10.0588 26.3605 10.1995C26.3147 10.3403 26.3039 10.49 26.3289 10.6359L26.9232 14.1008C26.9345 14.1664 26.9388 14.233 26.9361 14.2995L27.5364 14.615C27.6872 14.6943 27.8571 14.7297 28.027 14.7175C28.1969 14.7052 28.3599 14.6456 28.4977 14.5455C28.6355 14.4454 28.7425 14.3087 28.8067 14.151C28.8709 13.9932 28.8896 13.8206 28.8608 13.6528L28.2666 10.188C28.2415 10.0421 28.2524 9.89235 28.2981 9.75161C28.3438 9.61086 28.4231 9.48334 28.5291 9.38003L31.0465 6.92622Z" fill="#FFE236"/>
<path d="M8.1194 13.3449L9.53653 16.2165C9.59619 16.3374 9.68435 16.4419 9.79342 16.5212C9.90248 16.6004 10.0292 16.652 10.1626 16.6713L13.3315 17.1317C13.4851 17.1541 13.6293 17.2189 13.7479 17.3189C13.8665 17.4189 13.9548 17.5501 14.0027 17.6977C14.0507 17.8452 14.0564 18.0032 14.0192 18.1539C13.982 18.3045 13.9034 18.4417 13.7923 18.55L11.4992 20.7852C11.4027 20.8793 11.3305 20.9954 11.2888 21.1236C11.2472 21.2519 11.2373 21.3883 11.2601 21.5211L11.8014 24.6772C11.8277 24.8301 11.8106 24.9873 11.7521 25.131C11.6937 25.2748 11.5962 25.3993 11.4707 25.4904C11.3452 25.5816 11.1967 25.6359 11.0419 25.6471C10.8872 25.6583 10.7324 25.626 10.5951 25.5538L7.76072 24.0636C7.64139 24.0009 7.50858 23.9681 7.37376 23.9681C7.23894 23.9681 7.10614 24.0009 6.98681 24.0636L4.15247 25.5538C4.01514 25.626 3.86035 25.6583 3.70561 25.6471C3.55087 25.6359 3.40235 25.5816 3.27684 25.4904C3.15132 25.3993 3.05383 25.2748 2.99538 25.131C2.93693 24.9873 2.91986 24.8301 2.94609 24.6772L3.4874 21.5211C3.5102 21.3883 3.50035 21.2519 3.4587 21.1236C3.41705 20.9954 3.34486 20.8793 3.24834 20.7852L0.955216 18.55C0.844113 18.4417 0.765524 18.3045 0.728338 18.1539C0.691151 18.0032 0.69685 17.8452 0.744791 17.6977C0.792731 17.5501 0.881 17.4189 0.999615 17.3189C1.11823 17.2189 1.26246 17.1541 1.416 17.1317L4.58494 16.6713C4.71835 16.652 4.84505 16.6004 4.95411 16.5212C5.06318 16.4419 5.15134 16.3374 5.211 16.2165L6.62812 13.3449C6.69678 13.2058 6.803 13.0886 6.93477 13.0067C7.06654 12.9248 7.2186 12.8813 7.37376 12.8813C7.52892 12.8813 7.68099 12.9248 7.81276 13.0067C7.94453 13.0886 8.05075 13.2058 8.1194 13.3449ZM41.3721 13.3449L42.7892 16.2165C42.8488 16.3374 42.937 16.4419 43.0461 16.5212C43.1551 16.6004 43.2818 16.652 43.4152 16.6713L46.5842 17.1317C46.7377 17.1541 46.882 17.2189 47.0006 17.3189C47.1192 17.4189 47.2075 17.5501 47.2554 17.6977C47.3033 17.8452 47.309 18.0032 47.2718 18.1539C47.2347 18.3045 47.1561 18.4417 47.045 18.55L44.7518 20.7852C44.6553 20.8793 44.5831 20.9954 44.5415 21.1236C44.4998 21.2519 44.49 21.3883 44.5128 21.5211L45.0541 24.6772C45.0803 24.8301 45.0633 24.9873 45.0048 25.131C44.9464 25.2748 44.8489 25.3993 44.7234 25.4904C44.5978 25.5816 44.4493 25.6359 44.2946 25.6471C44.1398 25.6583 43.985 25.626 43.8477 25.5538L41.0134 24.0636C40.894 24.0009 40.7612 23.9681 40.6264 23.9681C40.4916 23.9681 40.3588 24.0009 40.2395 24.0636L37.4051 25.5538C37.2678 25.626 37.113 25.6583 36.9583 25.6471C36.8035 25.6359 36.655 25.5816 36.5295 25.4904C36.404 25.3993 36.3065 25.2748 36.248 25.131C36.1896 24.9873 36.1725 24.8301 36.1987 24.6772L36.7401 21.5211C36.7629 21.3883 36.753 21.2519 36.7114 21.1236C36.6697 20.9954 36.5975 20.8793 36.501 20.7852L34.2079 18.55C34.0968 18.4417 34.0182 18.3045 33.981 18.1539C33.9438 18.0032 33.9495 17.8452 33.9974 17.6977C34.0454 17.5501 34.1337 17.4189 34.2523 17.3189C34.3709 17.2189 34.5151 17.1541 34.6687 17.1317L37.8376 16.6713C37.971 16.652 38.0977 16.6004 38.2068 16.5212C38.3158 16.4419 38.404 16.3374 38.4637 16.2165L39.8808 13.3449C39.9494 13.2058 40.0557 13.0886 40.1874 13.0067C40.3192 12.9248 40.4713 12.8813 40.6264 12.8813C40.7816 12.8813 40.9336 12.9248 41.0654 13.0067C41.1972 13.0886 41.3034 13.2058 41.3721 13.3449Z" fill="#FFE966"/>
<path d="M13.7923 18.55C13.9034 18.4417 13.982 18.3045 14.0192 18.1539C14.0563 18.0032 14.0506 17.8452 14.0027 17.6977C13.9548 17.5501 13.8665 17.4189 13.7479 17.3189C13.6293 17.2189 13.485 17.1541 13.3315 17.1317L10.1626 16.6713C10.0291 16.652 9.90245 16.6004 9.79338 16.5212C9.68432 16.4419 9.59616 16.3374 9.5365 16.2165L8.11937 13.3449C8.05072 13.2058 7.9445 13.0886 7.81273 13.0067C7.68096 12.9248 7.52889 12.8813 7.37373 12.8813C7.21857 12.8813 7.06651 12.9248 6.93474 13.0067C6.80297 13.0886 6.69675 13.2058 6.62809 13.3449L6.3894 13.8287C6.40253 13.8504 6.4164 13.8712 6.42803 13.8947L7.84525 16.7663C7.90492 16.8872 7.99308 16.9917 8.10213 17.0709C8.21117 17.1501 8.33784 17.2016 8.47122 17.221L11.6402 17.6816C11.7937 17.7039 11.9379 17.7687 12.0565 17.8687C12.1751 17.9687 12.2633 18.0999 12.3113 18.2475C12.3592 18.395 12.3649 18.553 12.3277 18.7036C12.2906 18.8542 12.212 18.9915 12.1009 19.0997L9.8079 21.3349C9.71138 21.429 9.63919 21.5452 9.59755 21.6734C9.5559 21.8016 9.54605 21.938 9.56884 22.0709L10.1101 25.227C10.1145 25.2527 10.1155 25.2776 10.1176 25.3027L10.595 25.5538C10.7324 25.626 10.8871 25.6583 11.0419 25.6471C11.1966 25.6359 11.3451 25.5816 11.4707 25.4904C11.5962 25.3993 11.6937 25.2748 11.7521 25.131C11.8106 24.9873 11.8276 24.8301 11.8014 24.6772L11.2601 21.5211C11.2373 21.3883 11.2472 21.2519 11.2888 21.1237C11.3305 20.9954 11.4026 20.8793 11.4992 20.7852L13.7923 18.55Z" fill="#FFE236"/>
<path d="M15.3431 33.2573C15.3887 33.0776 15.4865 32.9155 15.6241 32.7913C16.9778 31.5663 18.266 30.271 19.4836 28.9106C20.988 27.2296 22.3815 25.4526 23.6555 23.5909C23.879 23.2684 24.2003 23.0263 24.5718 22.9002C24.9434 22.774 25.3457 22.7706 25.7194 22.8903L25.7585 22.9025C25.9984 22.9771 26.2205 23.0999 26.4112 23.2635C26.6019 23.427 26.7573 23.6278 26.8676 23.8534C26.978 24.0791 27.0411 24.325 27.053 24.576C27.065 24.8269 27.0255 25.0777 26.9371 25.3128L25.3124 29.6336C25.2857 29.7046 25.2766 29.7809 25.2859 29.8561C25.2952 29.9313 25.3226 30.0032 25.3657 30.0655C25.4089 30.1278 25.4665 30.1787 25.5336 30.2139C25.6007 30.249 25.6754 30.2674 25.7511 30.2674H33.7318C34.8354 30.2674 35.7754 31.1256 35.8146 32.2286C35.8246 32.5019 35.7794 32.7745 35.6816 33.03C35.5839 33.2854 35.4357 33.5186 35.2458 33.7155C35.0559 33.9124 34.8283 34.069 34.5766 34.176C34.3248 34.283 34.0541 34.3381 33.7806 34.3381H33.7318C34.8354 34.3381 35.7755 35.1963 35.8146 36.2994C35.8246 36.5727 35.7794 36.8453 35.6816 37.1008C35.5839 37.3563 35.4357 37.5894 35.2458 37.7863C35.0559 37.9832 34.8283 38.1399 34.5766 38.2468C34.3248 38.3538 34.0541 38.4089 33.7806 38.4089H32.3749C33.4785 38.4089 34.4185 39.2671 34.4577 40.3701C34.4677 40.6434 34.4224 40.916 34.3247 41.1715C34.227 41.4269 34.0788 41.6601 33.8889 41.857C33.699 42.0539 33.4714 42.2105 33.2197 42.3175C32.968 42.4245 32.6972 42.4796 32.4237 42.4797H31.0668C31.6066 42.4797 32.1243 42.6941 32.506 43.0758C32.8876 43.4575 33.1021 43.9752 33.1021 44.515V44.77C33.1026 45.2684 32.9204 45.7497 32.5901 46.1228C32.2597 46.496 31.804 46.7351 31.3092 46.795C25.225 47.5206 18.7359 47.6974 12.8676 45.6718C12.8339 45.6602 12.2564 45.4701 12.2586 45.4616L15.3431 33.2573ZM29.7427 45.672C29.709 45.6603 29.1315 45.4702 29.1336 45.4617L29.7427 45.672Z" fill="#FFCD85"/>
<path d="M0 31.8516H12.8159C13.1282 31.8516 13.4374 31.913 13.7259 32.0325C14.0144 32.152 14.2766 32.3272 14.4974 32.548C14.7182 32.7688 14.8934 33.0309 15.0129 33.3194C15.1324 33.6079 15.1939 33.9172 15.1939 34.2294V44.8199C15.1939 45.1322 15.1324 45.4414 15.0129 45.7299C14.8934 46.0184 14.7182 46.2805 14.4974 46.5014C14.2766 46.7222 14.0144 46.8973 13.7259 47.0168C13.4374 47.1363 13.1282 47.1978 12.8159 47.1978H0" fill="#B7A580"/>
<path d="M10.8523 44.3853C11.6289 44.3853 12.2585 43.7557 12.2585 42.979C12.2585 42.2024 11.6289 41.5728 10.8523 41.5728C10.0756 41.5728 9.44604 42.2024 9.44604 42.979C9.44604 43.7557 10.0756 44.3853 10.8523 44.3853Z" fill="white"/>
<path d="M18.9801 9.88347C19.0044 9.9072 19.0226 9.93649 19.0332 9.96883C19.0437 10.0012 19.0462 10.0356 19.0404 10.0691L18.4461 13.5341C18.3951 13.8313 18.4283 14.1368 18.5419 14.4161C18.6555 14.6954 18.845 14.9373 19.089 15.1145C19.3329 15.2918 19.6216 15.3972 19.9223 15.4189C20.223 15.4407 20.5239 15.3778 20.7908 15.2375L23.9024 13.6016C23.9325 13.5858 23.966 13.5775 24 13.5775C24.0339 13.5775 24.0674 13.5858 24.0975 13.6016L27.2092 15.2375C27.476 15.3778 27.7769 15.4407 28.0776 15.419C28.3784 15.3972 28.667 15.2918 28.911 15.1145C29.1549 14.9373 29.3444 14.6953 29.458 14.416C29.5716 14.1367 29.6048 13.8312 29.5538 13.534L28.9596 10.069C28.9538 10.0355 28.9563 10.0011 28.9668 9.96885C28.9773 9.93654 28.9955 9.90728 29.0198 9.88356L31.5372 7.42975C31.7531 7.2193 31.9059 6.95262 31.9782 6.65989C32.0504 6.36716 32.0393 6.06005 31.9462 5.77328C31.853 5.48652 31.6815 5.23154 31.4509 5.03718C31.2204 4.84283 30.9401 4.71685 30.6417 4.6735L27.1628 4.168C27.1291 4.16309 27.0971 4.15008 27.0696 4.13007C27.0421 4.11006 27.0199 4.08367 27.0049 4.05316L25.449 0.900812C25.3156 0.630417 25.1091 0.402751 24.8531 0.243559C24.597 0.0843665 24.3015 0 24 0C23.6984 0 23.4029 0.0843665 23.1468 0.243559C22.8908 0.402751 22.6843 0.630417 22.5509 0.900812L20.995 4.05325C20.98 4.08373 20.9578 4.1101 20.9303 4.13009C20.9028 4.15008 20.8709 4.16309 20.8372 4.168L17.3584 4.6735C17.06 4.71684 16.7797 4.84281 16.5491 5.03715C16.3186 5.2315 16.147 5.48648 16.0538 5.77325C15.9607 6.06001 15.9496 6.36713 16.0219 6.65987C16.0941 6.95261 16.2469 7.21929 16.4628 7.42975L18.9801 9.88347ZM17.3913 6.20772C17.4022 6.16984 17.4241 6.13604 17.4542 6.11064C17.4843 6.08523 17.5213 6.06936 17.5605 6.06503L21.0395 5.55953C21.2988 5.5219 21.545 5.42177 21.757 5.26777C21.9689 5.11377 22.1402 4.91053 22.2562 4.67556L23.8119 1.52312C23.8292 1.48803 23.856 1.45848 23.8892 1.43781C23.9225 1.41715 23.9608 1.4062 24 1.4062C24.0391 1.4062 24.0774 1.41715 24.1107 1.43781C24.1439 1.45848 24.1707 1.48803 24.188 1.52312L25.7438 4.67556C25.8597 4.91055 26.031 5.11382 26.243 5.26783C26.455 5.42185 26.7012 5.52199 26.9605 5.55962L30.4395 6.06512C30.4782 6.07074 30.5146 6.08708 30.5445 6.1123C30.5744 6.13752 30.5967 6.17061 30.6088 6.20783C30.6209 6.24505 30.6223 6.28491 30.6129 6.3229C30.6035 6.36088 30.5837 6.39548 30.5557 6.42278L28.0383 8.87669C27.8507 9.05954 27.7103 9.28528 27.6294 9.53444C27.5484 9.78361 27.5293 10.0487 27.5736 10.3069L28.1678 13.7717C28.1744 13.8103 28.1701 13.8499 28.1554 13.8862C28.1406 13.9224 28.1161 13.9538 28.0844 13.9768C28.0528 13.9998 28.0153 14.0135 27.9763 14.0163C27.9373 14.0191 27.8983 14.011 27.8636 13.9928L24.752 12.3569C24.5201 12.235 24.262 12.1713 24 12.1713C23.738 12.1713 23.4799 12.235 23.248 12.3569L20.1364 13.9928C20.1018 14.011 20.0627 14.0192 20.0237 14.0164C19.9847 14.0136 19.9472 13.9999 19.9156 13.9769C19.8839 13.9539 19.8593 13.9225 19.8446 13.8863C19.8298 13.85 19.8255 13.8104 19.8322 13.7718L20.4264 10.307C20.4708 10.0488 20.4516 9.78367 20.3707 9.53449C20.2897 9.28531 20.1493 9.05956 19.9617 8.87669L17.4443 6.42278C17.4152 6.39625 17.3946 6.36165 17.3851 6.32337C17.3757 6.28509 17.3778 6.24487 17.3913 6.20781V6.20772ZM47.5357 19.0534C47.7407 18.8535 47.8857 18.6003 47.9542 18.3223C48.0228 18.0443 48.0123 17.7527 47.9238 17.4804C47.8353 17.2081 47.6724 16.966 47.4536 16.7814C47.2347 16.5968 46.9685 16.4771 46.6852 16.4359L43.5163 15.9754C43.4957 15.9725 43.4761 15.9645 43.4593 15.9523C43.4424 15.94 43.4288 15.9239 43.4196 15.9052L42.0024 13.0337C41.8757 12.7769 41.6796 12.5608 41.4365 12.4096C41.1933 12.2585 40.9127 12.1784 40.6263 12.1784C40.34 12.1784 40.0594 12.2585 39.8162 12.4096C39.573 12.5608 39.377 12.7769 39.2502 13.0337L37.833 15.9052C37.8238 15.9239 37.8102 15.94 37.7934 15.9523C37.7766 15.9645 37.757 15.9725 37.7364 15.9755L34.5675 16.4359C34.2841 16.4771 34.018 16.5968 33.799 16.7813C33.5801 16.9659 33.4172 17.208 33.3287 17.4804C33.2402 17.7527 33.2297 18.0443 33.2983 18.3223C33.3669 18.6003 33.512 18.8536 33.717 19.0534L36.01 21.2886C36.0249 21.3032 36.0361 21.3211 36.0425 21.3409C36.0489 21.3607 36.0504 21.3817 36.0469 21.4022L35.5056 24.5583C35.4572 24.8406 35.4887 25.1307 35.5966 25.3959C35.7045 25.6612 35.8845 25.8909 36.1161 26.0592C36.3478 26.2275 36.6219 26.3277 36.9075 26.3483C37.1931 26.369 37.4788 26.3093 37.7322 26.1761L40.5666 24.6859C40.585 24.6763 40.6055 24.6712 40.6263 24.6712C40.6471 24.6712 40.6676 24.6763 40.686 24.6859L43.5204 26.1761C43.7739 26.3093 44.0596 26.3689 44.3451 26.3483C44.6307 26.3276 44.9048 26.2275 45.1365 26.0592C45.3681 25.8908 45.548 25.6611 45.6559 25.3959C45.7638 25.1307 45.7954 24.8406 45.747 24.5583L45.2057 21.4022C45.2022 21.3817 45.2037 21.3606 45.2102 21.3409C45.2166 21.3211 45.2277 21.3032 45.2426 21.2887L47.5357 19.0534ZM44.261 20.2817C44.0828 20.4553 43.9495 20.6697 43.8726 20.9064C43.7958 21.143 43.7776 21.3948 43.8197 21.64L44.361 24.7961C44.365 24.8197 44.3624 24.844 44.3534 24.8661C44.3444 24.8883 44.3293 24.9075 44.3099 24.9216C44.2906 24.9357 44.2677 24.944 44.2438 24.9458C44.2199 24.9475 44.196 24.9425 44.1748 24.9314L41.3404 23.4412C41.1202 23.3254 40.8751 23.2649 40.6263 23.2649C40.3775 23.2649 40.1324 23.3254 39.9122 23.4412L37.0778 24.9314C37.0566 24.9425 37.0328 24.9475 37.0089 24.9458C36.985 24.944 36.9621 24.9357 36.9427 24.9216C36.9234 24.9075 36.9083 24.8883 36.8993 24.8661C36.8903 24.844 36.8876 24.8197 36.8917 24.7961L37.433 21.64C37.4751 21.3948 37.4569 21.1429 37.38 20.9063C37.3031 20.6696 37.1698 20.4552 36.9916 20.2816L34.6986 18.0466C34.6814 18.0298 34.6693 18.0086 34.6636 17.9854C34.6578 17.9621 34.6587 17.9377 34.6661 17.915C34.6735 17.8922 34.6871 17.8719 34.7055 17.8565C34.7238 17.841 34.746 17.831 34.7697 17.8276L37.9387 17.3671C38.1849 17.3313 38.4187 17.2362 38.62 17.09C38.8212 16.9437 38.9839 16.7507 39.094 16.5276L40.5112 13.6561C40.5219 13.6346 40.5382 13.6165 40.5586 13.6039C40.5789 13.5912 40.6024 13.5845 40.6263 13.5845C40.6503 13.5845 40.6737 13.5912 40.6941 13.6039C40.7144 13.6165 40.7308 13.6346 40.7414 13.6561L42.1585 16.5276C42.2686 16.7507 42.4313 16.9437 42.6326 17.09C42.8339 17.2362 43.0678 17.3313 43.314 17.3671L46.4829 17.8276C46.5066 17.831 46.5289 17.841 46.5472 17.8564C46.5655 17.8719 46.5792 17.8921 46.5866 17.9149C46.594 17.9377 46.5948 17.9621 46.5891 17.9853C46.5834 18.0086 46.5712 18.0297 46.5541 18.0465L44.261 20.2817ZM2.75738 21.2886C2.7723 21.3031 2.78346 21.3211 2.7899 21.3409C2.79633 21.3607 2.79785 21.3817 2.79431 21.4022L2.25309 24.5583C2.20473 24.8406 2.23628 25.1307 2.34417 25.3959C2.45207 25.6611 2.632 25.8908 2.86364 26.0592C3.09528 26.2275 3.36938 26.3276 3.65496 26.3483C3.94054 26.3689 4.2262 26.3093 4.47966 26.1761L7.314 24.6859C7.33241 24.6763 7.35291 24.6712 7.37372 24.6712C7.39453 24.6712 7.41502 24.6763 7.43344 24.6859L10.2679 26.1761C10.5213 26.3093 10.807 26.3689 11.0926 26.3483C11.3781 26.3276 11.6523 26.2275 11.8839 26.0592C12.1155 25.8908 12.2955 25.6611 12.4034 25.3959C12.5113 25.1307 12.5428 24.8406 12.4944 24.5583L11.9531 21.4022C11.9496 21.3817 11.9511 21.3607 11.9576 21.3409C11.964 21.3211 11.9751 21.3032 11.99 21.2887L14.2831 19.0534C14.4881 18.8535 14.6331 18.6003 14.7017 18.3223C14.7703 18.0443 14.7597 17.7527 14.6713 17.4804C14.5828 17.2081 14.4199 16.966 14.201 16.7814C13.9821 16.5968 13.7159 16.4771 13.4326 16.4359L10.2638 15.9754C10.2432 15.9724 10.2236 15.9645 10.2068 15.9522C10.1899 15.94 10.1763 15.9239 10.1671 15.9052L8.74988 13.0337C8.62404 12.7762 8.42821 12.5594 8.18484 12.4081C7.94146 12.2568 7.66038 12.1772 7.37381 12.1783C7.08722 12.1772 6.80612 12.2568 6.56271 12.4081C6.3193 12.5594 6.12344 12.7762 5.99756 13.0337L4.58044 15.9052C4.57124 15.9239 4.55765 15.94 4.54083 15.9523C4.52401 15.9645 4.50446 15.9725 4.48387 15.9755L1.31494 16.4358C1.03156 16.477 0.765349 16.5966 0.546417 16.7812C0.327484 16.9658 0.164562 17.2079 0.0760739 17.4803C-0.0124138 17.7526 -0.0229368 18.0443 0.045695 18.3223C0.114327 18.6003 0.259375 18.8536 0.464437 19.0534L2.75738 21.2886ZM1.41347 17.9148C1.41978 17.8915 1.43309 17.8705 1.45163 17.8549C1.47016 17.8393 1.49303 17.8298 1.51716 17.8276L4.686 17.3671C4.93223 17.3313 5.16607 17.2362 5.36736 17.09C5.56866 16.9437 5.73137 16.7507 5.84147 16.5276L7.25869 13.6561C7.26929 13.6346 7.28568 13.6165 7.30602 13.6039C7.32636 13.5912 7.34982 13.5845 7.37377 13.5845C7.39771 13.5845 7.42118 13.5912 7.44151 13.6039C7.46185 13.6165 7.47824 13.6346 7.48884 13.6561L8.90597 16.5276C9.01608 16.7507 9.17879 16.9437 9.38008 17.09C9.58138 17.2362 9.81521 17.3313 10.0614 17.3671L13.2304 17.8276C13.2541 17.831 13.2763 17.841 13.2946 17.8565C13.3129 17.8719 13.3265 17.8921 13.3339 17.9149C13.3414 17.9377 13.3423 17.962 13.3365 17.9853C13.3308 18.0085 13.3187 18.0297 13.3016 18.0465L11.0085 20.2817C10.8303 20.4553 10.697 20.6697 10.6201 20.9063C10.5432 21.143 10.525 21.3948 10.5671 21.64L11.1084 24.7961C11.1125 24.8197 11.1098 24.844 11.1008 24.8661C11.0918 24.8883 11.0767 24.9075 11.0574 24.9216C11.038 24.9357 11.0151 24.944 10.9912 24.9458C10.9673 24.9475 10.9434 24.9425 10.9222 24.9314L8.08781 23.4412C7.86759 23.3254 7.62252 23.2649 7.37372 23.2649C7.12492 23.2649 6.87985 23.3254 6.65963 23.4412L3.82538 24.9314C3.80418 24.9425 3.78028 24.9475 3.75639 24.9458C3.73249 24.9441 3.70955 24.9357 3.69017 24.9217C3.67079 24.9076 3.65573 24.8884 3.6467 24.8662C3.63768 24.844 3.63504 24.8197 3.63909 24.7961L4.18041 21.64C4.22251 21.3948 4.20434 21.1429 4.12745 20.9063C4.05055 20.6696 3.91725 20.4552 3.73903 20.2816L1.446 18.0466C1.42779 18.0305 1.41493 18.0093 1.40913 17.9858C1.40333 17.9622 1.40488 17.9375 1.41356 17.9148H1.41347ZM12.9619 42.9789C12.9619 42.5617 12.8382 42.1539 12.6064 41.807C12.3746 41.4601 12.0452 41.1898 11.6597 41.0301C11.2743 40.8704 10.8502 40.8287 10.441 40.9101C10.0318 40.9915 9.65595 41.1924 9.36095 41.4874C9.06595 41.7824 8.86505 42.1582 8.78366 42.5674C8.70226 42.9766 8.74404 43.4007 8.90369 43.7861C9.06334 44.1716 9.33371 44.501 9.68059 44.7328C10.0275 44.9646 10.4353 45.0883 10.8525 45.0883C11.4118 45.0877 11.9479 44.8652 12.3434 44.4698C12.7388 44.0743 12.9613 43.5382 12.9619 42.9789ZM10.1494 42.9789C10.1494 42.8398 10.1906 42.7039 10.2679 42.5883C10.3451 42.4726 10.4549 42.3825 10.5834 42.3293C10.7119 42.2761 10.8533 42.2622 10.9897 42.2893C11.1261 42.3164 11.2514 42.3834 11.3497 42.4817C11.448 42.5801 11.515 42.7053 11.5421 42.8417C11.5692 42.9781 11.5553 43.1195 11.5021 43.248C11.4489 43.3765 11.3588 43.4863 11.2431 43.5635C11.1275 43.6408 10.9916 43.682 10.8525 43.682C10.6661 43.6818 10.4874 43.6077 10.3555 43.4759C10.2237 43.3441 10.1496 43.1653 10.1494 42.9789ZM36.5171 32.2039C36.4664 30.7483 35.2171 29.5641 33.7323 29.5641H26.0898L27.5954 25.5599C27.7175 25.235 27.7719 24.8886 27.7554 24.5419C27.7388 24.1953 27.6516 23.8557 27.4991 23.5439C27.3465 23.2322 27.1319 22.9549 26.8684 22.729C26.6049 22.5032 26.298 22.3335 25.9666 22.2305L25.9282 22.2186C25.4111 22.0526 24.8542 22.0579 24.3404 22.2336C23.8265 22.4094 23.3831 22.7462 23.0759 23.194C21.8184 25.03 20.4437 26.7829 18.9603 28.4417C17.7653 29.7759 16.5016 31.047 15.1744 32.2498C14.8857 31.9049 14.5249 31.6276 14.1175 31.4373C13.71 31.247 13.2657 31.1484 12.816 31.1484H0.703125C0.516645 31.1484 0.337802 31.2225 0.205941 31.3543C0.074079 31.4862 0 31.6651 0 31.8515C0 32.038 0.074079 32.2169 0.205941 32.3487C0.337802 32.4806 0.516645 32.5547 0.703125 32.5547H12.8159C13.2599 32.5552 13.6856 32.7318 13.9996 33.0457C14.3136 33.3597 14.4902 33.7854 14.4907 34.2294V44.8198C14.4902 45.2638 14.3136 45.6895 13.9996 46.0035C13.6856 46.3174 13.2599 46.494 12.8159 46.4945H0.703125C0.516645 46.4945 0.337802 46.5686 0.205941 46.7005C0.074079 46.8323 0 47.0112 0 47.1977C0 47.3841 0.074079 47.563 0.205941 47.6948C0.337802 47.8267 0.516645 47.9008 0.703125 47.9008H12.8159C13.6196 47.9012 14.3913 47.5864 14.9655 47.0241C16.8799 47.5035 19.6025 47.9941 23.6536 47.994C26.2412 47.9801 28.8257 47.813 31.3935 47.4934C32.0588 47.4127 32.6715 47.091 33.1159 46.5893C33.5603 46.0876 33.8055 45.4405 33.8053 44.7703V44.5153C33.8058 43.9841 33.6507 43.4643 33.3593 43.0202C33.9035 42.8215 34.3707 42.4558 34.6943 41.9754C35.0178 41.4949 35.181 40.9244 35.1605 40.3456C35.1436 39.8482 34.9895 39.3652 34.7152 38.9499C35.1607 38.791 35.557 38.5185 35.8649 38.1595C36.1728 37.8004 36.3817 37.3672 36.4708 36.9026C36.56 36.4381 36.5263 35.9584 36.3732 35.5108C36.2201 35.0633 35.9528 34.6635 35.5977 34.3509C35.6505 34.3042 35.7016 34.2556 35.7507 34.205C36.0074 33.9408 36.2076 33.6272 36.3393 33.2832C36.4711 32.9392 36.5316 32.572 36.5171 32.2039ZM30.3881 35.0419H33.7322C34.4681 35.0419 35.0871 35.6169 35.1117 36.3242C35.1185 36.5031 35.089 36.6817 35.0252 36.849C34.9613 37.0164 34.8644 37.1691 34.7402 37.2981C34.6159 37.4272 34.4669 37.5298 34.3021 37.6C34.1373 37.6701 33.9601 37.7063 33.7809 37.7063H30.3881C30.2016 37.7063 30.0228 37.7804 29.8909 37.9123C29.7591 38.0441 29.685 38.223 29.685 38.4094C29.685 38.5959 29.7591 38.7748 29.8909 38.9066C30.0228 39.0385 30.2016 39.1126 30.3881 39.1126H32.3747C33.1106 39.1126 33.7298 39.6882 33.7552 40.3957C33.7618 40.5747 33.7322 40.7532 33.6683 40.9205C33.6043 41.0878 33.5073 41.2405 33.383 41.3695C33.2586 41.4984 33.1096 41.601 32.9447 41.671C32.7799 41.741 32.6026 41.777 32.4234 41.7769H30.3881C30.2016 41.7769 30.0228 41.851 29.8909 41.9829C29.7591 42.1147 29.685 42.2936 29.685 42.4801C29.685 42.6665 29.7591 42.8454 29.8909 42.9772C30.0228 43.1091 30.2016 43.1832 30.3881 43.1832H31.0669C31.4201 43.1836 31.7587 43.3241 32.0084 43.5738C32.2582 43.8236 32.3987 44.1622 32.3991 44.5154V44.7704C32.3995 45.0966 32.2804 45.4117 32.0644 45.6561C31.8483 45.9006 31.5502 46.0574 31.2264 46.0971C27.2058 46.5766 21.3158 47.044 15.7485 45.7634C15.8469 45.4585 15.897 45.1401 15.8969 44.8198V34.2294C15.8969 34.1451 15.8926 34.062 15.8859 33.9794L16.0244 33.4317C16.036 33.3857 16.061 33.3442 16.0961 33.3123C17.4679 32.0706 18.7736 30.7579 20.008 29.3795C21.5321 27.6753 22.9446 25.8743 24.2365 23.988C24.3749 23.7892 24.5737 23.6403 24.8034 23.5636C25.0331 23.4868 25.2814 23.4861 25.5115 23.5618L25.5499 23.5736C25.6983 23.6198 25.8357 23.6959 25.9537 23.7971C26.0716 23.8983 26.1677 24.0225 26.236 24.1621C26.3043 24.3018 26.3433 24.4539 26.3507 24.6092C26.3581 24.7644 26.3337 24.9196 26.2791 25.0651L24.6544 29.3859C24.5877 29.5632 24.5651 29.7541 24.5883 29.9421C24.6116 30.1301 24.68 30.3096 24.7879 30.4654C24.8957 30.6211 25.0397 30.7484 25.2074 30.8363C25.3752 30.9243 25.5618 30.9702 25.7512 30.9703H33.7322C34.4681 30.9703 35.087 31.5457 35.1117 32.2535C35.1184 32.4325 35.0889 32.611 35.025 32.7783C34.9611 32.9456 34.8642 33.0983 34.74 33.2273C34.6158 33.3563 34.4668 33.459 34.302 33.5291C34.1373 33.5993 33.96 33.6355 33.7809 33.6356H30.3881C30.2016 33.6356 30.0228 33.7097 29.8909 33.8415C29.7591 33.9734 29.685 34.1522 29.685 34.3387C29.685 34.5252 29.7591 34.704 29.8909 34.8359C30.0228 34.9678 30.2016 35.0418 30.3881 35.0418V35.0419Z" fill="#272A33"/>
</g>
<defs>
<clipPath id="clip0_31_412">
<rect width="48" height="48" fill="white"/>
</clipPath>
</defs>
</svg>
