<svg width="48" height="48" viewBox="0 0 48 48" fill="none" xmlns="http://www.w3.org/2000/svg">
<path d="M34.1642 24.3225L41.1814 41.6147L34.1783 38.3794L31.4314 45.5888L24.8979 29.5584C24.9846 29.6088 25.0665 29.6668 25.1426 29.7319L25.6714 30.1819C25.8804 30.3595 26.1279 30.486 26.3943 30.5513C26.6607 30.6166 26.9386 30.6189 27.206 30.558C27.4735 30.4971 27.723 30.3748 27.9349 30.2006C28.1468 30.0264 28.3152 29.8053 28.4267 29.5547L28.7098 28.9163C28.88 28.5337 29.1805 28.2241 29.5577 28.0426C29.935 27.8611 30.3644 27.8195 30.7695 27.9253L31.4398 28.1016C31.7053 28.171 31.9833 28.1775 32.2517 28.1207C32.5201 28.0639 32.7716 27.9453 32.9862 27.7743C33.2008 27.6033 33.3726 27.3846 33.4879 27.1357C33.6032 26.8867 33.6588 26.6143 33.6505 26.34L33.628 25.6444C33.6203 25.3988 33.664 25.1544 33.7564 24.9268C33.8487 24.6991 33.9876 24.4933 34.1642 24.3225Z" fill="#FBB03B"/>
<path d="M37.7073 15.0938C37.9265 15.2579 38.1044 15.4708 38.2271 15.7156C38.3497 15.9604 38.4136 16.2304 38.4138 16.5042C38.414 16.7781 38.3504 17.0481 38.2281 17.2931C38.1058 17.5381 37.9281 17.7512 37.7092 17.9156L37.1439 18.3403C36.81 18.5912 36.576 18.9523 36.4833 19.3594C36.3906 19.7666 36.4453 20.1934 36.6376 20.5641L36.9592 21.1819C37.0855 21.4254 37.1534 21.6949 37.1573 21.9692C37.1613 22.2435 37.1012 22.5149 36.9819 22.7619C36.8626 23.0089 36.6873 23.2247 36.47 23.3921C36.2527 23.5595 35.9994 23.6739 35.7301 23.7263L35.0551 23.8575C34.644 23.9377 34.2748 24.1615 34.0134 24.4888C33.752 24.8161 33.6155 25.2257 33.6282 25.6444L33.6507 26.34C33.6591 26.6143 33.6034 26.8867 33.4881 27.1357C33.3728 27.3846 33.2011 27.6033 32.9865 27.7743C32.7719 27.9453 32.5204 28.0639 32.252 28.1207C31.9836 28.1775 31.7056 28.171 31.4401 28.1016L30.7698 27.9253C30.3647 27.8195 29.9353 27.8611 29.558 28.0426C29.1807 28.2241 28.8802 28.5338 28.7101 28.9163L28.427 29.5547C28.3155 29.8053 28.1471 30.0265 27.9352 30.2006C27.7233 30.3748 27.4738 30.4971 27.2063 30.558C26.9389 30.6189 26.661 30.6166 26.3946 30.5513C26.1282 30.486 25.8807 30.3595 25.6717 30.1819L25.1429 29.7319C25.0668 29.6668 24.9849 29.6088 24.8982 29.5585V29.5575C24.6263 29.3964 24.3161 29.3114 24.0001 29.3114C23.6841 29.3114 23.3739 29.3964 23.102 29.5575V29.5585C23.0154 29.6088 22.9335 29.6668 22.8573 29.7319L22.3286 30.1819C22.1196 30.3595 21.8721 30.486 21.6057 30.5513C21.3393 30.6166 21.0613 30.6189 20.7939 30.558C20.5265 30.4971 20.2769 30.3748 20.065 30.2006C19.8531 30.0265 19.6847 29.8053 19.5732 29.5547L19.2901 28.9163C19.12 28.5338 18.8195 28.2241 18.4422 28.0426C18.065 27.8611 17.6355 27.8195 17.2304 27.9253L16.5601 28.1016C16.2947 28.171 16.0167 28.1775 15.7482 28.1207C15.4798 28.0639 15.2283 27.9453 15.0137 27.7743C14.7992 27.6033 14.6274 27.3846 14.5121 27.1357C14.3968 26.8867 14.3411 26.6143 14.3495 26.34L14.372 25.6444C14.3846 25.2257 14.2481 24.8162 13.9867 24.4889C13.7253 24.1616 13.3562 23.9378 12.9451 23.8575L12.2701 23.7263C12.0008 23.6739 11.7475 23.5595 11.5302 23.3921C11.3129 23.2247 11.1376 23.0089 11.0183 22.7619C10.899 22.5149 10.8389 22.2435 10.8429 21.9692C10.8468 21.6949 10.9147 21.4254 11.0411 21.1819L11.3626 20.5641C11.555 20.1934 11.6097 19.7666 11.517 19.3594C11.4243 18.9523 11.1902 18.5912 10.8564 18.3403L10.2911 17.9156C10.0721 17.7512 9.89443 17.5381 9.77213 17.2931C9.64982 17.0481 9.58624 16.7781 9.58643 16.5042C9.58661 16.2304 9.65055 15.9604 9.77317 15.7156C9.8958 15.4708 10.0738 15.2579 10.2929 15.0938L10.8536 14.6738C11.1881 14.4231 11.4228 14.0617 11.5158 13.6542C11.6089 13.2466 11.5543 12.8192 11.3617 12.4481L11.0411 11.8322C10.9147 11.5887 10.8468 11.3192 10.8429 11.0449C10.8389 10.7706 10.899 10.4992 11.0183 10.2522C11.1376 10.0052 11.3129 9.78942 11.5302 9.62201C11.7475 9.45461 12.0008 9.34018 12.2701 9.28783L12.9451 9.15658C13.3562 9.07631 13.7254 8.85255 13.9868 8.52524C14.2481 8.19793 14.3847 7.78838 14.372 7.36971L14.3495 6.67502C14.3409 6.40072 14.3965 6.12821 14.5118 5.87916C14.627 5.6301 14.7988 5.41137 15.0134 5.24034C15.228 5.06931 15.4796 4.95071 15.7481 4.89397C16.0166 4.83722 16.2946 4.8439 16.5601 4.91346L17.2304 5.08877C17.6354 5.19452 18.0647 5.15305 18.4419 4.97174C18.8192 4.79042 19.1197 4.48106 19.2901 4.09877L19.5732 3.46033C19.6846 3.20959 19.8529 2.98827 20.0647 2.81398C20.2766 2.6397 20.5262 2.51724 20.7937 2.45634C21.0612 2.39545 21.3393 2.39781 21.6057 2.46322C21.8722 2.52863 22.1197 2.65529 22.3286 2.83315L22.8573 3.28221C23.1762 3.55363 23.5813 3.70269 24.0001 3.70269C24.4189 3.70269 24.824 3.55363 25.1429 3.28221L25.6717 2.83315C25.8806 2.65529 26.1281 2.52863 26.3945 2.46322C26.661 2.39781 26.939 2.39545 27.2065 2.45634C27.474 2.51724 27.7236 2.6397 27.9355 2.81398C28.1474 2.98827 28.3157 3.20959 28.427 3.46033L28.7101 4.09877C28.8805 4.48106 29.1811 4.79042 29.5583 4.97174C29.9355 5.15305 30.3648 5.19452 30.7698 5.08877L31.4401 4.91346C31.7056 4.8439 31.9836 4.83722 32.2521 4.89397C32.5206 4.95071 32.7722 5.06931 32.9868 5.24034C33.2014 5.41137 33.3732 5.6301 33.4885 5.87916C33.6037 6.12821 33.6593 6.40072 33.6507 6.67502L33.6282 7.36971C33.6156 7.78838 33.7521 8.19793 34.0135 8.52524C34.2748 8.85255 34.644 9.07631 35.0551 9.15658L35.7301 9.28783C35.9994 9.34018 36.2527 9.45461 36.47 9.62201C36.6873 9.78942 36.8626 10.0052 36.9819 10.2522C37.1012 10.4992 37.1613 10.7706 37.1573 11.0449C37.1534 11.3192 37.0855 11.5887 36.9592 11.8322L36.6385 12.4481C36.446 12.8192 36.3913 13.2466 36.4844 13.6542C36.5774 14.0617 36.8121 14.4231 37.1467 14.6738L37.7073 15.0938ZM32.7442 16.5075C32.7444 14.7781 32.2317 13.0874 31.271 11.6493C30.3103 10.2112 28.9447 9.09035 27.347 8.42839C25.7492 7.76643 23.9911 7.59313 22.2948 7.93042C20.5986 8.26771 19.0404 9.10042 17.8175 10.3233C16.5945 11.5461 15.7616 13.1041 15.4241 14.8004C15.0867 16.4966 15.2598 18.2548 15.9216 19.8526C16.5834 21.4504 17.7041 22.8161 19.1421 23.7769C20.58 24.7378 22.2707 25.2506 24.0001 25.2506C26.319 25.2506 28.5429 24.3295 30.1827 22.6898C31.8225 21.0502 32.7439 18.8264 32.7442 16.5075Z" fill="#B7A580"/>
<path d="M23.9999 7.76343C25.7292 7.76352 27.4196 8.27639 28.8574 9.23718C30.2952 10.198 31.4158 11.5635 32.0776 13.1612C32.7393 14.7589 32.9124 16.5169 32.575 18.2129C32.2376 19.909 31.4049 21.4669 30.1821 22.6897C28.9593 23.9125 27.4014 24.7452 25.7054 25.0826C24.0093 25.42 22.2513 25.2469 20.6536 24.5851C19.056 23.9234 17.6904 22.8028 16.7296 21.365C15.7688 19.9272 15.256 18.2368 15.2559 16.5075C15.2559 14.1884 16.1772 11.9644 17.817 10.3246C19.4568 8.68474 21.6809 7.76348 23.9999 7.76343ZM27.5146 16.5075C27.5146 15.8124 27.3085 15.1328 26.9223 14.5548C26.5361 13.9768 25.9872 13.5264 25.3449 13.2603C24.7027 12.9943 23.996 12.9247 23.3142 13.0603C22.6325 13.196 22.0062 13.5307 21.5147 14.0222C21.0231 14.5138 20.6884 15.14 20.5528 15.8218C20.4172 16.5036 20.4868 17.2103 20.7528 17.8525C21.0188 18.4947 21.4693 19.0436 22.0473 19.4298C22.6253 19.816 23.3048 20.0222 23.9999 20.0222C24.9321 20.0221 25.826 19.6518 26.4851 18.9927C27.1442 18.3336 27.5146 17.4396 27.5146 16.5075Z" fill="white"/>
<path d="M24 12.9919C24.6954 12.9918 25.3752 13.1978 25.9535 13.584C26.5317 13.9702 26.9825 14.5192 27.2487 15.1615C27.515 15.8039 27.5847 16.5108 27.4492 17.1929C27.3136 17.8749 26.9789 18.5014 26.4872 18.9932C25.9956 19.4849 25.3692 19.8198 24.6872 19.9556C24.0052 20.0913 23.2983 20.0217 22.6558 19.7557C22.0134 19.4896 21.4642 19.039 21.0779 18.4608C20.6916 17.8827 20.4854 17.2029 20.4854 16.5076C20.4853 16.0459 20.5761 15.5888 20.7527 15.1623C20.9293 14.7358 21.1881 14.3482 21.5145 14.0218C21.8409 13.6953 22.2284 13.4363 22.6548 13.2596C23.0813 13.0829 23.5384 12.992 24 12.9919Z" fill="#B7A580"/>
<path d="M23.1018 29.5586L16.5684 45.5889L13.8215 38.3795L6.81836 41.6148L13.844 24.3311C14.0178 24.5018 14.1544 24.7066 14.2452 24.9326C14.336 25.1586 14.3791 25.401 14.3718 25.6445L14.3493 26.3401C14.3409 26.6144 14.3966 26.8868 14.5119 27.1358C14.6272 27.3847 14.799 27.6034 15.0135 27.7744C15.2281 27.9454 15.4796 28.064 15.748 28.1208C16.0165 28.1776 16.2945 28.1711 16.5599 28.1017L17.2302 27.9254C17.6353 27.8196 18.0648 27.8612 18.442 28.0427C18.8193 28.2242 19.1198 28.5338 19.2899 28.9164L19.573 29.5548C19.6845 29.8054 19.8529 30.0265 20.0648 30.2007C20.2767 30.3749 20.5263 30.4972 20.7937 30.5581C21.0611 30.619 21.3391 30.6167 21.6055 30.5514C21.8719 30.4861 22.1194 30.3596 22.3284 30.182L22.8571 29.732C22.9333 29.6669 23.0152 29.6089 23.1018 29.5586Z" fill="#FBB03B"/>
</svg>
