<svg width="49" height="48" viewBox="0 0 49 48" fill="none" xmlns="http://www.w3.org/2000/svg">
<g clip-path="url(#clip0_6_136)">
<path d="M19.0287 36.4278L16.4253 33.8245C14.6273 35.0045 13.2561 35.7461 13.2368 35.7577C13.1827 35.7867 13.1228 35.8021 13.0649 35.8021C12.9703 35.8021 12.8776 35.7654 12.8061 35.6959C12.6922 35.5819 12.6671 35.4062 12.7424 35.2652C12.754 35.2459 13.4956 33.8747 14.6756 32.0767L12.0722 29.4733L11.5257 28.9268C9.10192 30.1222 7.02386 31.7928 5.33978 33.8998C3.91064 35.6901 2.76346 37.7952 1.93108 40.1571C0.51545 44.1723 0.5 47.496 0.5 47.6351C0.5 47.8359 0.664159 48.0001 0.865012 48.0001C1.00406 48.0001 4.32779 47.9846 8.34292 46.569C10.7049 45.7366 12.81 44.5894 14.6003 43.1603C16.7073 41.4781 18.3778 39.3982 19.5733 36.9744L19.0268 36.4278H19.0287Z" fill="#FFCA28"/>
<path d="M47.6991 7.71356C47.5619 7.46443 47.3997 7.18246 47.2085 6.87732C46.6446 5.97928 45.8354 4.87265 44.7288 3.76796C43.6241 2.66327 42.5174 1.85213 41.6194 1.29013C41.3143 1.09894 41.0323 0.934777 40.7832 0.799588C40.7059 0.7571 40.6171 0.743581 40.5302 0.762894C36.7024 1.59334 32.9789 3.14223 29.4581 5.36706C26.4975 7.23847 23.645 9.60815 20.9818 12.4124C19.6588 13.8067 18.4634 15.2204 17.3954 16.5974C17.2274 16.8138 17.0632 17.0281 16.901 17.2425C14.8731 19.9308 13.3455 22.4299 12.3103 24.2839C12.1848 24.508 12.0689 24.7223 11.9569 24.9251C11.8294 25.1627 11.7097 25.3867 11.5996 25.5953C11.5262 25.7363 11.5533 25.9101 11.6653 26.0221L12.0187 26.3755L15.9121 30.269C16.0551 30.072 16.1999 29.8731 16.3486 29.6741C16.449 29.5389 16.5514 29.4038 16.6557 29.2686C18.0018 27.5208 19.3093 26.1244 20.5453 25.1202C22.1289 23.832 23.6122 23.1812 24.9486 23.1812C25.1495 23.1812 25.3136 23.3453 25.3136 23.5462C25.3136 24.8846 24.6608 26.3659 23.3746 27.9495C22.3703 29.1855 20.974 30.4949 19.2262 31.8391C19.091 31.9434 18.9558 32.0457 18.8207 32.1462C18.6217 32.2949 18.4228 32.4417 18.2258 32.5826L22.1193 36.4761L22.4727 36.8295C22.5422 36.899 22.6369 36.9357 22.7315 36.9357C22.7894 36.9357 22.8474 36.9222 22.8995 36.8952C23.1081 36.787 23.3321 36.6673 23.5697 36.5379C23.7744 36.4278 23.9868 36.31 24.2109 36.1845C26.0649 35.1512 28.564 33.6217 31.2504 31.5938C31.4647 31.4316 31.6791 31.2674 31.8954 31.0994C33.2724 30.0314 34.6861 28.836 36.0805 27.513C38.8847 24.8498 41.2544 21.9992 43.1258 19.0367C45.3487 15.5179 46.8976 11.7924 47.73 7.96463C47.7493 7.87966 47.7358 7.78889 47.6933 7.71163L47.6991 7.71356ZM31.3701 11.8021C31.3701 10.3807 31.9244 9.04228 32.9286 8.03802C33.9329 7.03375 35.2713 6.47755 36.6927 6.47755C38.1141 6.47755 39.4525 7.03182 40.4568 8.03802C41.463 9.04422 42.0153 10.3807 42.0153 11.8021C42.0153 13.2235 41.461 14.5619 40.4568 15.5661C39.4506 16.5723 38.1141 17.1247 36.6927 17.1247C35.2713 17.1247 33.9329 16.5704 32.9286 15.5661C31.9244 14.5619 31.3701 13.2235 31.3701 11.8021Z" fill="#E0E0E0"/>
<path d="M31.2579 31.5958C28.5695 33.6236 26.0705 35.1513 24.2184 36.1865C23.9943 36.312 23.78 36.4279 23.5772 36.5399C23.8785 37.0285 24.1952 37.6117 24.4829 38.28C25.3559 40.3059 26.1381 43.5543 24.9136 47.5289C24.8634 47.6891 24.931 47.863 25.0739 47.9479C25.1319 47.9827 25.1975 48.0001 25.2613 48.0001C25.3559 48.0001 25.4486 47.9634 25.52 47.8939C27.7758 45.6381 29.4908 43.2723 30.6148 40.8621C31.5186 38.925 32.0458 36.9532 32.183 35.0064C32.2969 33.3803 32.1192 32.0497 31.9049 31.1033C31.6885 31.2713 31.4742 31.4355 31.2598 31.5977L31.2579 31.5958ZM17.399 16.5975C16.4508 16.3812 15.1201 16.2054 13.4959 16.3194C11.5472 16.4546 9.57734 16.9838 7.64027 17.8876C5.23003 19.0116 2.86421 20.7266 0.608479 22.9823C0.490671 23.1001 0.467496 23.2855 0.554404 23.4284C0.641311 23.5713 0.813195 23.6389 0.973491 23.5887C4.94999 22.3662 8.19841 23.1484 10.2224 24.0194C10.8906 24.3072 11.4739 24.6239 11.9625 24.9252C12.0726 24.7205 12.1904 24.508 12.3159 24.284C13.3491 22.43 14.8787 19.9309 16.9065 17.2425C17.0688 17.0282 17.2329 16.8138 17.4009 16.5975H17.399ZM48.4965 0.363167C48.4945 0.166176 48.3342 0.00588033 48.1353 0.00201777C45.5551 -0.0288827 42.9962 0.226046 40.5319 0.762942C40.6169 0.743629 40.7076 0.757148 40.7849 0.799636C41.034 0.936757 41.316 1.09898 41.6211 1.29018C42.5192 1.85411 43.6239 2.66332 44.7305 3.76801C45.8352 4.8727 46.6463 5.97932 47.2102 6.87737C47.4014 7.18251 47.5656 7.46448 47.7008 7.71361C47.7433 7.79086 47.7568 7.8797 47.7375 7.96661C48.2724 5.5023 48.5293 2.94335 48.4984 0.363167H48.4965ZM24.9561 23.1793C23.6177 23.1793 22.1364 23.8321 20.5528 25.1183C19.3168 26.1226 18.0074 27.5189 16.6632 29.2667C16.5589 29.4019 16.4566 29.5371 16.3561 29.6723C16.2074 29.8712 16.0606 30.0701 15.9197 30.2671C15.628 30.6707 15.3499 31.0705 15.0892 31.4548C14.9463 31.6653 14.8092 31.872 14.6759 32.0748C13.4959 33.8728 12.7543 35.244 12.7427 35.2633C12.6655 35.4043 12.6925 35.58 12.8064 35.694C12.876 35.7635 12.9706 35.8002 13.0652 35.8002C13.1251 35.8002 13.183 35.7867 13.2371 35.7558C13.2564 35.7442 14.6276 35.0026 16.4257 33.8226C16.6265 33.6893 16.8332 33.5522 17.0456 33.4093C17.4299 33.1486 17.8297 32.8704 18.2333 32.5788C18.4303 32.4359 18.6292 32.2911 18.8282 32.1424C18.9634 32.0419 19.0985 31.9396 19.2337 31.8353C20.9815 30.4892 22.3779 29.1817 23.3821 27.9457C24.6703 26.362 25.3211 24.8788 25.3211 23.5424C25.3211 23.3415 25.157 23.1774 24.9561 23.1774V23.1793Z" fill="#B7A580"/>
<path d="M33.4477 15.0524C34.3148 15.9195 35.4697 16.3985 36.6961 16.3985C37.9224 16.3985 39.0773 15.9215 39.9445 15.0524C40.8116 14.1853 41.2906 13.0303 41.2906 11.804C41.2906 10.5776 40.8136 9.42272 39.9445 8.55557C39.0773 7.68843 37.9224 7.20947 36.6961 7.20947C35.4697 7.20947 34.3148 7.6865 33.4477 8.55557C32.5805 9.42272 32.1016 10.5776 32.1016 11.804C32.1016 13.0303 32.5786 14.1853 33.4477 15.0524Z" fill="#B7A580"/>
<path d="M22.4779 36.8295L22.1245 36.4761L18.231 32.5826C17.8274 32.8743 17.4276 33.1524 17.0433 33.4131C16.8328 33.556 16.6261 33.6931 16.4233 33.8264L19.0267 36.4297L19.5733 36.9763L20.4288 37.8318C20.4983 37.9014 20.591 37.9381 20.6876 37.9381C20.7359 37.9381 20.7861 37.9284 20.8325 37.9091C20.8653 37.8956 21.6281 37.5634 22.9047 36.8971C22.8506 36.9241 22.7927 36.9377 22.7367 36.9377C22.6421 36.9377 22.5494 36.901 22.4779 36.8314V36.8295ZM11.6705 26.0221C11.5585 25.9101 11.5314 25.7362 11.6048 25.5953C10.9385 26.8718 10.6063 27.6366 10.5928 27.6675C10.5329 27.8046 10.5638 27.9649 10.6701 28.0692L11.5256 28.9248L12.0722 29.4713L14.6755 32.0747C14.8088 31.8739 14.9459 31.6672 15.0888 31.4548C15.3496 31.0704 15.6277 30.6707 15.9193 30.267L12.0258 26.3736L11.6724 26.0201L11.6705 26.0221ZM40.462 8.03801C39.4558 7.03182 38.1193 6.47754 36.6979 6.47754C35.2765 6.47754 33.9381 7.03182 32.9338 8.03801C31.9296 9.04421 31.3753 10.3807 31.3753 11.8021C31.3753 13.2235 31.9296 14.5619 32.9338 15.5661C33.9381 16.5704 35.2765 17.1247 36.6979 17.1247C38.1193 17.1247 39.4577 16.5704 40.462 15.5661C41.4682 14.5599 42.0205 13.2235 42.0205 11.8021C42.0205 10.3807 41.4662 9.04228 40.462 8.03801ZM39.9463 15.0524C39.0792 15.9196 37.9243 16.3985 36.6979 16.3985C35.4715 16.3985 34.3166 15.9215 33.4495 15.0524C32.5824 14.1853 32.1034 13.0304 32.1034 11.804C32.1034 10.5776 32.5804 9.42274 33.4495 8.55559C34.3166 7.68845 35.4715 7.20949 36.6979 7.20949C37.9243 7.20949 39.0792 7.68652 39.9463 8.55559C40.8135 9.42274 41.2924 10.5776 41.2924 11.804C41.2924 13.0304 40.8154 14.1853 39.9463 15.0524Z" fill="#BDBDBD"/>
</g>
<defs>
<clipPath id="clip0_6_136">
<rect width="48" height="48" fill="white" transform="translate(0.5)"/>
</clipPath>
</defs>
</svg>
