<svg width="21" height="20" viewBox="0 0 21 20" fill="none" xmlns="http://www.w3.org/2000/svg">
<path d="M2.94272 9.24597L17.1094 2.57931C17.252 2.51218 17.4108 2.4869 17.5673 2.5064C17.7237 2.5259 17.8714 2.58937 17.9932 2.68946C18.115 2.78955 18.206 2.92213 18.2554 3.07183C18.3049 3.22152 18.3109 3.38218 18.2727 3.53514L17.2627 7.57597L10.7977 10.0001L17.2627 12.4243L18.2727 16.4651C18.3116 16.6182 18.3061 16.7792 18.2569 16.9293C18.2076 17.0793 18.1167 17.2123 17.9946 17.3125C17.8726 17.4128 17.7245 17.4763 17.5678 17.4955C17.411 17.5147 17.252 17.4888 17.1094 17.421L2.94272 10.7543C2.79956 10.687 2.67851 10.5804 2.59372 10.4468C2.50893 10.3133 2.4639 10.1583 2.4639 10.0001C2.4639 9.84195 2.50893 9.68702 2.59372 9.55347C2.67851 9.41992 2.79956 9.31327 2.94272 9.24597Z" fill="#B7A580"/>
</svg>
