<svg width="49" height="48" viewBox="0 0 49 48" fill="none" xmlns="http://www.w3.org/2000/svg">
<g clip-path="url(#clip0_6_149)">
<path d="M25.3186 1.212L26.8745 4.36434C26.9399 4.49705 27.0367 4.61185 27.1564 4.69885C27.2761 4.78585 27.4152 4.84244 27.5617 4.86375L31.0406 5.36925C31.2092 5.39375 31.3675 5.46492 31.4977 5.57471C31.6279 5.68451 31.7248 5.82854 31.7775 5.99053C31.8301 6.15251 31.8364 6.32599 31.7955 6.49135C31.7547 6.65671 31.6685 6.80736 31.5465 6.92625L29.0291 9.38006C28.9232 9.48337 28.8439 9.61089 28.7982 9.75163C28.7524 9.89238 28.7416 10.0421 28.7666 10.188L29.3609 13.6528C29.3897 13.8207 29.3709 13.9932 29.3067 14.151C29.2426 14.3088 29.1355 14.4454 28.9977 14.5455C28.86 14.6456 28.6969 14.7052 28.527 14.7175C28.3572 14.7298 28.1873 14.6943 28.0365 14.6151L24.9248 12.9792C24.7938 12.9103 24.6481 12.8744 24.5001 12.8744C24.3521 12.8744 24.2063 12.9103 24.0753 12.9792L20.9637 14.6152C20.8129 14.6944 20.643 14.7299 20.4731 14.7176C20.3032 14.7054 20.1401 14.6458 20.0023 14.5457C19.8645 14.4455 19.7575 14.3089 19.6933 14.1511C19.6292 13.9933 19.6104 13.8207 19.6392 13.6528L20.2335 10.188C20.2585 10.0421 20.2477 9.89238 20.202 9.75163C20.1562 9.61089 20.077 9.48337 19.971 9.38006L17.4536 6.92625C17.3317 6.80736 17.2454 6.65671 17.2046 6.49135C17.1638 6.32599 17.17 6.15251 17.2227 5.99053C17.2753 5.82854 17.3722 5.68451 17.5024 5.57471C17.6326 5.46492 17.7909 5.39375 17.9595 5.36925L21.4384 4.86375C21.5848 4.84246 21.7239 4.78587 21.8437 4.69887C21.9634 4.61187 22.0602 4.49706 22.1257 4.36434L23.6815 1.212C23.7569 1.05928 23.8735 0.930704 24.0182 0.840798C24.1628 0.750893 24.3297 0.703247 24.5001 0.703247C24.6704 0.703247 24.8373 0.750893 24.9819 0.840798C25.1266 0.930704 25.2432 1.05928 25.3186 1.212Z" fill="#FFE966"/>
<path d="M31.5477 6.92622C31.6697 6.80733 31.756 6.65669 31.7968 6.49133C31.8376 6.32597 31.8314 6.15248 31.7787 5.9905C31.7261 5.82851 31.6292 5.68448 31.499 5.57469C31.3688 5.46489 31.2104 5.39372 31.0419 5.36922L27.563 4.86372C27.4165 4.84243 27.2775 4.78584 27.1577 4.69884C27.038 4.61184 26.9412 4.49704 26.8757 4.36431L25.3198 1.21188C25.2444 1.05916 25.1277 0.930582 24.9831 0.840676C24.8384 0.750771 24.6715 0.703125 24.5012 0.703125C24.3309 0.703125 24.164 0.750771 24.0193 0.840676C23.8747 0.930582 23.7581 1.05916 23.6827 1.21188L23.4219 1.74044L24.9379 4.81235C25.0034 4.94505 25.1002 5.05984 25.2199 5.14682C25.3397 5.23381 25.4787 5.29038 25.6252 5.31166L29.1042 5.81716C29.2727 5.84166 29.431 5.91283 29.5613 6.02262C29.6915 6.13241 29.7884 6.27645 29.841 6.43843C29.8936 6.60042 29.8999 6.7739 29.8591 6.93926C29.8183 7.10462 29.732 7.25527 29.61 7.37416L27.0927 9.82797C26.9867 9.93128 26.9074 10.0588 26.8617 10.1995C26.816 10.3403 26.8051 10.49 26.8302 10.6359L27.4244 14.1008C27.4357 14.1664 27.44 14.233 27.4373 14.2995L28.0377 14.615C28.1884 14.6943 28.3583 14.7297 28.5282 14.7175C28.6981 14.7052 28.8611 14.6456 28.9989 14.5455C29.1367 14.4454 29.2437 14.3087 29.3079 14.151C29.3721 13.9932 29.3908 13.8206 29.3621 13.6528L28.7678 10.188C28.7428 10.0421 28.7536 9.89235 28.7993 9.75161C28.845 9.61086 28.9243 9.48334 29.0303 9.38003L31.5477 6.92622Z" fill="#FFE236"/>
<path d="M8.61843 13.3449L10.0356 16.2165C10.0952 16.3374 10.1834 16.4419 10.2924 16.5212C10.4015 16.6004 10.5282 16.652 10.6616 16.6713L13.8306 17.1317C13.9841 17.1541 14.1283 17.2189 14.2469 17.3189C14.3656 17.4189 14.4538 17.5501 14.5018 17.6977C14.5497 17.8452 14.5554 18.0032 14.5182 18.1539C14.481 18.3045 14.4024 18.4417 14.2913 18.55L11.9982 20.7852C11.9017 20.8793 11.8295 20.9954 11.7879 21.1236C11.7462 21.2519 11.7364 21.3883 11.7591 21.5211L12.3005 24.6772C12.3267 24.8301 12.3096 24.9873 12.2512 25.131C12.1927 25.2748 12.0952 25.3993 11.9697 25.4904C11.8442 25.5816 11.6957 25.6359 11.5409 25.6471C11.3862 25.6583 11.2314 25.626 11.0941 25.5538L8.25974 24.0636C8.14041 24.0009 8.00761 23.9681 7.87279 23.9681C7.73797 23.9681 7.60517 24.0009 7.48583 24.0636L4.65149 25.5538C4.51416 25.626 4.35938 25.6583 4.20463 25.6471C4.04989 25.6359 3.90137 25.5816 3.77586 25.4904C3.65035 25.3993 3.55286 25.2748 3.49441 25.131C3.43596 24.9873 3.41888 24.8301 3.44511 24.6772L3.98643 21.5211C4.00922 21.3883 3.99937 21.2519 3.95772 21.1236C3.91608 20.9954 3.84388 20.8793 3.74736 20.7852L1.45424 18.55C1.34314 18.4417 1.26455 18.3045 1.22736 18.1539C1.19017 18.0032 1.19587 17.8452 1.24381 17.6977C1.29175 17.5501 1.38002 17.4189 1.49864 17.3189C1.61725 17.2189 1.76149 17.1541 1.91502 17.1317L5.08396 16.6713C5.21737 16.652 5.34407 16.6004 5.45314 16.5212C5.5622 16.4419 5.65036 16.3374 5.71002 16.2165L7.12715 13.3449C7.1958 13.2058 7.30202 13.0886 7.43379 13.0067C7.56556 12.9248 7.71763 12.8813 7.87279 12.8813C8.02795 12.8813 8.18001 12.9248 8.31178 13.0067C8.44355 13.0886 8.54977 13.2058 8.61843 13.3449ZM41.8711 13.3449L43.2882 16.2165C43.3479 16.3374 43.436 16.4419 43.5451 16.5212C43.6542 16.6004 43.7809 16.652 43.9143 16.6713L47.0832 17.1317C47.2367 17.1541 47.381 17.2189 47.4996 17.3189C47.6182 17.4189 47.7065 17.5501 47.7544 17.6977C47.8024 17.8452 47.8081 18.0032 47.7709 18.1539C47.7337 18.3045 47.6551 18.4417 47.544 18.55L45.2509 20.7852C45.1543 20.8793 45.0822 20.9954 45.0405 21.1236C44.9989 21.2519 44.989 21.3883 45.0118 21.5211L45.5531 24.6772C45.5793 24.8301 45.5623 24.9873 45.5038 25.131C45.4454 25.2748 45.3479 25.3993 45.2224 25.4904C45.0969 25.5816 44.9483 25.6359 44.7936 25.6471C44.6389 25.6583 44.4841 25.626 44.3467 25.5538L41.5124 24.0636C41.3931 24.0009 41.2603 23.9681 41.1254 23.9681C40.9906 23.9681 40.8578 24.0009 40.7385 24.0636L37.9041 25.5538C37.7668 25.626 37.612 25.6583 37.4573 25.6471C37.3026 25.6359 37.154 25.5816 37.0285 25.4904C36.903 25.3993 36.8055 25.2748 36.7471 25.131C36.6886 24.9873 36.6715 24.8301 36.6978 24.6772L37.2391 21.5211C37.2619 21.3883 37.252 21.2519 37.2104 21.1236C37.1687 20.9954 37.0965 20.8793 37 20.7852L34.7069 18.55C34.5958 18.4417 34.5172 18.3045 34.48 18.1539C34.4428 18.0032 34.4485 17.8452 34.4965 17.6977C34.5444 17.5501 34.6327 17.4189 34.7513 17.3189C34.8699 17.2189 35.0141 17.1541 35.1677 17.1317L38.3366 16.6713C38.47 16.652 38.5967 16.6004 38.7058 16.5212C38.8149 16.4419 38.903 16.3374 38.9627 16.2165L40.3798 13.3449C40.4485 13.2058 40.5547 13.0886 40.6864 13.0067C40.8182 12.9248 40.9703 12.8813 41.1254 12.8813C41.2806 12.8813 41.4327 12.9248 41.5644 13.0067C41.6962 13.0886 41.8024 13.2058 41.8711 13.3449Z" fill="#FFE966"/>
<path d="M14.2935 18.55C14.4046 18.4417 14.4832 18.3045 14.5204 18.1539C14.5576 18.0032 14.5519 17.8452 14.5039 17.6977C14.456 17.5501 14.3677 17.4189 14.2491 17.3189C14.1305 17.2189 13.9863 17.1541 13.8327 17.1317L10.6638 16.6713C10.5304 16.652 10.4037 16.6004 10.2946 16.5212C10.1855 16.4419 10.0974 16.3374 10.0377 16.2165L8.62059 13.3449C8.55194 13.2058 8.44572 13.0886 8.31395 13.0067C8.18218 12.9248 8.03011 12.8813 7.87495 12.8813C7.71979 12.8813 7.56773 12.9248 7.43596 13.0067C7.30419 13.0886 7.19797 13.2058 7.12931 13.3449L6.89062 13.8287C6.90375 13.8504 6.91763 13.8712 6.92925 13.8947L8.34647 16.7663C8.40614 16.8872 8.4943 16.9917 8.60335 17.0709C8.71239 17.1501 8.83906 17.2016 8.97244 17.221L12.1414 17.6816C12.2949 17.7039 12.4391 17.7687 12.5577 17.8687C12.6763 17.9687 12.7646 18.0999 12.8125 18.2475C12.8604 18.395 12.8661 18.553 12.829 18.7036C12.7918 18.8542 12.7132 18.9915 12.6022 19.0997L10.3091 21.3349C10.2126 21.429 10.1404 21.5452 10.0988 21.6734C10.0571 21.8016 10.0473 21.938 10.0701 22.0709L10.6113 25.227C10.6157 25.2527 10.6167 25.2776 10.6188 25.3027L11.0963 25.5538C11.2336 25.626 11.3884 25.6583 11.5431 25.6471C11.6978 25.6359 11.8464 25.5816 11.9719 25.4904C12.0974 25.3993 12.1949 25.2748 12.2533 25.131C12.3118 24.9873 12.3289 24.8301 12.3026 24.6772L11.7613 21.5211C11.7385 21.3883 11.7484 21.2519 11.79 21.1237C11.8317 20.9954 11.9039 20.8793 12.0004 20.7852L14.2935 18.55Z" fill="#FFE236"/>
<path d="M15.8424 33.2573C15.888 33.0776 15.9857 32.9155 16.1234 32.7913C17.477 31.5663 18.7653 30.271 19.9828 28.9106C21.4872 27.2296 22.8808 25.4526 24.1547 23.5909C24.3783 23.2684 24.6995 23.0263 25.0711 22.9002C25.4427 22.774 25.8449 22.7706 26.2186 22.8903L26.2577 22.9025C26.4976 22.9771 26.7198 23.0999 26.9105 23.2635C27.1012 23.427 27.2565 23.6278 27.3669 23.8534C27.4773 24.0791 27.5403 24.325 27.5523 24.576C27.5642 24.8269 27.5248 25.0777 27.4363 25.3128L25.8117 29.6336C25.785 29.7046 25.7759 29.7809 25.7852 29.8561C25.7945 29.9313 25.8219 30.0032 25.865 30.0655C25.9081 30.1278 25.9657 30.1787 26.0329 30.2139C26.1 30.249 26.1746 30.2674 26.2504 30.2674H34.2311C35.3347 30.2674 36.2746 31.1256 36.3139 32.2286C36.3239 32.5019 36.2786 32.7745 36.1809 33.03C36.0832 33.2854 35.9349 33.5186 35.7451 33.7155C35.5552 33.9124 35.3276 34.069 35.0758 34.176C34.8241 34.283 34.5534 34.3381 34.2798 34.3381H34.2311C35.3347 34.3381 36.2747 35.1963 36.3139 36.2994C36.3239 36.5727 36.2786 36.8453 36.1809 37.1008C36.0832 37.3563 35.9349 37.5894 35.7451 37.7863C35.5552 37.9832 35.3276 38.1399 35.0758 38.2468C34.8241 38.3538 34.5534 38.4089 34.2798 38.4089H32.8741C33.9778 38.4089 34.9178 39.2671 34.957 40.3701C34.9669 40.6434 34.9217 40.916 34.824 41.1715C34.7262 41.4269 34.578 41.6601 34.3882 41.857C34.1983 42.0539 33.9707 42.2105 33.719 42.3175C33.4672 42.4245 33.1965 42.4796 32.923 42.4797H31.566C32.1058 42.4797 32.6235 42.6941 33.0052 43.0758C33.3869 43.4575 33.6013 43.9752 33.6013 44.515V44.77C33.6019 45.2684 33.4197 45.7497 33.0893 46.1228C32.7589 46.496 32.3033 46.7351 31.8085 46.795C25.7243 47.5206 19.2352 47.6974 13.3669 45.6718C13.3332 45.6602 12.7557 45.4701 12.7578 45.4616L15.8424 33.2573ZM30.242 45.672C30.2083 45.6603 29.6308 45.4702 29.6328 45.4617L30.242 45.672Z" fill="#FFCD85"/>
<path d="M0.5 31.8514H13.3159C13.6282 31.8514 13.9374 31.9129 14.2259 32.0324C14.5144 32.1519 14.7766 32.3271 14.9974 32.5479C15.2182 32.7687 15.3934 33.0308 15.5129 33.3193C15.6324 33.6078 15.6939 33.917 15.6939 34.2293V44.8198C15.6939 45.1321 15.6324 45.4413 15.5129 45.7298C15.3934 46.0183 15.2182 46.2804 14.9974 46.5012C14.7766 46.722 14.5144 46.8972 14.2259 47.0167C13.9374 47.1362 13.6282 47.1977 13.3159 47.1977H0.5" fill="#B7A580"/>
<path d="M11.3516 44.3853C12.1282 44.3853 12.7578 43.7557 12.7578 42.979C12.7578 42.2024 12.1282 41.5728 11.3516 41.5728C10.5749 41.5728 9.94531 42.2024 9.94531 42.979C9.94531 43.7557 10.5749 44.3853 11.3516 44.3853Z" fill="white"/>
<path d="M19.4801 9.88335C19.5044 9.90707 19.5226 9.93637 19.5332 9.96871C19.5437 10.001 19.5462 10.0355 19.5404 10.069L18.9461 13.534C18.8951 13.8312 18.9283 14.1367 19.0419 14.416C19.1555 14.6953 19.345 14.9372 19.589 15.1144C19.8329 15.2916 20.1216 15.3971 20.4223 15.4188C20.723 15.4406 21.0239 15.3777 21.2908 15.2374L24.4024 13.6015C24.4325 13.5856 24.466 13.5774 24.5 13.5774C24.5339 13.5774 24.5674 13.5856 24.5975 13.6015L27.7092 15.2374C27.976 15.3777 28.2769 15.4406 28.5776 15.4188C28.8784 15.3971 29.167 15.2916 29.411 15.1144C29.6549 14.9372 29.8444 14.6952 29.958 14.4159C30.0716 14.1366 30.1048 13.8311 30.0538 13.5339L29.4596 10.0689C29.4538 10.0354 29.4563 10.001 29.4668 9.96872C29.4773 9.93642 29.4955 9.90715 29.5198 9.88344L32.0372 7.42963C32.2531 7.21917 32.4059 6.9525 32.4782 6.65977C32.5504 6.36704 32.5393 6.05992 32.4462 5.77316C32.353 5.48639 32.1815 5.23142 31.9509 5.03706C31.7204 4.84271 31.4401 4.71673 31.1417 4.67338L27.6628 4.16788C27.6291 4.16297 27.5971 4.14995 27.5696 4.12995C27.5421 4.10994 27.5199 4.08354 27.5049 4.05303L25.949 0.90069C25.8156 0.630295 25.6091 0.402629 25.3531 0.243437C25.097 0.0842444 24.8015 -0.00012207 24.5 -0.00012207C24.1984 -0.00012207 23.9029 0.0842444 23.6468 0.243437C23.3908 0.402629 23.1843 0.630295 23.0509 0.90069L21.495 4.05313C21.48 4.08361 21.4578 4.10998 21.4303 4.12997C21.4028 4.14996 21.3709 4.16297 21.3372 4.16788L17.8584 4.67338C17.56 4.71672 17.2797 4.84268 17.0491 5.03703C16.8186 5.23138 16.647 5.48636 16.5538 5.77312C16.4607 6.05989 16.4496 6.36701 16.5219 6.65975C16.5941 6.95249 16.7469 7.21917 16.9628 7.42963L19.4801 9.88335ZM17.8913 6.2076C17.9022 6.16971 17.9241 6.13592 17.9542 6.11052C17.9843 6.08511 18.0213 6.06923 18.0605 6.06491L21.5395 5.55941C21.7988 5.52178 22.045 5.42165 22.257 5.26765C22.4689 5.11365 22.6402 4.9104 22.7562 4.67544L24.3119 1.523C24.3292 1.48791 24.356 1.45836 24.3892 1.43769C24.4225 1.41703 24.4608 1.40607 24.5 1.40607C24.5391 1.40607 24.5774 1.41703 24.6107 1.43769C24.6439 1.45836 24.6707 1.48791 24.688 1.523L26.2438 4.67544C26.3597 4.91043 26.531 5.11369 26.743 5.26771C26.955 5.42173 27.2012 5.52187 27.4605 5.5595L30.9395 6.065C30.9782 6.07062 31.0146 6.08696 31.0445 6.11218C31.0744 6.1374 31.0967 6.17049 31.1088 6.20771C31.1209 6.24493 31.1223 6.28479 31.1129 6.32277C31.1035 6.36076 31.0837 6.39536 31.0557 6.42266L28.5383 8.87656C28.3507 9.05942 28.2103 9.28516 28.1294 9.53432C28.0484 9.78349 28.0293 10.0486 28.0736 10.3068L28.6678 13.7716C28.6744 13.8102 28.6701 13.8498 28.6554 13.8861C28.6406 13.9223 28.6161 13.9537 28.5844 13.9767C28.5528 13.9997 28.5153 14.0134 28.4763 14.0162C28.4373 14.019 28.3983 14.0109 28.3636 13.9927L25.252 12.3568C25.0201 12.2348 24.762 12.1711 24.5 12.1711C24.238 12.1711 23.9799 12.2348 23.748 12.3568L20.6364 13.9927C20.6018 14.0109 20.5627 14.0191 20.5237 14.0163C20.4847 14.0135 20.4472 13.9998 20.4156 13.9768C20.3839 13.9538 20.3593 13.9224 20.3446 13.8862C20.3298 13.8499 20.3255 13.8103 20.3322 13.7717L20.9264 10.3069C20.9708 10.0487 20.9516 9.78355 20.8707 9.53437C20.7897 9.28519 20.6493 9.05943 20.4617 8.87656L17.9443 6.42266C17.9152 6.39613 17.8946 6.36153 17.8851 6.32325C17.8757 6.28497 17.8778 6.24474 17.8913 6.20769V6.2076ZM48.0357 19.0533C48.2407 18.8534 48.3857 18.6002 48.4542 18.3222C48.5228 18.0442 48.5123 17.7526 48.4238 17.4803C48.3353 17.208 48.1724 16.9658 47.9536 16.7813C47.7347 16.5967 47.4685 16.477 47.1852 16.4358L44.0163 15.9753C43.9957 15.9723 43.9761 15.9644 43.9593 15.9521C43.9424 15.9399 43.9288 15.9238 43.9196 15.9051L42.5024 13.0335C42.3757 12.7768 42.1796 12.5606 41.9365 12.4095C41.6933 12.2583 41.4127 12.1782 41.1263 12.1782C40.84 12.1782 40.5594 12.2583 40.3162 12.4095C40.073 12.5606 39.877 12.7768 39.7502 13.0335L38.333 15.9051C38.3238 15.9238 38.3102 15.9399 38.2934 15.9522C38.2766 15.9644 38.257 15.9724 38.2364 15.9754L35.0675 16.4358C34.7841 16.477 34.518 16.5966 34.299 16.7812C34.0801 16.9658 33.9172 17.2079 33.8287 17.4802C33.7402 17.7526 33.7297 18.0442 33.7983 18.3222C33.8669 18.6002 34.012 18.8534 34.217 19.0533L36.51 21.2885C36.5249 21.303 36.5361 21.321 36.5425 21.3408C36.5489 21.3606 36.5504 21.3816 36.5469 21.4021L36.0056 24.5582C35.9572 24.8404 35.9887 25.1306 36.0966 25.3958C36.2045 25.661 36.3845 25.8908 36.6161 26.0591C36.8478 26.2274 37.1219 26.3275 37.4075 26.3482C37.6931 26.3689 37.9788 26.3092 38.2322 26.176L41.0666 24.6858C41.085 24.6761 41.1055 24.6711 41.1263 24.6711C41.1471 24.6711 41.1676 24.6761 41.186 24.6858L44.0204 26.176C44.2739 26.3092 44.5596 26.3688 44.8451 26.3481C45.1307 26.3275 45.4048 26.2273 45.6365 26.059C45.8681 25.8907 46.048 25.661 46.1559 25.3958C46.2638 25.1305 46.2954 24.8404 46.247 24.5582L45.7057 21.402C45.7022 21.3815 45.7037 21.3605 45.7102 21.3408C45.7166 21.321 45.7277 21.3031 45.7426 21.2886L48.0357 19.0533ZM44.761 20.2815C44.5828 20.4552 44.4495 20.6696 44.3726 20.9062C44.2958 21.1429 44.2776 21.3947 44.3197 21.6399L44.861 24.796C44.865 24.8196 44.8624 24.8438 44.8534 24.866C44.8444 24.8882 44.8293 24.9074 44.8099 24.9215C44.7906 24.9355 44.7677 24.9439 44.7438 24.9456C44.7199 24.9474 44.696 24.9424 44.6748 24.9313L41.8404 23.4411C41.6202 23.3253 41.3751 23.2648 41.1263 23.2648C40.8775 23.2648 40.6324 23.3253 40.4122 23.4411L37.5778 24.9313C37.5566 24.9424 37.5328 24.9474 37.5089 24.9456C37.485 24.9439 37.4621 24.9355 37.4427 24.9215C37.4234 24.9074 37.4083 24.8882 37.3993 24.866C37.3903 24.8438 37.3876 24.8196 37.3917 24.796L37.933 21.6399C37.9751 21.3946 37.9569 21.1428 37.88 20.9062C37.8031 20.6695 37.6698 20.4551 37.4916 20.2814L35.1986 18.0464C35.1814 18.0297 35.1693 18.0085 35.1636 17.9853C35.1578 17.962 35.1587 17.9376 35.1661 17.9148C35.1735 17.8921 35.1871 17.8718 35.2055 17.8564C35.2238 17.8409 35.246 17.8309 35.2697 17.8274L38.4387 17.3669C38.6849 17.3312 38.9187 17.2361 39.12 17.0898C39.3212 16.9436 39.4839 16.7506 39.594 16.5275L41.0112 13.6559C41.0219 13.6345 41.0382 13.6164 41.0586 13.6038C41.0789 13.5911 41.1024 13.5844 41.1263 13.5844C41.1503 13.5844 41.1737 13.5911 41.1941 13.6038C41.2144 13.6164 41.2308 13.6345 41.2414 13.6559L42.6585 16.5275C42.7686 16.7506 42.9313 16.9436 43.1326 17.0899C43.3339 17.2361 43.5678 17.3312 43.814 17.3669L46.9829 17.8274C47.0066 17.8309 47.0289 17.8409 47.0472 17.8563C47.0655 17.8718 47.0792 17.892 47.0866 17.9148C47.094 17.9376 47.0948 17.9619 47.0891 17.9852C47.0834 18.0084 47.0712 18.0296 47.0541 18.0463L44.761 20.2815ZM3.25738 21.2885C3.2723 21.303 3.28346 21.3209 3.2899 21.3407C3.29633 21.3605 3.29785 21.3816 3.29431 21.4021L2.75309 24.5582C2.70473 24.8404 2.73628 25.1305 2.84417 25.3958C2.95207 25.661 3.132 25.8907 3.36364 26.059C3.59528 26.2273 3.86938 26.3275 4.15496 26.3481C4.44054 26.3688 4.7262 26.3092 4.97966 26.176L7.814 24.6858C7.83241 24.6761 7.85291 24.6711 7.87372 24.6711C7.89453 24.6711 7.91502 24.6761 7.93344 24.6858L10.7679 26.176C11.0213 26.3092 11.307 26.3688 11.5926 26.3481C11.8781 26.3275 12.1523 26.2273 12.3839 26.059C12.6155 25.8907 12.7955 25.661 12.9034 25.3958C13.0113 25.1305 13.0428 24.8404 12.9944 24.5582L12.4531 21.402C12.4496 21.3816 12.4511 21.3605 12.4576 21.3408C12.464 21.321 12.4751 21.3031 12.49 21.2886L14.7831 19.0533C14.9881 18.8534 15.1331 18.6002 15.2017 18.3222C15.2703 18.0442 15.2597 17.7526 15.1713 17.4803C15.0828 17.208 14.9199 16.9658 14.701 16.7813C14.4821 16.5967 14.2159 16.477 13.9326 16.4358L10.7638 15.9753C10.7432 15.9723 10.7236 15.9644 10.7068 15.9521C10.6899 15.9399 10.6763 15.9238 10.6671 15.9051L9.24988 13.0335C9.12404 12.7761 8.92821 12.5593 8.68484 12.408C8.44146 12.2567 8.16038 12.177 7.87381 12.1782C7.58722 12.177 7.30612 12.2567 7.06271 12.408C6.8193 12.5593 6.62344 12.7761 6.49756 13.0335L5.08044 15.9051C5.07124 15.9238 5.05765 15.9399 5.04083 15.9522C5.02401 15.9644 5.00446 15.9724 4.98387 15.9754L1.81494 16.4357C1.53156 16.4769 1.26535 16.5965 1.04642 16.7811C0.827484 16.9657 0.664562 17.2078 0.576074 17.4802C0.487586 17.7525 0.477063 18.0442 0.545695 18.3222C0.614327 18.6002 0.759375 18.8534 0.964437 19.0533L3.25738 21.2885ZM1.91347 17.9147C1.91978 17.8913 1.93309 17.8704 1.95163 17.8548C1.97016 17.8392 1.99303 17.8297 2.01716 17.8274L5.186 17.3669C5.43223 17.3312 5.66607 17.2361 5.86736 17.0899C6.06866 16.9436 6.23137 16.7506 6.34147 16.5275L7.75869 13.6559C7.76929 13.6345 7.78568 13.6164 7.80602 13.6038C7.82636 13.5911 7.84982 13.5844 7.87377 13.5844C7.89771 13.5844 7.92118 13.5911 7.94151 13.6038C7.96185 13.6164 7.97824 13.6345 7.98884 13.6559L9.40597 16.5275C9.51608 16.7506 9.67879 16.9436 9.88008 17.0899C10.0814 17.2361 10.3152 17.3312 10.5614 17.3669L13.7304 17.8274C13.7541 17.8309 13.7763 17.8409 13.7946 17.8563C13.8129 17.8718 13.8265 17.892 13.8339 17.9148C13.8414 17.9375 13.8423 17.9619 13.8365 17.9852C13.8308 18.0084 13.8187 18.0296 13.8016 18.0463L11.5085 20.2815C11.3303 20.4552 11.197 20.6696 11.1201 20.9062C11.0432 21.1429 11.025 21.3946 11.0671 21.6399L11.6084 24.796C11.6125 24.8196 11.6098 24.8438 11.6008 24.866C11.5918 24.8882 11.5767 24.9074 11.5574 24.9215C11.538 24.9355 11.5151 24.9439 11.4912 24.9456C11.4673 24.9474 11.4434 24.9424 11.4222 24.9313L8.58781 23.4411C8.36759 23.3253 8.12252 23.2648 7.87372 23.2648C7.62492 23.2648 7.37985 23.3253 7.15963 23.4411L4.32538 24.9313C4.30418 24.9424 4.28028 24.9474 4.25639 24.9457C4.23249 24.944 4.20955 24.9356 4.19017 24.9215C4.17079 24.9075 4.15573 24.8882 4.1467 24.866C4.13768 24.8439 4.13504 24.8196 4.13909 24.796L4.68041 21.6399C4.72251 21.3946 4.70434 21.1428 4.62745 20.9062C4.55055 20.6695 4.41725 20.4551 4.23903 20.2814L1.946 18.0464C1.92779 18.0304 1.91493 18.0092 1.90913 17.9857C1.90333 17.9621 1.90488 17.9374 1.91356 17.9147H1.91347ZM13.4619 42.9788C13.4619 42.5616 13.3382 42.1538 13.1064 41.8069C12.8746 41.46 12.5452 41.1896 12.1597 41.03C11.7743 40.8703 11.3502 40.8285 10.941 40.9099C10.5318 40.9913 10.1559 41.1922 9.86095 41.4872C9.56595 41.7822 9.36505 42.1581 9.28366 42.5673C9.20226 42.9764 9.24404 43.4006 9.40369 43.786C9.56334 44.1714 9.83371 44.5009 10.1806 44.7327C10.5275 44.9644 10.9353 45.0882 11.3525 45.0882C11.9118 45.0875 12.4479 44.8651 12.8434 44.4697C13.2388 44.0742 13.4613 43.538 13.4619 42.9788ZM10.6494 42.9788C10.6494 42.8397 10.6906 42.7038 10.7679 42.5882C10.8451 42.4725 10.9549 42.3824 11.0834 42.3292C11.2119 42.276 11.3533 42.262 11.4897 42.2892C11.6261 42.3163 11.7514 42.3833 11.8497 42.4816C11.948 42.5799 12.015 42.7052 12.0421 42.8416C12.0692 42.978 12.0553 43.1194 12.0021 43.2479C11.9489 43.3763 11.8588 43.4862 11.7431 43.5634C11.6275 43.6407 11.4916 43.6819 11.3525 43.6819C11.1661 43.6817 10.9874 43.6076 10.8555 43.4757C10.7237 43.3439 10.6496 43.1652 10.6494 42.9788ZM37.0171 32.2038C36.9664 30.7482 35.7171 29.564 34.2323 29.564H26.5898L28.0954 25.5598C28.2175 25.2349 28.2719 24.8885 28.2554 24.5418C28.2388 24.1952 28.1516 23.8555 27.9991 23.5438C27.8465 23.232 27.6319 22.9547 27.3684 22.7289C27.1049 22.503 26.798 22.3334 26.4666 22.2304L26.4282 22.2185C25.9111 22.0525 25.3542 22.0578 24.8404 22.2335C24.3265 22.4092 23.8831 22.746 23.5759 23.1939C22.3184 25.0299 20.9437 26.7827 19.4603 28.4415C18.2653 29.7757 17.0016 31.0468 15.6744 32.2497C15.3857 31.9048 15.0249 31.6274 14.6175 31.4371C14.21 31.2469 13.7657 31.1483 13.316 31.1483H1.20312C1.01664 31.1483 0.837802 31.2224 0.705941 31.3542C0.574079 31.4861 0.5 31.6649 0.5 31.8514C0.5 32.0379 0.574079 32.2167 0.705941 32.3486C0.837802 32.4805 1.01664 32.5545 1.20312 32.5545H13.3159C13.7599 32.555 14.1856 32.7316 14.4996 33.0456C14.8136 33.3596 14.9902 33.7853 14.9907 34.2293V44.8197C14.9902 45.2637 14.8136 45.6894 14.4996 46.0033C14.1856 46.3173 13.7599 46.4939 13.3159 46.4944H1.20312C1.01664 46.4944 0.837802 46.5685 0.705941 46.7003C0.574079 46.8322 0.5 47.0111 0.5 47.1975C0.5 47.384 0.574079 47.5629 0.705941 47.6947C0.837802 47.8266 1.01664 47.9007 1.20312 47.9007H13.3159C14.1196 47.9011 14.8913 47.5863 15.4655 47.024C17.3799 47.5033 20.1025 47.9939 24.1536 47.9938C26.7412 47.98 29.3257 47.8129 31.8935 47.4933C32.5588 47.4125 33.1715 47.0909 33.6159 46.5892C34.0603 46.0874 34.3055 45.4404 34.3053 44.7702V44.5152C34.3058 43.9839 34.1507 43.4642 33.8593 43.02C34.4035 42.8214 34.8707 42.4557 35.1943 41.9753C35.5178 41.4948 35.681 40.9243 35.6605 40.3454C35.6436 39.8481 35.4895 39.365 35.2152 38.9498C35.6607 38.7909 36.057 38.5184 36.3649 38.1593C36.6728 37.8003 36.8817 37.3671 36.9708 36.9025C37.06 36.438 37.0263 35.9582 36.8732 35.5107C36.7201 35.0631 36.4528 34.6633 36.0977 34.3508C36.1505 34.3041 36.2016 34.2554 36.2507 34.2049C36.5074 33.9407 36.7076 33.627 36.8393 33.283C36.9711 32.9391 37.0316 32.5719 37.0171 32.2038ZM30.8881 35.0418H34.2322C34.9681 35.0418 35.5871 35.6168 35.6117 36.324C35.6185 36.503 35.589 36.6815 35.5252 36.8489C35.4613 37.0162 35.3644 37.169 35.2402 37.298C35.1159 37.4271 34.9669 37.5297 34.8021 37.5998C34.6373 37.67 34.4601 37.7061 34.2809 37.7062H30.8881C30.7016 37.7062 30.5228 37.7803 30.3909 37.9121C30.2591 38.044 30.185 38.2228 30.185 38.4093C30.185 38.5958 30.2591 38.7746 30.3909 38.9065C30.5228 39.0384 30.7016 39.1124 30.8881 39.1124H32.8747C33.6106 39.1124 34.2298 39.6881 34.2552 40.3956C34.2618 40.5746 34.2322 40.7531 34.1683 40.9204C34.1043 41.0877 34.0073 41.2404 33.883 41.3693C33.7586 41.4983 33.6096 41.6008 33.4447 41.6708C33.2799 41.7409 33.1026 41.7769 32.9234 41.7768H30.8881C30.7016 41.7768 30.5228 41.8509 30.3909 41.9828C30.2591 42.1146 30.185 42.2935 30.185 42.4799C30.185 42.6664 30.2591 42.8453 30.3909 42.9771C30.5228 43.109 30.7016 43.1831 30.8881 43.1831H31.5669C31.9201 43.1835 32.2587 43.3239 32.5084 43.5737C32.7582 43.8234 32.8987 44.1621 32.8991 44.5153V44.7703C32.8995 45.0965 32.7804 45.4116 32.5644 45.656C32.3483 45.9005 32.0502 46.0573 31.7264 46.097C27.7058 46.5764 21.8158 47.0439 16.2485 45.7633C16.3469 45.4584 16.397 45.14 16.3969 44.8197V34.2293C16.3969 34.145 16.3926 34.0618 16.3859 33.9793L16.5244 33.4316C16.536 33.3856 16.561 33.3441 16.5961 33.3122C17.9679 32.0705 19.2736 30.7577 20.508 29.3794C22.0321 27.6751 23.4446 25.8742 24.7365 23.9878C24.8749 23.7891 25.0737 23.6402 25.3034 23.5634C25.5331 23.4866 25.7814 23.486 26.0115 23.5617L26.0499 23.5735C26.1983 23.6197 26.3357 23.6957 26.4537 23.7969C26.5716 23.8981 26.6677 24.0224 26.736 24.162C26.8043 24.3017 26.8433 24.4538 26.8507 24.609C26.8581 24.7643 26.8337 24.9194 26.7791 25.0649L25.1544 29.3858C25.0877 29.5631 25.0651 29.7539 25.0883 29.9419C25.1116 30.1299 25.18 30.3095 25.2879 30.4652C25.3957 30.621 25.5397 30.7483 25.7074 30.8362C25.8752 30.9242 26.0618 30.9701 26.2512 30.9702H34.2322C34.9681 30.9702 35.587 31.5456 35.6117 32.2534C35.6184 32.4324 35.5889 32.6108 35.525 32.7782C35.4611 32.9455 35.3642 33.0982 35.24 33.2272C35.1158 33.3562 34.9668 33.4588 34.802 33.529C34.6373 33.5991 34.46 33.6354 34.2809 33.6355H30.8881C30.7016 33.6355 30.5228 33.7096 30.3909 33.8414C30.2591 33.9733 30.185 34.1521 30.185 34.3386C30.185 34.5251 30.2591 34.7039 30.3909 34.8358C30.5228 34.9676 30.7016 35.0417 30.8881 35.0417V35.0418Z" fill="#272A33"/>
</g>
<defs>
<clipPath id="clip0_6_149">
<rect width="48" height="48" fill="white" transform="translate(0.5)"/>
</clipPath>
</defs>
</svg>
