<svg width="36" height="36" viewBox="0 0 36 36" fill="none" xmlns="http://www.w3.org/2000/svg">
<circle cx="18" cy="18" r="17" stroke="#B7A580" stroke-width="2"/>
<path d="M24.3553 14.7411C24.3655 14.8833 24.3655 15.0254 24.3655 15.1675C24.3655 19.5025 21.066 24.4975 15.0355 24.4975C13.1777 24.4975 11.4518 23.9594 10 23.0254C10.264 23.0558 10.5177 23.066 10.7919 23.066C12.3248 23.066 13.736 22.5483 14.8629 21.665C13.4213 21.6345 12.2132 20.6904 11.7969 19.3909C12 19.4213 12.203 19.4416 12.4162 19.4416C12.7107 19.4416 13.0051 19.401 13.2792 19.33C11.7767 19.0254 10.6497 17.7056 10.6497 16.1117V16.0711C11.0862 16.3148 11.5939 16.467 12.1319 16.4873C11.2487 15.8985 10.67 14.8934 10.67 13.7563C10.67 13.1472 10.8324 12.5888 11.1167 12.1015C12.7309 14.0914 15.1573 15.3908 17.8781 15.533C17.8274 15.2893 17.7969 15.0356 17.7969 14.7818C17.7969 12.9746 19.2588 11.5026 21.0761 11.5026C22.0202 11.5026 22.873 11.8985 23.472 12.5381C24.2131 12.396 24.9238 12.1218 25.5532 11.7462C25.3096 12.5077 24.7918 13.1473 24.1116 13.5533C24.7715 13.4823 25.4111 13.2995 25.9999 13.0457C25.5533 13.6954 24.9949 14.2741 24.3553 14.7411Z" fill="#B7A580"/>
</svg>
